SplineFontDB: 3.0
FontName: Crimson-BoldItalic
FullName: Crimson Bold Italic
FamilyName: Crimson
Weight: Bold
Copyright: Copyright (c) 2010, Sebastian Kosch (sebastian@aldusleaf.org),\nwith Reserved Font Name "Crimson".\nThis Font Software is licensed under the SIL Open Font License, Version 1.1.\nThis license is available with a FAQ at: http://scripts.sil.org/OFL
UComments: "2010-5-14: Created."
Version: 0.8
ItalicAngle: -11
UnderlinePosition: -102
UnderlineWidth: 51
Ascent: 742
Descent: 282
InvalidEm: 0
LayerCount: 2
Layer: 0 0 "Back" 1
Layer: 1 0 "Fore" 0
XUID: [1021 85 519305545 5082149]
FSType: 0
OS2Version: 3
OS2_WeightWidthSlopeOnly: 0
OS2_UseTypoMetrics: 1
CreationTime: 1273891947
ModificationTime: 1413032719
PfmFamily: 17
TTFWeight: 700
TTFWidth: 5
LineGap: 256
VLineGap: 0
OS2TypoAscent: 742
OS2TypoAOffset: 0
OS2TypoDescent: -282
OS2TypoDOffset: 0
OS2TypoLinegap: 256
OS2WinAscent: 948
OS2WinAOffset: 0
OS2WinDescent: 332
OS2WinDOffset: 0
HheadAscent: 742
HheadAOffset: 0
HheadDescent: -258
HheadDOffset: 0
OS2SubXSize: 665
OS2SubYSize: 614
OS2SubXOff: -16
OS2SubYOff: 76
OS2SupXSize: 665
OS2SupYSize: 614
OS2SupXOff: 76
OS2SupYOff: 358
OS2StrikeYSize: 51
OS2StrikeYPos: 269
OS2CapHeight: 0
OS2XHeight: 0
OS2FamilyClass: 258
OS2Vendor: 'PfEd'
Lookup: 1 0 0 "'ccmp' Turkish i" { "'ccmp' Turkish i-1"  } ['ccmp' ('latn' <'TRK ' > ) ]
Lookup: 1 0 0 "'onum' Oldstyle Figures lookup 3" { "'onum' Oldstyle Figures lookup 3-1" ("onum") } ['onum' ('DFLT' <'dflt' > 'grek' <'dflt' > 'latn' <'TRK ' 'dflt' > ) ]
Lookup: 1 0 0 "'pnum' Proportional Numbers lookup 12" { "'pnum' Proportional Numbers lookup 12-1" ("prop") } ['pnum' ('DFLT' <'dflt' > 'grek' <'dflt' > 'latn' <'TRK ' 'dflt' > ) ]
Lookup: 4 0 1 "'liga' Standard Ligatures lookup 0" { "'liga' Standard Ligatures lookup 0-1"  } ['liga' ('DFLT' <'dflt' > 'cyrl' <'dflt' > 'grek' <'dflt' > 'latn' <'TRK ' 'dflt' > ) ]

StartChar: exclam
Encoding: 33 33 1
Width: 257
Flags: W
HStem: -11 138<48.557 122> 622 20G<188.5 219.5>
VStem: 23 227
LayerCount: 2
Back
Fore
SplineSet
23 60 m 0
 30 97 64 127 99 127 c 27
 133 127 156 97 149 60 c 0
 142 23 109 -11 74 -11 c 27
 38 -11 16 23 23 60 c 0
205 642 m 0
 234 642 258 617 250 574 c 0
 245 546 171 309 142 221 c 0
 135 201 119 190 105 190 c 0
 100 190 99 200 99 212 c 0
 102 279 121 524 131 575 c 0
 139 617 172 642 205 642 c 0
EndSplineSet
Validated: 33
EndChar

StartChar: quotedbl
Encoding: 34 34 2
Width: 334
Flags: W
HStem: 434 264<141 142.827 295 296.827>
VStem: 105 101<565.027 671.25> 259 101<565.027 671.25>
LayerCount: 2
Back
Fore
SplineSet
332 698 m 27
 360 698 371 692 360 633 c 0
 349 577 314 516 295 449 c 0
 292 439 281 434 274 434 c 0
 267 434 258 439 259 447 c 0
 268 537 259 590 259 636 c 1
 262 654 295 698 332 698 c 27
178 698 m 27
 206 698 217 692 206 633 c 0
 195 577 160 516 141 449 c 0
 138 439 127 434 120 434 c 0
 113 434 104 439 105 447 c 0
 114 537 105 590 105 636 c 1
 108 654 141 698 178 698 c 27
EndSplineSet
Validated: 33
EndChar

StartChar: numbersign
Encoding: 35 35 3
Width: 487
VWidth: 0
Flags: W
HStem: 170 67<41.3047 110 192 250 332 400.695> 311 67<89.3047 158 240 298 380 448.695>
LayerCount: 2
Back
Fore
SplineSet
380 378 m 1
 380 378 422 378 451 378 c 0
 456 378 458 377 458 373 c 3
 458 357 444 311 433 311 c 2
 361 311 l 1
 332 237 l 1
 403 237 l 2
 408 237 410 235 410 231 c 3
 410 215 396 170 385 170 c 2
 313 170 l 1
 262 24 l 2
 261 21 252 16 224 16 c 0
 213 16 197 18 197 21 c 0
 197 21 198 23 198 24 c 0
 199 28 250 170 250 170 c 1
 173 170 l 1
 122 24 l 2
 121 21 112 16 84 16 c 0
 73 16 57 18 57 21 c 0
 57 21 58 23 58 24 c 0
 59 28 110 170 110 170 c 1
 39 170 l 2
 34 170 32 172 32 176 c 3
 32 192 46 237 57 237 c 2
 129 237 l 1
 158 311 l 1
 87 311 l 2
 82 311 80 313 80 317 c 3
 80 333 94 378 105 378 c 2
 177 378 l 1
 228 524 l 2
 229 527 243 532 271 532 c 0
 282 532 293 529 293 526 c 0
 293 526 292 525 292 524 c 0
 291 520 240 378 240 378 c 1
 317 378 l 1
 368 524 l 2
 369 527 383 532 411 532 c 0
 422 532 433 529 433 526 c 0
 433 526 432 525 432 524 c 0
 431 520 380 378 380 378 c 1
298 311 m 1
 221 311 l 1
 192 237 l 1
 269 237 l 1
 298 311 l 1
EndSplineSet
Validated: 1
EndChar

StartChar: dollar
Encoding: 36 36 4
Width: 492
UnlinkRmOvrlpSave: 1
Flags: W
HStem: -10 40<173.311 254.082> 603 40<266.094 327.409>
VStem: 38 39<102.904 189.319> 413 36<451.013 546.787>
LayerCount: 2
Back
Fore
SplineSet
149 -65 m 17
 140 -65 115 -57 118 -50 c 9
 349 684 l 17
 357 685 384 677 381 670 c 9
 149 -65 l 17
325 643 m 0
 233 643 121 568 102 469 c 0
 83 369 139 327 195 280 c 0
 233 247 310 191 297 123 c 0
 284 55 237 30 192 30 c 0
 111 30 75 132 77 184 c 0
 77 190 74 192 67 192 c 0
 62 192 43 184 38 178 c 1
 34 151 27 57 28 15 c 1
 79 2 140 -10 193 -10 c 0
 291 -10 402 62 422 168 c 0
 444 282 380 323 329 365 c 0
 282 404 217 459 229 519 c 0
 241 583 286 603 321 603 c 0
 390 603 416 512 413 458 c 0
 413 450 435 451 438 451 c 0
 442 451 445 453 449 457 c 1
 458 516 464 565 470 616 c 1
 418 628 378 643 325 643 c 0
EndSplineSet
EndChar

StartChar: percent
Encoding: 37 37 5
Width: 700
Flags: W
HStem: -1 30<463.71 514.294> 271 29<497.775 546.434> 341 30<173.71 224.294> 613 29<207.775 256.434>
LayerCount: 2
Back
Fore
SplineSet
529 271 m 0
 475 271 447 159 452 86 c 0
 453 70 460 29 483 29 c 0
 537 29 564 142 559 210 c 0
 557 232 549 271 529 271 c 0
535 300 m 0
 595 300 644 279 650 200 c 0
 657 105 560 -1 473 -1 c 0
 413 -1 365 33 361 97 c 0
 354 192 448 300 535 300 c 0
239 613 m 0
 185 613 157 501 162 428 c 0
 163 412 170 371 193 371 c 0
 247 371 274 484 269 552 c 0
 267 574 259 613 239 613 c 0
245 642 m 0
 305 642 354 621 360 542 c 0
 367 447 270 341 183 341 c 0
 123 341 75 375 71 439 c 0
 64 534 158 642 245 642 c 0
590 618 m 2
 144 -14 l 1
 144 -14 110 -6 110 5 c 0
 110 7 111 9 112 11 c 26
 559 643 l 1
 559 643 591 634 591 623 c 0
 591 621 591 619 590 618 c 2
EndSplineSet
Validated: 33
EndChar

StartChar: ampersand
Encoding: 38 38 6
Width: 809
UnlinkRmOvrlpSave: 1
Flags: W
HStem: -5 50<339.745 511.022> 483 53<341.295 471.5>
VStem: -10 62<89 176.646> 121 129<144.451 341.837> 391 148<385.6 479.196> 447 36<129.72 183.521> 613 63<133.806 233.688> 728 76<444.215 506.732>
LayerCount: 2
Back
Fore
SplineSet
448 536 m 27xf7
 495 536 539 503 539 456 c 27
 539 287 226 242 170 227 c 0
 101 208 52 196 52 155 c 3
 52 138 60 130 73 118 c 0
 86 106 93 95 93 79 c 3
 93 46 69 25 39 25 c 27
 26 25 17 27 7 30 c 1
 -5 50 -10 80 -10 98 c 0
 -10 170 36 225 116 252 c 0
 193 278 391 300 391 437 c 3xfb
 391 466 373 483 354 483 c 3
 287 483 250 355 250 248 c 3
 250 127 320 45 424 45 c 27
 517 45 613 99 613 192 c 0
 613 209 607 228 601 234 c 1
 547 214 483 193 483 149 c 3
 483 134 484 131 485 121 c 1
 481 119 468 125 461 131 c 1
 458 136 447 149 447 176 c 3
 447 251 489 266 576 318 c 0
 644 359 728 417 728 546 c 1
 737 547 747 543 753 540 c 1
 777 522 804 478 804 431 c 27
 804 346 738 294 668 260 c 1
 672 251 676 237 676 222 c 0
 676 86 534 -5 393 -5 c 0
 264 -5 121 70 121 214 c 3
 121 364 269 536 448 536 c 27xf7
EndSplineSet
EndChar

StartChar: quotesingle
Encoding: 39 39 7
Width: 180
Flags: W
HStem: 434 264<141 142.827>
VStem: 105 101<565.027 671.25>
LayerCount: 2
Back
SplineSet
106 698 m 2
 121 698 l 2
 137 698 151 692 151 633 c 0
 151 577 123 516 117 449 c 0
 116 439 108 434 101 434 c 0
 94 434 87 439 86 447 c 0
 77 537 52 594 52 635 c 0
 52 653 80 698 106 698 c 2
EndSplineSet
Fore
SplineSet
178 698 m 27
 206 698 217 692 206 633 c 0
 195 577 160 516 141 449 c 0
 138 439 127 434 120 434 c 0
 113 434 104 439 105 447 c 0
 114 537 105 590 105 636 c 1
 108 654 141 698 178 698 c 27
EndSplineSet
Validated: 33
EndChar

StartChar: parenleft
Encoding: 40 40 8
Width: 277
VWidth: 0
Flags: W
HStem: -121 12<213.442 218.598>
VStem: 39 293
LayerCount: 2
Back
Fore
SplineSet
323 748 m 1
 329 746 333 739 332 735 c 1
 257 664 88 418 110 164 c 0
 122 23 159 -54 219 -109 c 1
 219 -112 219 -119 213 -121 c 1
 143 -99 54 4 39 177 c 0
 13 474 226 676 323 748 c 1
EndSplineSet
Validated: 33
EndChar

StartChar: parenright
Encoding: 41 41 9
Width: 275
VWidth: 0
Flags: W
HStem: 736 12<75.4023 80.5576>
VStem: -38 292
LayerCount: 2
Back
Fore
SplineSet
-29 -121 m 1
 -35 -119 -39 -112 -38 -108 c 1
 37 -37 206 209 184 463 c 0
 172 604 135 681 75 736 c 1
 75 739 75 746 81 748 c 1
 151 726 239 623 254 450 c 0
 280 153 68 -49 -29 -121 c 1
EndSplineSet
Validated: 33
EndChar

StartChar: asterisk
Encoding: 42 42 10
Width: 425
Flags: W
HStem: 428 80<82.1873 171.375> 462 54<261.475 285.088> 472 28<188.545 232.749> 645 20G<215.5 245.5>
VStem: 165 76<307.43 384.921> 233 53<465 469 500.002 513.969>
LayerCount: 2
Back
Fore
SplineSet
270 516 m 0x54
 295 516 333 635 390 635 c 0
 404 635 417 626 417 602 c 0
 417 540 286 524 286 492 c 0x54
 286 465 407 485 407 424 c 0
 407 400 382 378 362 378 c 0
 319 378 292 462 267 462 c 0
 244 462 259 396 241 339 c 0
 232 309 211 301 197 301 c 0
 181 301 165 317 165 334 c 0x58
 165 374 233 438 233 464 c 0
 233 469 232 472 225 472 c 0x34
 204 472 143 428 105 428 c 0
 88 428 73 442 73 458 c 0
 73 471 81 508 135 508 c 0x94
 164 508 195 500 215 500 c 0x34
 237 500 237 503 237 510 c 0
 237 534 184 573 184 616 c 0
 184 641 203 665 228 665 c 0
 263 665 261 624 261 584 c 0
 261 578 256 516 270 516 c 0x54
EndSplineSet
Validated: 33
EndChar

StartChar: plus
Encoding: 43 43 11
Width: 467
Flags: W
HStem: 213 51<26.5193 197 261 429.797>
LayerCount: 2
Back
SplineSet
211 19 m 25
 306 521 l 25
 294.499 39.166 l 25
 383 504 l 1049
EndSplineSet
Fore
SplineSet
28 213 m 2
 25 213 23 216 23 221 c 0
 23 234 28 251 38 264 c 1
 205 264 l 1
 238 435 l 2
 240 448 283 451 287 451 c 0
 295 451 297 447 296 443 c 2
 261 264 l 1
 429 264 l 2
 431 264 432 261 432 256 c 0
 432 243 430 225 419 213 c 1
 253 213 l 1
 218 39 l 2
 216 29 191 23 175 23 c 0
 165 23 160 27 161 31 c 2
 197 213 l 1
 28 213 l 2
EndSplineSet
Validated: 1
EndChar

StartChar: comma
Encoding: 44 44 12
Width: 214
Flags: W
HStem: -123 258
VStem: 9 119<26.6182 112.658> 44 84<-24.5 111.882>
LayerCount: 2
Back
SplineSet
195 116 m 0
 200 10 146 -95 27 -162 c 1024
EndSplineSet
Fore
SplineSet
-30 -103 m 1xc0
 -22 -98 44 -49 44 0 c 0xa0
 44 29 9 29 9 68 c 0
 9 107 50 135 93 135 c 0
 105 135 120 129 125 123 c 1
 127 118 128 112 128 101 c 0
 128 69 118 25 99 -10 c 0
 67 -67 36 -91 -14 -123 c 1
 -22 -121 -30 -113 -30 -103 c 1xc0
EndSplineSet
Validated: 1
EndChar

StartChar: hyphen
Encoding: 45 45 13
Width: 365
Flags: W
VStem: 48 257<206.461 266.565>
LayerCount: 2
Back
Fore
SplineSet
72 267 m 2
 299 279 l 2
 304 279 305 272 305 267 c 0
 305 254 289 205 279 204 c 10
 53 193 l 2
 50 193 48 200 48 208 c 0
 48 219 61 266 72 267 c 2
EndSplineSet
Validated: 1
EndChar

StartChar: period
Encoding: 46 46 14
Width: 217
Flags: W
HStem: -11 138<32.557 106>
VStem: 7 126<15.7561 102.617>
LayerCount: 2
Back
Fore
SplineSet
7 60 m 0
 14 97 48 127 83 127 c 27
 117 127 140 97 133 60 c 0
 126 23 93 -11 58 -11 c 27
 22 -11 0 23 7 60 c 0
EndSplineSet
Validated: 33
EndChar

StartChar: slash
Encoding: 47 47 15
Width: 404
VWidth: 0
Flags: W
LayerCount: 2
Back
Fore
SplineSet
466 755 m 1
 42 -12 l 2
 39 -17 11 -34 -12 -34 c 0
 -16 -34 -23 -30 -24 -28 c 9
 401 739 l 2
 406 747 436 761 454 761 c 0
 460 761 464 758 466 755 c 1
EndSplineSet
Validated: 1
EndChar

StartChar: zero
Encoding: 48 48 16
Width: 481
Flags: W
HStem: -5 38<227.881 283.332> 604 38<321.064 377.128>
LayerCount: 2
Back
Fore
SplineSet
208.131835938 152 m 0
 208.131835938 93 220.131835938 33 252.131835938 33 c 0
 313.131835938 33 397.131835938 239 397.131835938 462 c 0
 397.131835938 494 396.131835938 604 353.131835938 604 c 0
 290.131835938 604 208.131835938 398 208.131835938 152 c 0
84.1318359375 295 m 0
 122.131835938 488 256.131835938 642 364.131835938 642 c 0
 494.131835938 642 552.131835938 503 519.131835938 334 c 0
 486.131835938 165 359.131835938 -5 235.131835938 -5 c 0
 122.131835938 -5 51.1318359375 126 84.1318359375 295 c 0
EndSplineSet
Validated: 33
Substitution2: "'pnum' Proportional Numbers lookup 12-1" zero.prop
Substitution2: "'onum' Oldstyle Figures lookup 3-1" zero.onum
EndChar

StartChar: one
Encoding: 49 49 17
Width: 481
Flags: W
HStem: -3 29<121.84 183.811 331.755 383.693> 622 20G<406.131 436.131>
VStem: 120.631 321
LayerCount: 2
Back
Fore
SplineSet
205.630859375 479 m 1
 198.630859375 483 195.630859375 495 195.630859375 502 c 0
 195.630859375 504 196.630859375 507 199.630859375 510 c 1
 301.630859375 565 380.630859375 609 431.630859375 642 c 9
 433.630859375 642 l 2
 438.630859375 642 443.630859375 619 441.630859375 606 c 1
 441.630859375 606 413.630859375 550 392.630859375 439 c 2
 336.630859375 135 l 2
 330.630859375 102 325.630859375 73 326.630859375 46 c 0
 327.630859375 35 377.630859375 26 384.630859375 26 c 0
 387.630859375 26 385.630859375 15 384.630859375 8 c 0
 383.630859375 3 382.630859375 -1 381.630859375 -3 c 1
 344.630859375 -1 260.630859375 2 223.630859375 2 c 0
 186.630859375 2 158.630859375 -1 120.630859375 -3 c 1
 116.630859375 2 121.630859375 26 126.630859375 26 c 0
 137.630859375 26 185.630859375 35 190.630859375 46 c 0
 199.630859375 66 203.630859375 84 206.630859375 103 c 2
 267.630859375 415 l 2
 279.630859375 475 285.630859375 506 266.630859375 506 c 0
 259.630859375 506 223.630859375 488 205.630859375 479 c 1
EndSplineSet
Validated: 33
Substitution2: "'pnum' Proportional Numbers lookup 12-1" one.prop
Substitution2: "'onum' Oldstyle Figures lookup 3-1" one.onum
EndChar

StartChar: two
Encoding: 50 50 18
Width: 481
Flags: W
HStem: 0 110<183.938 402.959> 557 85<276.628 393.438>
VStem: 366.938 142<402.658 532.171>
LayerCount: 2
Back
Fore
SplineSet
508.9375 490 m 0
 508.9375 404 449.9375 338 372.9375 270 c 0
 281.9375 190 181.9375 110 183.9375 110 c 9
 355.9375 110 l 2
 408.9375 110 428.9375 144 440.9375 176 c 0
 442.9375 181 447.9375 185 455.9375 185 c 0
 462.9375 185 468.9375 181 472.9375 178 c 1
 451.9375 128 401.9375 18 393.9375 0 c 9
 393.9375 0 60.9375 0 53.9375 0 c 1
 49.9375 0 45.9375 10 46.9375 22 c 1
 101.9375 72 215.9375 191 271.9375 260 c 0
 333.9375 336 366.9375 406 366.9375 468 c 0
 366.9375 520 337.9375 557 283.9375 557 c 0
 225.9375 557 179.9375 502 172.9375 493 c 1
 163.9375 493 154.9375 505 153.9375 513 c 1
 164.9375 538 259.9375 642 356.9375 642 c 0
 429.9375 642 508.9375 587 508.9375 490 c 0
EndSplineSet
Validated: 33
Substitution2: "'pnum' Proportional Numbers lookup 12-1" two.prop
Substitution2: "'onum' Oldstyle Figures lookup 3-1" two.onum
EndChar

StartChar: three
Encoding: 51 51 19
Width: 481
Flags: W
HStem: -5 38<190.369 281.874> 315 32<207.797 254.088> 563 79<274.976 379.246>
VStem: 58.7461 111<50.5783 113.444> 346.746 131<144.812 294.683> 366.746 114<444.921 538.359>
LayerCount: 2
Back
Fore
SplineSet
355.74609375 642 m 0xf4
 402.74609375 642 480.74609375 615 480.74609375 515 c 0xf4
 480.74609375 429 395.74609375 383 357.74609375 372 c 1
 413.74609375 365 477.74609375 311 477.74609375 237 c 0
 477.74609375 83 315.74609375 -5 202.74609375 -5 c 0
 135.74609375 -5 90.74609375 13 67.74609375 29 c 1
 63.74609375 34 58.74609375 48 58.74609375 59 c 0
 58.74609375 113 95.74609375 126 117.74609375 126 c 0
 153.74609375 126 160.74609375 97 169.74609375 78 c 0
 181.74609375 54 207.74609375 33 232.74609375 33 c 0
 289.74609375 33 346.74609375 103 346.74609375 216 c 0xf8
 346.74609375 283 322.74609375 321 254.74609375 321 c 0
 240.74609375 321 223.74609375 318 211.74609375 315 c 1
 208.74609375 320 207.74609375 328 207.74609375 333 c 0
 207.74609375 337 209.74609375 344 211.74609375 347 c 1
 276.74609375 355 366.74609375 398 366.74609375 474 c 0
 366.74609375 534 331.74609375 563 289.74609375 563 c 0
 233.74609375 563 183.74609375 498 174.74609375 490 c 1
 166.74609375 490 154.74609375 504 154.74609375 513 c 1
 183.74609375 563 275.74609375 642 355.74609375 642 c 0xf4
EndSplineSet
Validated: 1
Substitution2: "'pnum' Proportional Numbers lookup 12-1" three.prop
Substitution2: "'onum' Oldstyle Figures lookup 3-1" three.onum
EndChar

StartChar: four
Encoding: 52 52 20
Width: 481
Flags: W
HStem: -5 21G<322.647 351.647> 175 67<147.647 312.647 451.647 506.714> 622 20G<499.147 507.147>
LayerCount: 2
Back
Fore
SplineSet
502.647460938 642 m 0
 511.647460938 642 525.647460938 624 523.647460938 616 c 2
 451.647460938 242 l 25
 504.647460938 242 l 18
 510.647460938 242 512.647460938 234 512.647460938 226 c 0
 512.647460938 208 502.647460938 184 495.647460938 175 c 1
 437.647460938 175 l 25
 404.647460938 2 l 1
 404.647460938 2 369.647460938 -5 333.647460938 -5 c 0
 311.647460938 -5 278.647460938 -2 279.647460938 5 c 2
 312.647460938 175 l 25
 57.6474609375 175 l 1
 51.6474609375 179 48.6474609375 192 49.6474609375 198 c 1
 474.647460938 626 l 2
 484.647460938 636 495.647460938 642 502.647460938 642 c 0
367.647460938 465 m 25
 147.647460938 242 l 25
 324.647460938 242 l 25
 367.647460938 465 l 25
EndSplineSet
Validated: 33
Substitution2: "'pnum' Proportional Numbers lookup 12-1" four.prop
Substitution2: "'onum' Oldstyle Figures lookup 3-1" four.onum
EndChar

StartChar: five
Encoding: 53 53 21
Width: 481
Flags: W
HStem: -5 38<192.782 284.103> 331 85<219.164 312.902> 530 105<240.373 438.985>
VStem: 61.1592 111<50.5783 113.444> 349.159 128<153.553 295.326>
LayerCount: 2
Back
Fore
SplineSet
477.159179688 247 m 0
 477.159179688 93 318.159179688 -5 205.159179688 -5 c 0
 138.159179688 -5 93.1591796875 13 70.1591796875 29 c 1
 66.1591796875 34 61.1591796875 48 61.1591796875 59 c 0
 61.1591796875 113 98.1591796875 126 120.159179688 126 c 0
 156.159179688 126 163.159179688 97 172.159179688 78 c 0
 184.159179688 54 210.159179688 33 235.159179688 33 c 0
 292.159179688 33 349.159179688 103 349.159179688 216 c 0
 349.159179688 290 312.159179688 331 243.159179688 331 c 3
 223.159179688 331 187.159179688 325 168.159179688 319 c 1
 165.159179688 321 160.159179688 328 156.159179688 333 c 1
 190.159179688 468 216.159179688 591 225.159179688 635 c 1
 316.159179688 635 428.159179688 635 478.159179688 646 c 1
 484.159179688 642 488.159179688 634 488.159179688 631 c 1
 488.159179688 612 451.159179688 554 441.159179688 540 c 1
 396.159179688 530 262.159179688 530 245.159179688 530 c 1
 242.159179688 518 226.159179688 438 216.159179688 392 c 1
 244.159179688 410 298.159179688 416 309.159179688 416 c 0
 386.159179688 416 477.159179688 358 477.159179688 247 c 0
EndSplineSet
Validated: 1
Substitution2: "'pnum' Proportional Numbers lookup 12-1" five.prop
Substitution2: "'onum' Oldstyle Figures lookup 3-1" five.onum
EndChar

StartChar: six
Encoding: 54 54 22
Width: 481
VWidth: 0
Flags: W
HStem: -6 35<226.986 288.261> 322 52<291.894 389.578> 618 24<497.916 519.753>
VStem: 77.4893 130<88.2117 285.473> 353.489 131<131.284 310.01>
LayerCount: 2
Back
Fore
SplineSet
362.489257812 374 m 0
 439.489257812 374 484.489257812 316 484.489257812 228 c 0
 484.489257812 98 373.489257812 -6 246.489257812 -6 c 0
 166.489257812 -6 77.4892578125 64 77.4892578125 178 c 0
 77.4892578125 270 116.489257812 372 204.489257812 467 c 0
 271.489257812 540 387.489257812 624 515.489257812 642 c 1
 521.489257812 638 521.489257812 624 520.489257812 618 c 1
 397.489257812 566 316.489257812 490 263.489257812 376 c 0
 222.489257812 287 207.489257812 202 207.489257812 133 c 0
 207.489257812 64 228.489257812 29 254.489257812 29 c 0
 310.489257812 29 353.489257812 151 353.489257812 228 c 0
 353.489257812 277 342.489257812 322 301.489257812 322 c 0
 292.489257812 322 284.489257812 322 278.489257812 319 c 1
 275.489257812 321 273.489257812 326 273.489257812 334 c 3
 273.489257812 346 325.489257812 374 362.489257812 374 c 0
EndSplineSet
Validated: 1
Substitution2: "'pnum' Proportional Numbers lookup 12-1" six.prop
Substitution2: "'onum' Oldstyle Figures lookup 3-1" six.onum
EndChar

StartChar: seven
Encoding: 55 55 23
Width: 481
Flags: W
HStem: -10 21G<146.493 150.993> 526 110<200.806 460.993>
LayerCount: 2
Back
Fore
SplineSet
111.993164062 13 m 1
 162.993164062 73 338.993164062 334 460.993164062 526 c 1
 245.993164062 526 l 2
 199.993164062 526 174.993164062 480 155.993164062 442 c 0
 153.993164062 439 152.993164062 437 143.993164062 436 c 0
 134.993164062 435 125.993164062 440 122.993164062 444 c 1
 144.993164062 493 196.993164062 605 209.993164062 636 c 1
 224.993164062 636 477.993164062 637 477.993164062 637 c 2
 510.993164062 637 555.993164062 641 561.993164062 641 c 0
 567.993164062 641 566.993164062 631 565.993164062 626 c 0
 563.993164062 617 549.993164062 598 528.993164062 565 c 2
 163.993164062 -8 l 1
 159.993164062 -10 151.993164062 -10 149.993164062 -10 c 0
 142.993164062 -10 107.993164062 -6 111.993164062 13 c 1
EndSplineSet
Validated: 33
Substitution2: "'pnum' Proportional Numbers lookup 12-1" seven.prop
Substitution2: "'onum' Oldstyle Figures lookup 3-1" seven.onum
EndChar

StartChar: eight
Encoding: 56 56 24
Width: 481
Flags: W
HStem: -6 37<219.949 303.639> 608 34<313.454 380.413>
LayerCount: 2
Back
Fore
SplineSet
359.5703125 642 m 0
 441.5703125 642 534.5703125 608 512.5703125 493 c 0
 498.5703125 420 436.5703125 379 378.5703125 355 c 0
 374.5703125 353 375.5703125 351 377.5703125 349 c 0
 437.5703125 297 485.5703125 231 471.5703125 162 c 0
 447.5703125 45 335.5703125 -6 238.5703125 -6 c 0
 136.5703125 -6 54.5703125 71 73.5703125 168 c 0
 90.5703125 256 168.5703125 288 220.5703125 311 c 0
 223.5703125 312 224.5703125 316 222.5703125 317 c 0
 188.5703125 347 148.5703125 411 162.5703125 485 c 0
 179.5703125 570 258.5703125 642 359.5703125 642 c 0
350.5703125 608 m 0
 314.5703125 608 281.5703125 566 281.5703125 508 c 0
 281.5703125 451 309.5703125 413 343.5703125 383 c 0
 345.5703125 382 346.5703125 381 347.5703125 381 c 0
 348.5703125 381 350.5703125 381 352.5703125 384 c 0
 378.5703125 420 398.5703125 465 398.5703125 519 c 0
 398.5703125 554 391.5703125 608 350.5703125 608 c 0
257.5703125 31 m 0
 302.5703125 31 335.5703125 75 342.5703125 120 c 0
 356.5703125 208 266.5703125 276 257.5703125 284 c 0
 255.5703125 285 255.5703125 285 253.5703125 285 c 0
 252.5703125 285 251.5703125 284 250.5703125 283 c 0
 230.5703125 250 214.5703125 212 205.5703125 151 c 0
 194.5703125 74 216.5703125 31 257.5703125 31 c 0
EndSplineSet
Validated: 33
Substitution2: "'pnum' Proportional Numbers lookup 12-1" eight.prop
Substitution2: "'onum' Oldstyle Figures lookup 3-1" eight.onum
EndChar

StartChar: nine
Encoding: 57 57 25
Width: 481
VWidth: 0
Flags: W
HStem: -6 24<84.8731 106.71> 262 52<215.048 312.732> 607 35<316.365 377.64>
VStem: 120.137 131<325.99 504.716> 397.137 130<350.527 547.788>
LayerCount: 2
Back
Fore
SplineSet
242.13671875 262 m 0
 165.13671875 262 120.13671875 320 120.13671875 408 c 0
 120.13671875 538 231.13671875 642 358.13671875 642 c 0
 438.13671875 642 527.13671875 572 527.13671875 458 c 0
 527.13671875 366 488.13671875 264 400.13671875 169 c 0
 333.13671875 96 217.13671875 12 89.13671875 -6 c 1
 83.13671875 -2 83.13671875 12 84.13671875 18 c 1
 207.13671875 70 288.13671875 146 341.13671875 260 c 0
 382.13671875 349 397.13671875 434 397.13671875 503 c 0
 397.13671875 572 376.13671875 607 350.13671875 607 c 0
 294.13671875 607 251.13671875 485 251.13671875 408 c 0
 251.13671875 359 262.13671875 314 303.13671875 314 c 0
 312.13671875 314 320.13671875 314 326.13671875 317 c 1
 329.13671875 315 331.13671875 310 331.13671875 302 c 3
 331.13671875 290 279.13671875 262 242.13671875 262 c 0
EndSplineSet
Validated: 1
Substitution2: "'pnum' Proportional Numbers lookup 12-1" nine.prop
Substitution2: "'onum' Oldstyle Figures lookup 3-1" nine.onum
EndChar

StartChar: colon
Encoding: 58 58 26
Width: 242
Flags: W
HStem: -11 138<43.557 117> 305 138<104.557 178>
VStem: 18 187
LayerCount: 2
Back
Fore
SplineSet
79 376 m 0
 86 413 120 443 155 443 c 27
 189 443 212 413 205 376 c 0
 198 339 165 305 130 305 c 27
 94 305 72 339 79 376 c 0
18 60 m 0
 25 97 59 127 94 127 c 27
 128 127 151 97 144 60 c 0
 137 23 104 -11 69 -11 c 27
 33 -11 11 23 18 60 c 0
EndSplineSet
Validated: 33
EndChar

StartChar: semicolon
Encoding: 59 59 27
Width: 238
Flags: W
HStem: 305 138<101.557 175>
VStem: 21 119<26.6182 112.658> 56 84<-24.5 111.882> 76 126<331.756 418.617>
LayerCount: 2
Back
Fore
SplineSet
-18 -103 m 1xc0
 -10 -98 56 -49 56 0 c 0xa0
 56 29 21 29 21 68 c 0
 21 107 62 135 105 135 c 0
 117 135 132 129 137 123 c 1
 139 118 140 112 140 101 c 0
 140 69 130 25 111 -10 c 0
 79 -67 48 -91 -2 -123 c 1
 -10 -121 -18 -113 -18 -103 c 1xc0
202 376 m 0x90
 195 339 162 305 127 305 c 27
 91 305 69 339 76 376 c 0
 83 413 117 443 152 443 c 27
 186 443 209 413 202 376 c 0x90
EndSplineSet
Validated: 33
EndChar

StartChar: less
Encoding: 60 60 28
Width: 465
Flags: W
LayerCount: 2
Back
Fore
SplineSet
104 209 m 1
 370 51 l 1
 370 51 372 50 371 45 c 0
 370 38 351 -15 345 -15 c 0
 344 -15 343 -14 341 -13 c 2
 29 177 l 2
 17 185 17 200 20 217 c 0
 22 228 31 236 41 241 c 2
 425 428 l 2
 427 429 429 430 430 430 c 0
 433 430 434 423 434 386 c 0
 434 373 430 364 430 364 c 1
 104 209 l 1
EndSplineSet
Validated: 33
EndChar

StartChar: equal
Encoding: 61 61 29
Width: 542
Flags: W
HStem: 164 51<53.5193 456.797> 304 51<80.5193 483.797>
LayerCount: 2
Back
Fore
SplineSet
55 164 m 2
 52 164 50 167 50 172 c 0
 50 185 55 202 65 215 c 1
 456 215 l 2
 458 215 459 212 459 207 c 0
 459 194 457 176 446 164 c 1
 55 164 l 2
82 304 m 2
 79 304 77 307 77 312 c 0
 77 325 82 342 92 355 c 1
 483 355 l 2
 485 355 486 352 486 347 c 0
 486 334 484 316 473 304 c 1
 82 304 l 2
EndSplineSet
Validated: 1
EndChar

StartChar: greater
Encoding: 62 62 30
Width: 467
Flags: W
LayerCount: 2
Back
Fore
SplineSet
341 209 m 1
 75 364 l 1
 75 364 72 367 74 373 c 0
 88 410 98 430 101 430 c 0
 102 430 103 429 105 428 c 2
 416 241 l 2
 424 236 430 228 428 217 c 0
 425 200 419 185 403 177 c 2
 18 -13 l 2
 16 -14 14 -15 13 -15 c 0
 7 -15 8 38 9 45 c 0
 10 50 13 51 13 51 c 1
 341 209 l 1
EndSplineSet
Validated: 33
EndChar

StartChar: question
Encoding: 63 63 31
Width: 375
Flags: W
HStem: -11 138<65.557 139> 573 73<188.5 291.012>
VStem: 40 126<15.7561 102.617> 78 92<252.115 335.271> 300 73<484.876 568.113>
LayerCount: 2
Back
Fore
SplineSet
40 60 m 0xe8
 47 97 81 127 116 127 c 27
 150 127 173 97 166 60 c 0
 159 23 126 -11 91 -11 c 27
 55 -11 33 23 40 60 c 0xe8
204 215 m 1
 204 209 196 198 191 195 c 1
 167 195 78 246 78 302 c 3
 78 368 133 394 159 412 c 0
 186 431 236 449 269 477 c 0
 289 494 300 509 300 534 c 3
 300 558 288 573 263 573 c 0
 233 573 202 522 172 522 c 0
 126 522 114 571 129 609 c 1
 141 624 165 646 212 646 c 0
 295 646 373 574 373 500 c 0
 373 445 360 404 285 357 c 0
 269 347 236 333 209 315 c 0
 187 301 170 284 170 267 c 3xd8
 170 238 196 220 204 215 c 1
EndSplineSet
Validated: 33
EndChar

StartChar: at
Encoding: 64 64 32
Width: 778
Flags: W
HStem: -17 78<449.5 549.073> -7 88<231 352> 394 55<390.816 498> 540 42<372.064 570.576>
VStem: 30 52<19.9591 256.798> 173 126<86.0352 221.784> 688 57<193.413 422.987>
LayerCount: 2
Back
SplineSet
16.835 228 m 0
 58.0439 440 259.477 612 465.478 612 c 0
 671.478 612 806.044 440 764.835 228 c 0
 723.626 16 522.193 -156 316.193 -156 c 0
 110.193 -156 -24.374 16 16.835 228 c 0
67.6406 227 m 0
 103.345 410.68 277.156 560.76 455.696 560.76 c 0
 634.236 560.76 749.704 410.68 714 227 c 0
 678.296 43.3193 504.483 -106.761 325.943 -106.761 c 0
 147.403 -106.761 31.9365 43.3193 67.6406 227 c 0
EndSplineSet
Fore
SplineSet
525 132 m 2x7e
 515 84 519 61 548 61 c 3
 593 61 688 162 688 300 c 0
 688 439 624 540 465 540 c 3
 326 540 82 382 82 142 c 0
 82 61 102 -12 172 -76 c 0
 186 -89 207 -100 215 -104 c 1
 209 -109 194 -114 181 -114 c 0
 174 -114 142 -106 121 -88 c 0
 63 -38 30 31 30 131 c 0
 30 383 275 582 483 582 c 3
 668 582 745 447 745 314 c 0
 745 93 547 -17 474 -17 c 0xbe
 425 -17 399 9 399 58 c 0
 399 62 400 70 401 77 c 0
 402 85 404 92 405 96 c 1
 384 59 319 -7 259 -7 c 0
 203 -7 173 47 173 115 c 0
 173 294 353 449 480 449 c 0
 516 449 567 438 587 431 c 1
 587 431 525 132 525 132 c 2x7e
424 394 m 0
 356 394 299 270 299 152 c 0
 299 104 313 81 335 81 c 0x7e
 369 81 419 182 439 281 c 2
 439 281 459 382 459 382 c 1
 452 390 438 394 424 394 c 0
EndSplineSet
Validated: 33
EndChar

StartChar: A
Encoding: 65 65 33
Width: 620
Flags: W
HStem: -4 37<-58.5157 -2.04391 89.4486 143.56 316.358 378.203 533.633 581.23> 225 48<197 353.999> 642 20G<391 400>
LayerCount: 2
Back
Fore
SplineSet
61 134 m 2
 355 624 l 2
 363 637 386 662 396 662 c 0
 404 662 413 658 414 655 c 1
 507 148 l 2
 513 117 515 97 519 76 c 0
 527 35 577 33 584 33 c 1
 587 24 582 0 578 -4 c 1
 541 -2 496 4 455 4 c 0
 412 4 347 -2 313 -4 c 1
 309 1 316 33 321 33 c 1
 337 33 364 39 379 51 c 0
 386 56 390 61 391 68 c 0
 393 77 364 220 364 220 c 1
 364 220 362 224 359 224 c 0
 324 226 293 225 270 225 c 0
 232 225 206 225 173 224 c 0
 170 224 166 221 165 219 c 1
 165 219 131 163 115 135 c 0
 101 110 83 74 82 67 c 0
 77 41 140 33 147 33 c 1
 151 26 144 0 140 -4 c 1
 108 0 82 4 41 4 c 0
 -2 4 -28 0 -61 -4 c 1
 -64 0 -62 21 -56 32 c 1
 -45 32 3 48 15 64 c 0
 36 92 44 106 61 134 c 2
315 476 m 1
 197 280 l 1
 197 280 197 276 199 276 c 0
 217 274 254 273 275 273 c 0
 304 273 321 273 350 275 c 0
 352 275 354 280 354 280 c 1
 315 476 l 1
EndSplineSet
Validated: 33
EndChar

StartChar: B
Encoding: 66 66 34
Width: 589
Flags: W
HStem: -3 42<-2.36724 65.9043 207.25 322.986> 332 39<262 360.366> 620 40<117.448 170.931 312.338 403.74>
LayerCount: 2
Back
Fore
SplineSet
262 371 m 1
 310 371 l 2
 356 371 397 412 412 487 c 0
 430 582 408 620 361 620 c 0
 340 620 319 619 312 608 c 0
 305 596 302 576 296 547 c 2
 262 371 l 1
254 332 m 1
 211 109 l 2
 210 103 202 63 207 51 c 0
 212 40 239 39 263 39 c 0
 306 39 368 73 388 176 c 0
 403 251 390 332 302 332 c 2
 254 332 l 1
396 660 m 0
 482 660 576 618 553 502 c 0
 537 422 453 376 426 366 c 0
 418 363 419 360 420 360 c 0
 465 354 557 296 537 192 c 0
 524 126 473 67 408 30 c 0
 346 -5 277 -4 208 -3 c 0
 169 -3 28 -2 -8 -3 c 1
 -11 3 -7 27 -1 34 c 1
 11 35 55 38 62 51 c 0
 73 71 79 102 87 145 c 2
 159 513 l 2
 167 556 174 587 170 607 c 0
 168 620 125 622 113 623 c 1
 110 630 116 654 121 660 c 1
 162 657 214 657 253 657 c 0
 292 657 342 660 396 660 c 0
EndSplineSet
Validated: 33
EndChar

StartChar: C
Encoding: 67 67 35
Width: 646
Flags: W
HStem: -7 44<290.36 452.302> 624 43<359.26 523.328>
VStem: 52 144<163.523 404.486> 591 34<480.548 544.905>
LayerCount: 2
Back
Fore
SplineSet
443 624 m 0
 312 624 196 478 196 268 c 0
 196 176 234 37 365 37 c 0
 412 37 455 55 485 80 c 0
 531 118 571 196 574 204 c 1
 588 204 599 199 605 192 c 1
 603 181 551 48 537 40 c 0
 481 9 423 -7 337 -7 c 0
 142 -7 52 142 52 276 c 0
 52 526 266 667 443 667 c 0
 504 667 585 650 638 638 c 1
 638 627 627 506 625 494 c 0
 624 488 614 480 603 480 c 3
 598 480 594 480 591 484 c 1
 589 523 561 624 443 624 c 0
EndSplineSet
Validated: 1
EndChar

StartChar: D
Encoding: 68 68 36
Width: 720
Flags: W
HStem: -3 42<-2.36724 65.9043 209.837 370.096> 620 40<117.448 170.931 312.338 444.533>
LayerCount: 2
Back
Fore
SplineSet
296 547 m 2
 217 141 l 2
 216 135 205 82 209 62 c 0
 212 48 239 39 263 39 c 0
 415 39 500 119 538 314 c 0
 576 510 499 620 361 620 c 0
 340 620 319 619 312 608 c 0
 305 596 302 576 296 547 c 2
396 660 m 0
 611 660 726 522 686 317 c 0
 641 83 461 -3 260 -3 c 0
 221 -3 28 -2 -8 -3 c 1
 -11 3 -7 27 -1 34 c 1
 11 35 55 38 62 51 c 0
 73 71 79 102 87 145 c 2
 159 513 l 2
 167 556 174 587 170 607 c 0
 168 620 125 622 113 623 c 1
 110 630 116 654 121 660 c 1
 162 657 214 657 253 657 c 0
 292 657 341 659 396 660 c 0
EndSplineSet
Validated: 33
EndChar

StartChar: E
Encoding: 69 69 37
Width: 572
Flags: W
HStem: -3 37<-4.59805 62.512> -2 44<208.668 404.762> 310 47<260.968 385.521> 620 37<119.098 170.741 312.338 486.305>
VStem: 407 29<234.175 275.196> 444 29<399.002 434.894> 519 36<511.277 581.026>
LayerCount: 2
Back
SplineSet
106.96 2 m 0x76
 48.96 2 33.96 -2 -12.04 -4 c 17
 -13.04 -3 -14.04 0 -14.04 5 c 0
 -14.04 17 -8.04004 30 -6.04004 30 c 0
 4.95996 30 45.96 42 52.96 55 c 0
 63.96 74 70.96 106 77.96 143 c 2
 150.96 521 l 2
 153.96 539 161.96 576 160.96 599 c 1
 158.96 611 120.96 628 109.96 628 c 0
 108.96 628 107.96 631 107.96 635 c 0
 107.96 644 109.96 657 114.96 662 c 1xae
 114.96 662 194.96 659 245.96 659 c 24
 362.96 660 445.96 664 546.96 664 c 1
 544.96 634 544.96 603 544.96 573 c 0
 544.96 553 544.96 534 544.96 516 c 1
 541.96 513 529.96 511 522.96 511 c 0
 515.96 511 511.96 513 510.96 518 c 0
 496.96 568 447.96 610 398.96 610 c 2
 363.96 610 l 2
 325.96 610 304.96 609 300.96 597 c 0
 293.96 578 284.96 542 280.96 519 c 2
 250.96 365 l 2
 249.96 360 269.96 359 289.96 359 c 2
 368.96 359 l 2
 398.96 359 400.96 362 426.96 421 c 0
 428.96 426 435.96 428 442.96 428 c 0
 449.96 428 459.96 426 461.96 423 c 1
 425.96 234 l 1
 423.96 232 411.96 230 404.96 230 c 0
 397.96 230 392.96 233 391.96 238 c 0
 390.96 267 389.96 283 380.96 292 c 0
 370.96 302 349.96 304 305.96 304 c 0
 279.96 304 238.96 304 236.96 295 c 2
 207.96 141 l 2
 204.96 126 199.96 101 199.96 82 c 0
 199.96 60 201.96 54 260.96 54 c 2
 284.96 54 l 2
 319.96 54 364.96 65 394.96 80 c 0
 414.96 90 453.96 125 478.96 170 c 0
 480.96 174 485.96 176 492.96 176 c 0
 501.96 176 517.96 173 519.96 170 c 1
 491.96 116 450.96 42 435.96 -2 c 1
 334.96 -2 191.96 2 106.96 2 c 0x76
EndSplineSet
Fore
SplineSet
253 657 m 0xbe
 292 657 502 663 557 664 c 1
 554 614 555 561 555 516 c 1
 552 513 539 511 532 511 c 0
 525 511 520 514 519 519 c 0
 510 574 495 620 438 620 c 2
 438 620 361 620 361 620 c 0
 340 620 319 619 312 608 c 0
 305 596 302 576 296 547 c 2
 296 547 261 368 261 368 c 2
 260 362 279 357 299 357 c 2
 299 357 348 357 348 357 c 2
 403 357 418 369 444 427 c 0
 446 432 449 435 456 435 c 0
 463 435 471 433 473 430 c 1
 473 430 436 238 436 238 c 1
 434 236 425 234 418 234 c 0
 411 234 407 237 407 242 c 0
 405 290 394 299 386 303 c 0
 376 308 352 310 317 310 c 0
 291 310 249 308 247 296 c 2
 247 296 217 141 217 141 c 2
 216 135 205 82 209 62 c 0
 212 48 241 42 265 42 c 0
 265 42 327 42 327 42 c 2
 362 42 394 52 420 75 c 0
 444 96 463 125 488 170 c 0
 490 174 496 176 503 176 c 0
 512 176 527 173 529 170 c 1
 501 116 461 42 446 -2 c 1
 420 -2 246 -2 120 -2 c 0x7e
 56 -2 4 -3 -8 -3 c 1
 -11 3 -7 27 -1 34 c 1
 11 35 55 38 62 51 c 0
 73 71 79 102 87 145 c 2
 87 145 159 513 159 513 c 2
 167 556 174 587 170 607 c 0
 168 620 125 622 113 623 c 1
 110 630 116 654 121 660 c 1
 162 657 214 657 253 657 c 0xbe
EndSplineSet
Validated: 33
EndChar

StartChar: F
Encoding: 70 70 38
Width: 525
Flags: W
HStem: -4 37<-4.72067 61.9979 207.001 267.413> 306 47<259.968 384.521> 620 37<119.098 170.741 312.338 486.305>
VStem: 406 29<230.175 271.196> 443 29<395.002 430.894> 519 36<511.277 581.026>
LayerCount: 2
Back
SplineSet
117.96 3 m 0xec
 59.96 3 38.96 -1 -12.04 -4 c 17
 -13.04 -3 -14.04 0 -14.04 5 c 0
 -14.04 17 -8.04004 30 -6.04004 30 c 0
 4.95996 30 45.96 42 52.96 55 c 0
 63.96 74 70.96 106 77.96 143 c 2
 150.96 521 l 2
 153.96 539 161.96 576 160.96 599 c 1
 158.96 611 120.96 628 109.96 628 c 0
 108.96 628 107.96 631 107.96 635 c 0
 107.96 644 109.96 657 114.96 662 c 1xdc
 114.96 662 194.96 659 245.96 659 c 24
 362.96 660 444.96 664 545.96 664 c 1
 543.96 634 543.96 603 543.96 573 c 0
 543.96 553 543.96 534 543.96 516 c 1
 540.96 513 528.96 511 521.96 511 c 0
 514.96 511 510.96 513 509.96 518 c 0
 495.96 568 446.96 610 397.96 610 c 2
 362.96 610 l 2
 324.96 610 303.96 609 299.96 597 c 0
 292.96 578 283.96 542 279.96 519 c 2
 249.96 365 l 2
 248.96 360 268.96 359 288.96 359 c 2
 367.96 359 l 2
 397.96 359 399.96 362 425.96 421 c 0
 427.96 426 434.96 428 441.96 428 c 0
 448.96 428 458.96 426 460.96 423 c 1
 424.96 234 l 1
 422.96 232 410.96 230 403.96 230 c 0
 396.96 230 391.96 233 390.96 238 c 0
 389.96 267 388.96 283 379.96 292 c 0
 369.96 302 348.96 304 304.96 304 c 0
 278.96 304 237.96 304 235.96 295 c 2
 206.96 141 l 2
 199.96 106 197.96 88 197.96 74 c 0
 197.96 31 273.96 30 280.96 30 c 0
 283.96 30 282.96 20 281.96 14 c 0
 280.96 9 278.96 -1 276.96 -4 c 1
 239.96 -2 159.96 3 117.96 3 c 0xec
EndSplineSet
Fore
SplineSet
253 657 m 0
 292 657 502 663 557 664 c 1
 554 614 555 561 555 516 c 1
 552 513 539 511 532 511 c 0
 525 511 520 514 519 519 c 0
 510 574 495 620 438 620 c 2
 361 620 l 0
 340 620 319 619 312 608 c 0
 305 596 302 576 296 547 c 2
 260 364 l 2
 259 358 278 353 298 353 c 2
 347 353 l 2
 402 353 417 365 443 423 c 0
 445 428 448 431 455 431 c 0
 462 431 470 429 472 426 c 1
 435 234 l 1
 433 232 424 230 417 230 c 0
 410 230 406 233 406 238 c 0
 404 286 393 295 385 299 c 0
 375 304 351 306 316 306 c 0
 290 306 248 304 246 292 c 2
 218 145 l 2
 210 102 203 71 207 51 c 0
 209 38 259 34 271 33 c 1
 274 26 269 2 264 -4 c 1
 229 0 163 3 124 3 c 0
 85 3 28 0 -9 -4 c 1
 -12 2 -7 26 -1 33 c 1
 11 34 55 38 62 51 c 0
 73 71 79 102 87 145 c 2
 159 513 l 2
 167 556 174 587 170 607 c 0
 168 620 125 622 113 623 c 1
 110 630 116 654 121 660 c 1
 162 657 214 657 253 657 c 0
EndSplineSet
Validated: 33
EndChar

StartChar: G
Encoding: 71 71 39
Width: 678
Flags: W
HStem: -7 44<290.36 424.676> 274 37<403.178 457.658 608.574 658.751> 624 43<359.26 523.11>
VStem: 52 144<163.523 404.486> 461 105<101.752 214.497> 591 34<480.548 544.905>
LayerCount: 2
Back
Fore
SplineSet
443 667 m 0
 504 667 585 650 638 638 c 1
 638 627 627 506 625 494 c 0
 624 488 614 480 603 480 c 3
 598 480 594 480 591 484 c 1
 589 523 560 624 443 624 c 0
 312 624 196 478 196 268 c 0
 196 176 234 37 365 37 c 0
 399 37 415 45 422 50 c 0
 426 53 430 58 432 67 c 0
 435 82 447 148 456 196 c 0
 460 216 462 225 461 247 c 0
 459 272 411 274 400 274 c 0
 395 274 401 306 407 311 c 1
 454 309 506 305 553 305 c 0
 592 305 625 309 663 311 c 1
 664 298 658 274 655 274 c 1
 648 274 620 268 608 261 c 0
 602 257 593 237 589 218 c 0
 582 181 573 132 566 98 c 0
 564 89 567 74 566 69 c 0
 564 58 542 42 529 36 c 0
 476 10 423 -7 337 -7 c 0
 142 -7 52 142 52 276 c 0
 52 526 266 667 443 667 c 0
EndSplineSet
Validated: 33
EndChar

StartChar: H
Encoding: 72 72 40
Width: 707
Flags: W
HStem: -4 37<-4.72067 61.9979 207.001 259.413 349.402 415.998 561.001 613.413> 317 51<263 473> 625 37<117.587 169.999 315.002 381.598 471.587 523.999 669.002 735.598>
LayerCount: 2
Back
SplineSet
364.96 369 m 0
 408.96 369 475.96 369 476.96 375 c 2
 504.96 523 l 2
 507.96 541 513.96 574 513.96 600 c 0
 513.96 626 476.96 628 465.96 628 c 0
 464.96 628 463.96 630 463.96 634 c 0
 463.96 643 467.96 658 471.96 662 c 1
 513.96 660 560.96 656 603.96 656 c 0
 644.96 656 686.96 660 724.96 662 c 1
 724.96 660 724.96 658 724.96 656 c 3
 724.96 634 717.96 628 715.96 628 c 0
 708.96 628 664.96 615 658.96 604 c 0
 645.96 580 641.96 555 634.96 519 c 2
 560.96 139 l 2
 554.96 108 549.96 92 549.96 59 c 3
 549.96 43 591.96 30 598.96 30 c 0
 599.96 30 600.96 28 600.96 25 c 0
 600.96 17 596.96 2 592.96 -4 c 1
 555.96 -2 510.96 3 469.96 3 c 0
 426.96 3 383.96 -2 340.96 -4 c 1
 339.96 -3 339.96 -1 339.96 2 c 0
 339.96 12 342.96 30 344.96 30 c 0
 355.96 30 396.96 40 404.96 53 c 0
 414.96 70 424.96 117 428.96 135 c 2
 462.96 304 l 2
 462.96 305 l 3
 462.96 311 395.96 311 352.96 311 c 0
 305.96 311 240.96 311 238.96 303 c 2
 206.96 139 l 2
 200.96 108 196.96 92 196.96 59 c 3
 196.96 43 237.96 30 244.96 30 c 0
 245.96 30 246.96 28 246.96 25 c 0
 246.96 17 243.96 2 239.96 -4 c 1
 202.96 -2 153.96 3 112.96 3 c 0
 69.96 3 29.96 -2 -13.04 -4 c 1
 -14.04 -3 -14.04 -1 -14.04 2 c 0
 -14.04 12 -10.04 30 -8.04004 30 c 0
 2.95996 30 42.96 39 50.96 52 c 0
 60.96 69 72.96 117 75.96 135 c 2
 150.96 523 l 2
 153.96 539 159.96 579 159.96 596 c 0
 159.96 620 118.96 628 111.96 628 c 0
 110.96 628 110.96 629 110.96 632 c 0
 110.96 641 113.96 659 116.96 662 c 1
 158.96 660 195.96 656 238.96 656 c 0
 279.96 656 332.96 660 370.96 662 c 1
 370.96 661 370.96 659 370.96 657 c 3
 370.96 647 366.96 628 362.96 628 c 0
 355.96 628 309.96 615 303.96 604 c 0
 294.96 588 280.96 525 279.96 519 c 2
 252.96 378 l 2
 252.96 377 252.96 377 252.96 376 c 3
 252.96 371 262.96 369 364.96 369 c 0
EndSplineSet
Fore
SplineSet
253 655 m 0
 292 655 348 658 385 662 c 1
 388 656 384 632 378 625 c 1
 366 624 322 620 315 607 c 0
 304 587 297 556 289 513 c 2
 262 371 l 1
 262 369 263 368 263 368 c 1
 299 367 333 365 375 365 c 0
 409 365 450 367 484 368 c 1
 484 368 487 370 487 372 c 0
 513 513 l 2
 521 556 528 587 524 607 c 0
 522 620 480 624 468 625 c 1
 465 632 470 656 475 662 c 1
 510 658 568 655 607 655 c 0
 646 655 702 658 739 662 c 1
 742 656 738 632 732 625 c 1
 720 624 676 620 669 607 c 0
 658 587 651 556 643 513 c 2
 572 145 l 2
 564 102 557 71 561 51 c 0
 563 38 605 34 617 33 c 1
 620 26 615 2 610 -4 c 1
 575 0 517 3 478 3 c 0
 439 3 383 0 346 -4 c 1
 343 2 347 26 353 33 c 1
 365 34 409 38 416 51 c 0
 427 71 434 102 442 145 c 2
 474 310 l 0
 474 312 473 315 473 315 c 1
 439 316 403 317 365 317 c 0
 262 317 254 315 251 313 c 1
 250 312 249 309 249 309 c 1
 218 145 l 2
 210 102 203 71 207 51 c 0
 209 38 251 34 263 33 c 1
 266 26 261 2 256 -4 c 1
 221 0 163 3 124 3 c 0
 85 3 28 0 -9 -4 c 1
 -12 2 -7 26 -1 33 c 1
 11 34 55 38 62 51 c 0
 73 71 79 102 87 145 c 2
 159 513 l 2
 167 556 174 587 170 607 c 0
 168 620 126 624 114 625 c 1
 111 632 116 656 121 662 c 1
 156 658 214 655 253 655 c 0
EndSplineSet
Validated: 33
EndChar

StartChar: I
Encoding: 73 73 41
Width: 353
Flags: W
HStem: -4 37<-4.72067 61.9979 207.001 259.413> 625 37<117.587 169.999 315.002 381.598>
LayerCount: 2
Back
Fore
SplineSet
253 655 m 0
 292 655 348 658 385 662 c 1
 388 656 384 632 378 625 c 1
 366 624 322 620 315 607 c 0
 304 587 297 556 289 513 c 2
 218 145 l 2
 210 102 203 71 207 51 c 0
 209 38 251 34 263 33 c 1
 266 26 261 2 256 -4 c 1
 221 0 163 3 124 3 c 0
 85 3 28 0 -9 -4 c 1
 -12 2 -7 26 -1 33 c 1
 11 34 55 38 62 51 c 0
 73 71 79 102 87 145 c 2
 159 513 l 2
 167 556 174 587 170 607 c 0
 168 620 126 624 114 625 c 1
 111 632 116 656 121 662 c 1
 156 658 214 655 253 655 c 0
EndSplineSet
Validated: 33
EndChar

StartChar: J
Encoding: 74 74 42
Width: 336
Flags: W
HStem: -218 24<-107.309 -88.766> 625 37<111.587 163.999 309.002 375.598>
LayerCount: 2
Back
Fore
SplineSet
247 655 m 0
 286 655 342 658 379 662 c 1
 382 656 378 632 372 625 c 1
 360 624 316 620 309 607 c 0
 298 587 291 556 283 513 c 2
 211 143 l 2
 167 -85 -39 -200 -98 -218 c 1
 -103 -215 -109 -205 -109 -200 c 0
 -109 -197 -108 -195 -107 -194 c 1
 -4 -138 48 -31 80 135 c 2
 153 513 l 2
 161 556 168 587 164 607 c 0
 162 620 120 624 108 625 c 1
 105 632 110 656 115 662 c 1
 150 658 208 655 247 655 c 0
EndSplineSet
Validated: 33
EndChar

StartChar: K
Encoding: 75 75 43
Width: 688
Flags: W
HStem: -4 37<-4.72067 61.2049 207.001 258.76 602.208 656.09> 625 37<117.587 169.999 315.002 381.598 488.048 533.952 642.445 722.052>
LayerCount: 2
Back
Fore
SplineSet
521 141 m 0
 598 26 653 29 660 29 c 1
 663 22 656 0 655 -2 c 1
 628 -4 628 -6 590 -6 c 0
 491 -6 449 20 401 92 c 0
 378 126 304 244 267 302 c 0
 265 305 260 306 258 306 c 0
 254 306 251 304 248 300 c 1
 218 145 l 2
 210 102 203 71 207 51 c 0
 209 38 251 34 263 33 c 1
 266 26 261 2 256 -4 c 1
 221 0 163 3 124 3 c 0
 85 3 28 0 -9 -4 c 1
 -12 2 -7 26 -1 33 c 1
 11 34 55 38 62 51 c 0
 73 71 79 102 87 145 c 2
 159 513 l 2
 167 556 174 587 170 607 c 0
 168 620 126 624 114 625 c 1
 111 632 116 656 121 662 c 1
 156 658 214 655 253 655 c 0
 292 655 348 658 385 662 c 1
 388 656 384 632 378 625 c 1
 366 624 322 620 315 607 c 0
 304 587 297 556 289 513 c 2
 255 337 l 1
 303 372 342 403 369 428 c 0
 437 489 468 514 518 570 c 0
 530 583 533 596 534 603 c 0
 538 624 499 626 486 626 c 1
 483 634 486 653 491 662 c 1
 525 660 577 655 611 655 c 0
 652 655 692 658 727 662 c 1
 728 655 725 633 719 627 c 1
 710 626 644 619 605 583 c 2
 605 583 465 455 380 376 c 0
 373 369 372 365 375 360 c 0
 429 274 468 220 521 141 c 0
EndSplineSet
Validated: 33
EndChar

StartChar: L
Encoding: 76 76 44
Width: 547
Flags: W
HStem: -3 37<-4.59805 62.512> -2 44<208.668 404.762> 625 37<117.587 169.999 315.002 381.598>
LayerCount: 2
Back
SplineSet
206.96 139 m 2x60
 203.96 121 199.96 101 199.96 82 c 0
 199.96 61 201.96 54 260.96 54 c 2
 284.96 54 l 2xa0
 319.96 54 364.96 65 394.96 80 c 0
 414.96 90 453.96 125 478.96 170 c 0
 480.96 174 485.96 176 492.96 176 c 0
 501.96 176 517.96 173 519.96 170 c 1
 491.96 116 450.96 42 435.96 -2 c 1
 334.96 -2 203.96 2 118.96 2 c 0
 65.96 2 -12.04 -4 -12.04 -4 c 1
 -13.04 -2 -14.04 2 -14.04 5 c 0
 -14.04 17 -9.04004 30 -7.04004 30 c 0
 3.95996 30 48.96 45 54.96 56 c 0
 65.96 79 72.96 118 75.96 135 c 2
 150.96 523 l 2
 153.96 539 159.96 579 159.96 596 c 0
 159.96 620 118.96 628 111.96 628 c 0
 110.96 628 110.96 629 110.96 632 c 0
 110.96 641 113.96 659 116.96 662 c 1
 158.96 660 195.96 656 238.96 656 c 0
 279.96 656 332.96 660 370.96 662 c 1
 370.96 661 370.96 659 370.96 657 c 3
 370.96 647 366.96 628 362.96 628 c 0
 355.96 628 309.96 615 303.96 604 c 0
 294.96 588 280.96 525 279.96 519 c 2
 206.96 139 l 2x60
EndSplineSet
Fore
SplineSet
217 141 m 2xa0
 216 135 205 82 209 62 c 0
 212 48 241 42 265 42 c 0
 265 42 327 42 327 42 c 2
 362 42 394 52 420 75 c 0
 444 96 463 125 488 170 c 0
 490 174 496 176 503 176 c 0
 512 176 527 173 529 170 c 1
 501 116 461 42 446 -2 c 1
 420 -2 249 -2 124 -2 c 0x60
 58 -2 5 -3 -8 -3 c 1
 -11 3 -7 27 -1 34 c 1
 11 35 55 38 62 51 c 0
 73 71 79 102 87 145 c 2
 87 145 159 513 159 513 c 2
 167 556 174 587 170 607 c 0
 168 620 126 624 114 625 c 1
 111 632 116 656 121 662 c 1
 156 658 214 655 253 655 c 0
 292 655 348 658 385 662 c 1
 388 656 384 632 378 625 c 1
 366 624 322 620 315 607 c 0
 304 587 297 556 289 513 c 2
 289 513 217 141 217 141 c 2xa0
EndSplineSet
Validated: 33
EndChar

StartChar: M
Encoding: 77 77 45
Width: 859
Flags: W
HStem: -4 37<-23.3856 46.1055 147.264 206.676 503.514 571.539 724.028 775.667> 625 37<139.096 188.347 819.532 872.939>
LayerCount: 2
Back
Fore
SplineSet
242 656 m 0
 274 656 302 660 340 662 c 1
 355 598 397 408 434 238 c 1
 434 238 436 236 437 236 c 0
 438 236 442 241 442 242 c 2
 442 242 548 426 611 546 c 24
 634 589 663 658 663 658 c 1
 671 657 745 655 763 655 c 0
 795 655 835 660 873 662 c 1
 876 658 876 632 870 624 c 1
 863 624 830 620 819 613 c 0
 808 606 802 599 798 572 c 0
 787 502 749 280 730 152 c 0
 724 113 719 77 723 51 c 0
 726 37 771 33 778 33 c 1
 780 24 778 6 773 -4 c 1
 736 -2 689 4 648 4 c 0
 605 4 543 -2 500 -4 c 1
 497 0 502 25 506 33 c 1
 517 33 563 38 574 52 c 0
 580 60 587 77 589 87 c 0
 591 97 596 130 599 148 c 2
 658 497 l 2
 659 500 664 523 657 523 c 0
 655 523 654 521 651 516 c 2
 394 40 l 2
 389 31 363 -2 346 -2 c 0
 343 -2 341 -1 338 0 c 1
 232 523 l 1
 185 315 181 291 145 134 c 0
 140 112 135 72 135 65 c 0
 136 44 203 33 210 33 c 1
 211 26 209 6 204 -4 c 1
 167 -2 132 4 91 4 c 0
 48 4 16 -2 -27 -4 c 1
 -29 3 -26 22 -21 32 c 1
 -10 32 50 42 65 68 c 0
 71 78 89 140 93 156 c 0
 121 273 181 534 192 581 c 0
 193 588 194 596 191 603 c 0
 186 614 151 625 135 625 c 1
 131 633 140 660 142 662 c 1
 184 660 199 656 242 656 c 0
EndSplineSet
Validated: 33
EndChar

StartChar: N
Encoding: 78 78 46
Width: 715
Flags: W
HStem: -4 37<-12.9259 59.9346 153.197 215.766> 4 29<-14.0089 53.5625> 625 38<113.65 166.608 535.955 601.154 683.441 763.979> 625 30<540.958 599.252 687.887 766.432>
LayerCount: 2
Back
Fore
SplineSet
221 655 m 0x90
 254 655 293 658 324 662 c 1
 344 584 457 401 542 248 c 1
 545 255 549 275 552 289 c 2
 552 289 588 476 588 476 c 0
 595 514 607 589 603 604 c 0
 599 622 543 626 532 626 c 1
 530 626 533 654 539 663 c 1x20
 581 661 608 655 651 655 c 0x10
 692 655 732 661 770 663 c 1
 771 657 768 635 760 625 c 1
 753 625 691 623 679 602 c 0
 672 588 652 515 645 479 c 2
 645 479 579 139 579 139 c 2
 568 81 564 51 556 -1 c 1
 553 -4 535 -5 532 -5 c 0
 524 -5 515 5 508 18 c 2
 508 18 226 519 226 519 c 1
 226 519 156 157 156 157 c 2
 149 121 145 74 147 60 c 0
 150 41 212 34 219 34 c 1
 223 24 216 2 213 -4 c 1xa0
 176 -2 138 4 97 4 c 0x40
 54 4 25 -2 -18 -4 c 1
 -21 5 -12 33 -10 33 c 1
 1 33 58 41 69 59 c 0
 78 74 93 122 100 160 c 0
 125 291 144 383 169 514 c 0
 179 568 177 585 169 604 c 0
 163 617 123 625 112 625 c 0
 107 625 111 657 117 662 c 1
 145 660 178 655 221 655 c 0x90
EndSplineSet
Validated: 33
EndChar

StartChar: O
Encoding: 79 79 47
Width: 705
Flags: W
HStem: -10 43<260.896 393.749> 624 43<333.848 462.469>
VStem: 49 144<149.833 390.06> 535 144<259.072 501.723>
LayerCount: 2
Back
Fore
SplineSet
402 624 m 3
 264 624 193 409 193 244 c 0
 193 129 231 33 326 33 c 3
 461 33 535 245 535 410 c 0
 535 525 492 624 402 624 c 3
424 667 m 0
 588 667 679 522 679 393 c 0
 679 137 461 -10 295 -10 c 0
 155 -10 49 115 49 261 c 0
 49 510 259 667 424 667 c 0
EndSplineSet
Validated: 1
EndChar

StartChar: P
Encoding: 80 80 48
Width: 557
Flags: W
HStem: -4 37<-4.72067 61.9979 207.001 259.413> 286 41<285.293 362.776> 620 40<117.448 170.931 312.338 402.412>
LayerCount: 2
Back
Fore
SplineSet
573 465 m 0
 550 345 428 286 334 286 c 0
 307 286 294 296 287 301 c 0
 283 304 277 319 277 324 c 0
 277 328 280 331 282 331 c 1
 291 328 298 327 312 327 c 0
 358 327 419 385 432 451 c 0
 449 540 423 620 361 620 c 0
 340 620 319 619 312 608 c 0
 305 596 302 576 296 547 c 2
 218 145 l 2
 210 102 203 71 207 51 c 0
 209 38 251 34 263 33 c 1
 266 26 261 2 256 -4 c 1
 221 0 163 3 124 3 c 0
 85 3 28 0 -9 -4 c 1
 -12 2 -7 26 -1 33 c 1
 11 34 55 38 62 51 c 0
 73 71 79 102 87 145 c 2
 159 513 l 2
 167 556 174 587 170 607 c 0
 168 620 125 622 113 623 c 1
 110 630 116 654 121 660 c 1
 162 657 214 657 253 657 c 0
 292 657 342 660 397 660 c 0
 513 660 594 572 573 465 c 0
EndSplineSet
Validated: 33
EndChar

StartChar: Q
Encoding: 81 81 49
Width: 706
Flags: W
HStem: -140 67<515.481 616.042> 624 43<334.848 463.469>
VStem: 50 144<149.415 390.06> 536 144<257.372 501.723>
LayerCount: 2
Back
Fore
SplineSet
425 667 m 0
 589 667 680 522 680 393 c 0
 680 179 535 56 406 10 c 1
 486 -36 527 -73 623 -73 c 0
 646 -73 667 -68 674 -66 c 1
 681 -66 689 -70 693 -76 c 1
 681 -86 592 -140 535 -140 c 0
 429 -140 355 -58 234 -8 c 0
 118 40 50 141 50 261 c 0
 50 510 260 667 425 667 c 0
403 624 m 0
 265 624 194 409 194 244 c 0
 194 129 232 33 327 33 c 0
 462 33 536 245 536 410 c 0
 536 525 493 624 403 624 c 0
EndSplineSet
Validated: 1
EndChar

StartChar: R
Encoding: 82 82 50
Width: 645
Flags: W
HStem: -4 37<-4.72067 61.2049 207.001 257.859 572.922 634.813> 299 39<255 274.995> 620 40<117.448 170.931 312.338 407.222>
LayerCount: 2
Back
Fore
SplineSet
253 657 m 0
 292 657 342 660 397 660 c 0
 513 660 585 582 561 458 c 0
 544 371 435 325 396 316 c 1
 445 218 450 200 495 130 c 0
 550 44 621 28 636 28 c 1
 639 21 635 -2 634 -4 c 1
 607 -6 613 -8 575 -8 c 0
 422 -8 387 65 370 99 c 0
 275 284 l 0
 275 284 268 299 261 299 c 0
 248 299 l 9
 218 145 l 2
 210 102 203 71 207 51 c 0
 209 38 251 34 263 33 c 1
 266 26 261 2 256 -4 c 1
 221 0 163 3 124 3 c 0
 85 3 28 0 -9 -4 c 1
 -12 2 -7 26 -1 33 c 1
 11 34 55 38 62 51 c 0
 73 71 79 102 87 145 c 2
 159 513 l 2
 167 556 174 587 170 607 c 0
 168 620 125 622 113 623 c 1
 110 630 116 654 121 660 c 1
 162 657 214 657 253 657 c 0
255 338 m 17
 298 338 l 0
 351 338 400 372 421 448 c 0
 441 520 437 620 361 620 c 0
 340 620 319 619 312 608 c 0
 305 596 302 576 296 547 c 2
 255 338 l 17
EndSplineSet
Validated: 33
EndChar

StartChar: S
Encoding: 83 83 51
Width: 494
Flags: W
HStem: -10 42<135.295 257.499> 628 42<269.974 378.207>
VStem: 33 40<107.755 197.152> 423 38<470.012 570.597>
LayerCount: 2
Back
SplineSet
305.16 670 m 0xf8
 360.16 670 396.16 653 456.16 642 c 1
 456.16 642 431.16 465 427.16 465 c 0
 423.16 465 418.16 465 413.16 465 c 0
 401.16 465 391.16 466 391.16 482 c 0xf4
 391.16 520 367.16 614 295.16 614 c 0
 221.16 614 201.16 537 201.16 511 c 0
 201.16 457 260.16 416 309.16 377 c 0
 355.16 340 411.16 316 411.16 228 c 0
 411.16 67 268.16 -10 167.16 -10 c 0
 112.16 -10 55.1602 2 2.16016 16 c 1
 2.16016 16 7.16016 59 7.16016 104 c 3
 7.16016 131 6.16016 176 6.16016 182 c 0
 6.16016 192 26.1602 190 30.1602 190 c 0
 34.1602 190 51.1602 186 54.1602 182 c 1
 54.1602 128 93.1602 47 160.16 47 c 0
 259.16 47 274.16 154 274.16 169 c 0
 274.16 223 207.16 263 170.16 295 c 0
 120.16 337 68.1602 373 68.1602 450 c 0
 68.1602 583 207.16 670 305.16 670 c 0xf8
EndSplineSet
Fore
SplineSet
332 670 m 0
 387 670 429 655 483 642 c 1
 477 589 470 537 461 476 c 1
 457 472 453 470 449 470 c 0
 446 470 423 469 423 477 c 0
 426 533 400 628 328 628 c 0
 292 628 245 608 232 541 c 0
 220 479 287 422 336 381 c 0
 389 337 456 294 433 175 c 0
 412 65 296 -10 194 -10 c 0
 139 -10 75 2 22 16 c 1
 21 60 29 158 33 186 c 1
 38 192 58 200 63 200 c 0
 70 200 73 198 73 192 c 0
 71 138 109 32 193 32 c 0
 240 32 288 58 302 129 c 0
 316 200 236 258 196 292 c 0
 138 341 79 385 99 489 c 0
 119 592 236 670 332 670 c 0
EndSplineSet
Validated: 33
EndChar

StartChar: T
Encoding: 84 84 52
Width: 596
Flags: W
HStem: -4 37<116.402 182.998 328.001 380.413> 613 44<161.131 300 430 560.637>
VStem: 592 36<483.215 572.16>
LayerCount: 2
Back
Fore
SplineSet
364 657 m 0
 528 657 l 0
 595 657 611 676 628 676 c 0
 635 676 636 675 639 673 c 1
 628 489 l 1
 625 486 608 482 600 482 c 0
 595 482 592 483 592 487 c 0
 595 552 564 613 517 613 c 2
 430 613 l 1
 339 145 l 2
 331 102 324 71 328 51 c 0
 330 38 372 34 384 33 c 1
 387 26 382 2 377 -4 c 1
 342 0 285 3 246 3 c 0
 207 3 150 0 113 -4 c 1
 110 2 114 26 120 33 c 1
 132 34 176 38 183 51 c 0
 194 71 201 102 209 145 c 2
 300 613 l 1
 213 613 l 2
 166 613 111 552 89 487 c 0
 87 483 84 482 79 482 c 0
 71 482 56 486 54 489 c 1
 114 673 l 1
 118 675 119 676 126 676 c 0
 143 676 152 657 219 657 c 0
 364 657 l 0
EndSplineSet
Validated: 33
EndChar

StartChar: U
Encoding: 85 85 53
Width: 692
Flags: W
HStem: -9 72<268.809 398.424> 625 37<98.5874 150.999 296.002 362.598 528.587 587.18 679.268 753.598>
LayerCount: 2
Back
Fore
SplineSet
234 655 m 0
 273 655 329 658 366 662 c 1
 369 656 365 632 359 625 c 1
 347 624 303 620 296 607 c 0
 285 587 278 556 270 513 c 2
 235 330 l 2
 222 262 214 212 225 159 c 0
 243 71 312 63 348 63 c 0
 422 63 512 134 546 309 c 2
 579 479 l 2
 587 522 594 581 590 601 c 0
 586 620 537 624 525 625 c 1
 522 632 527 656 532 662 c 1
 575 658 604 655 647 655 c 0
 688 655 718 660 757 662 c 1
 760 656 756 632 750 625 c 1
 738 624 686 622 674 601 c 0
 663 581 645 523 637 480 c 2
 599 286 l 2
 559 82 421 -9 287 -9 c 0
 209 -9 141 19 108 79 c 0
 81 128 79 197 99 301 c 2
 140 513 l 2
 148 556 155 587 151 607 c 0
 149 620 107 624 95 625 c 1
 92 632 97 656 102 662 c 1
 137 658 195 655 234 655 c 0
EndSplineSet
Validated: 33
EndChar

StartChar: V
Encoding: 86 86 54
Width: 627
Flags: W
HStem: -11 21G<242 251.5> 625 37<62.4483 106.115 264.279 325.721 499.448 563.346 642.004 713.598>
LayerCount: 2
Back
Fore
SplineSet
197 655 m 0
 236 655 293 658 330 662 c 1
 333 656 328 632 322 625 c 1
 310 624 265 623 260 598 c 0
 257 582 262 551 268 523 c 0
 296 390 341 186 341 186 c 1
 341 186 514 493 529 521 c 0
 542 547 561 580 565 601 c 0
 568 619 507 624 495 625 c 1
 492 632 498 656 503 662 c 1
 546 658 569 655 612 655 c 0
 653 655 678 660 717 662 c 1
 720 656 716 632 710 625 c 1
 698 624 656 623 642 607 c 0
 624 587 606 557 587 524 c 0
 472 323 407 215 299 30 c 0
 288 12 257 -11 246 -11 c 0
 238 -11 239 -4 236 3 c 1
 132 510 l 2
 126 539 119 572 115 592 c 0
 109 618 70 624 58 625 c 1
 55 632 61 656 66 662 c 1
 101 658 158 655 197 655 c 0
EndSplineSet
Validated: 33
EndChar

StartChar: W
Encoding: 87 87 55
Width: 877
Flags: W
HStem: -11 21G<213 222.5 535 544.5> 625 37<63.4612 111.347 272.586 327.598 744.448 806.432 887.004 958.721>
LayerCount: 2
Back
Fore
SplineSet
199 655 m 0
 238 655 294 658 331 662 c 1
 334 656 330 632 324 625 c 1
 312 624 264 620 264 586 c 0
 264 581 266 552 270 523 c 0
 287 401 308 251 308 251 c 1
 308 251 469 560 504 625 c 0
 514 644 530 662 540 662 c 0
 544 662 546 657 548 646 c 0
 577 478 623 214 623 214 c 1
 623 214 758 489 774 521 c 0
 786 547 804 580 808 601 c 0
 811 619 752 624 740 625 c 1
 737 632 743 656 748 662 c 1
 791 658 814 655 857 655 c 0
 898 655 924 660 963 662 c 1
 966 656 961 632 955 625 c 1
 943 624 901 623 887 607 c 0
 869 587 849 559 832 524 c 0
 738 335 681 225 586 40 c 0
 573 15 550 -11 539 -11 c 0
 531 -11 527 -4 524 3 c 1
 451 418 l 1
 451 418 334 188 260 44 c 0
 254 33 228 -11 217 -11 c 0
 209 -11 205 -4 202 3 c 1
 133 510 l 2
 130 540 128 549 122 590 c 0
 118 616 72 624 60 625 c 1
 56 632 62 656 67 662 c 1
 102 658 160 655 199 655 c 0
EndSplineSet
Validated: 33
EndChar

StartChar: X
Encoding: 88 88 56
Width: 659
Flags: W
HStem: -4 37<-53.5981 23.4213 123.047 187.483 317.146 373.618 556.204 612.486> 625 37<91.1776 148.464 313.112 369.296 484.3 539.464 648.186 719.27>
LayerCount: 2
Back
SplineSet
283.24 656 m 0
 329.24 656 380.24 660 418.24 662 c 1
 418.483 660.542 417.992 657.607 417.992 654 c 3
 417.992 642.764 413.025 625 409.24 625 c 0
 396.24 625 360.24 619 356.24 604 c 0
 355.24 598 356.24 588 359.24 582 c 2
 430.24 414 l 1
 489.24 478 584.24 571 588.24 594 c 0
 591.24 611 557.24 625 525.24 625 c 0
 523.301 625 523.745 629.814 523.745 636 c 3
 523.745 645.762 528.567 658.939 532.24 662 c 1
 566.24 660 612.24 656 646.24 656 c 0
 694.24 656 733.24 660 771.24 662 c 1
 771.68 660.679 771.618 658.146 771.618 655 c 3
 771.618 643.854 767.139 625 763.24 625 c 0
 756.24 625 703.24 618 672.24 586 c 2
 454.24 356 l 1
 508.24 229 566.24 93 576.24 76 c 0
 596.24 41 640.24 33 647.24 33 c 0
 650.24 33 646.24 18 645.24 11 c 0
 644.24 6 640.24 -2 639.24 -4 c 1
 602.24 -2 543.24 2 505.24 2 c 0
 453.24 2 409.24 -2 357.24 -4 c 1
 356.142 -2.62793 356.348 0.779297 356.348 5 c 3
 356.348 16.1562 362.612 33 366.24 33 c 0
 376.24 33 420.24 43 423.24 61 c 0
 424.24 64 424.24 69 423.24 72 c 2
 340.24 269 l 1
 319.24 245 173.24 83 170.24 66 c 0
 166.24 44 205.24 33 233.24 33 c 0
 236.24 33 234.24 19 233.24 12 c 0
 232.24 5 229.24 -2 228.24 -4 c 1
 198.24 -2 141.24 2 107.24 2 c 0
 59.2402 2 25.2402 -2 -12.7598 -4 c 1
 -12.7598 -1 -14.7598 5 -13.7598 10 c 0
 -12.7598 16 -8.75977 33 -5.75977 33 c 0
 1.24023 33 62.2402 44 82.2402 67 c 2
 313.24 332 l 1
 228.24 537 l 2
 217.24 563 203.24 600 192.24 610 c 0
 181.24 620 157.24 625 146.24 625 c 0
 144.197 625 144.87 630.341 144.87 637 c 3
 144.87 646.64 149.691 659.043 153.24 662 c 1
 198.24 660 237.24 656 283.24 656 c 0
EndSplineSet
Fore
SplineSet
239 656 m 0
 285 656 336 660 374 662 c 1
 375 656 370 625 365 625 c 1
 352 625 316 619 312 604 c 0
 311 598 312 588 315 582 c 2
 386 414 l 1
 438 471 520 551 540 584 c 0
 543 588 544 591 544 594 c 0
 547 611 514 625 482 625 c 1
 477 625 482 657 488 662 c 1
 520 658 576 655 610 655 c 0
 658 655 695 658 723 662 c 1
 725 656 720 625 715 625 c 1
 708 625 651 623 601 572 c 2
 402 369 l 1
 455 242 521 93 532 76 c 0
 552 41 603 33 616 33 c 1
 618 24 615 4 609 -4 c 1
 572 -2 499 2 461 2 c 0
 409 2 365 -2 313 -4 c 1
 309 1 317 33 322 33 c 0
 332 33 377 43 380 61 c 0
 381 64 380 69 379 72 c 2
 294 273 l 1
 276 253 164 130 129 83 c 0
 123 75 119 69 118 66 c 0
 113 42 161 33 189 33 c 1
 192 26 190 7 185 -4 c 1
 155 -2 97 2 63 2 c 0
 15 2 -19 -2 -57 -4 c 1
 -60 2 -56 26 -50 33 c 1
 -43 33 22 35 60 79 c 2
 273 322 l 1
 185 537 l 2
 174 564 160 600 149 610 c 0
 138 620 99 625 88 625 c 1
 83 625 89 657 95 662 c 1
 140 660 193 656 239 656 c 0
EndSplineSet
Validated: 33
EndChar

StartChar: Y
Encoding: 89 89 57
Width: 576
Flags: W
HStem: -4 37<98.4019 164.998 310.001 362.413> 625 37<73.5874 116.879 276.279 337.598 452.587 511.604 590.763 661.598>
LayerCount: 2
Back
Fore
SplineSet
191 145 m 2
 218 284 l 0
 219 291 218 296 216 304 c 0
 203 359 145 537 145 537 c 2
 136 565 134 572 127 592 c 0
 118 617 82 624 70 625 c 1
 67 632 72 656 77 662 c 1
 112 658 170 655 209 655 c 0
 248 655 304 658 341 662 c 1
 344 656 340 632 334 625 c 1
 322 624 277 623 272 598 c 0
 271 594 274 589 276 582 c 2
 344 361 l 1
 348 356 448 498 504 578 c 0
 509 586 512 594 513 601 c 0
 516 619 461 624 449 625 c 1
 446 632 451 656 456 662 c 1
 499 658 516 655 559 655 c 0
 600 655 626 660 665 662 c 1
 668 656 664 632 658 625 c 1
 646 624 602 623 584 600 c 0
 560 571 394 357 356 298 c 0
 351 291 348 285 347 279 c 0
 321 145 l 2
 312 102 306 71 310 51 c 0
 312 38 354 34 366 33 c 1
 369 26 364 2 359 -4 c 1
 324 0 266 3 227 3 c 0
 188 3 132 0 95 -4 c 1
 92 2 96 26 102 33 c 1
 114 34 158 38 165 51 c 0
 176 71 182 102 191 145 c 2
EndSplineSet
Validated: 33
EndChar

StartChar: Z
Encoding: 90 90 58
Width: 608
Flags: W
HStem: 1 46<157 436.225> 610 45<213.542 461.113> 642 20G<150 168 590.5 632>
LayerCount: 2
Back
Fore
SplineSet
291 610 m 2xc0
 192 610 163 536 130 474 c 0
 128 471 126 468 117 468 c 0
 107 468 93 470 91 473 c 1
 113 531 139 598 161 662 c 1xa0
 175 658 269 655 282 655 c 2
 282 655 412 656 412 656 c 2
 490 657 551 660 630 666 c 1
 634 665 635 643 633 633 c 1
 630 625 157 47 157 47 c 17
 157 47 358 47 358 47 c 2
 393 47 427 59 453 82 c 0
 477 103 494 125 519 170 c 0
 521 174 526 176 533 176 c 0
 542 176 558 173 560 170 c 1
 535 117 494 44 477 1 c 1
 438 1 -1 0 -1 0 c 1
 -13 0 -25 18 -21 22 c 2
 -21 22 462 610 462 610 c 1
 462 610 291 610 291 610 c 2xc0
EndSplineSet
Validated: 33
EndChar

StartChar: bracketleft
Encoding: 91 91 59
Width: 263
Flags: W
HStem: 707 52<220.093 327.486>
LayerCount: 2
Back
Fore
SplineSet
171 750 m 2
 173 755 176 759 180 759 c 0
 233 759 305 761 343 765 c 1
 346 762 348 759 348 753 c 0
 348 742 338 732 329 728 c 0
 297 714 246 709 227 707 c 0
 223 707 222 705 220 701 c 2
 70 -56 l 2
 69 -60 72 -62 76 -63 c 0
 95 -68 139 -76 169 -95 c 0
 177 -100 185 -108 185 -115 c 0
 185 -124 181 -130 177 -133 c 1
 108 -120 34 -108 10 -107 c 0
 6 -107 2 -102 3 -97 c 2
 171 750 l 2
EndSplineSet
Validated: 1
EndChar

StartChar: backslash
Encoding: 92 92 60
Width: 390
Flags: W
VStem: 123 180
LayerCount: 2
Back
Fore
SplineSet
303 -4 m 2
 306 -20 282 -40 271 -40 c 0
 267 -40 263 -40 259 -37 c 1
 207 269 123 755 123 755 c 1
 125 758 131 762 137 762 c 0
 158 762 177 735 179 725 c 2
 303 -4 l 2
EndSplineSet
Validated: 33
EndChar

StartChar: bracketright
Encoding: 93 93 61
Width: 260
Flags: W
HStem: -133 42<-58.0608 13.7069> 728 37<94.1361 176.25>
VStem: -60 337
LayerCount: 2
Back
Fore
SplineSet
102 765 m 1
 137 762 210 756 267 756 c 0
 275 756 278 749 277 745 c 0
 276 738 112 -97 112 -97 c 2
 111 -98 108 -105 100 -106 c 0
 35 -112 -14 -121 -53 -133 c 1
 -55 -132 -60 -126 -60 -119 c 0
 -60 -107 -43 -96 -33 -91 c 0
 -9 -79 27 -64 54 -56 c 0
 60 -54 62 -52 63 -48 c 2
 210 697 l 2
 211 702 209 705 203 706 c 0
 179 709 134 716 108 728 c 1
 97 734 93 746 93 755 c 0
 93 763 101 765 102 765 c 1
EndSplineSet
Validated: 1
EndChar

StartChar: asciicircum
Encoding: 94 94 62
Width: 323
Flags: W
HStem: 469 221
VStem: 20 283
LayerCount: 2
Back
Fore
SplineSet
20 499 m 1
 28 513 113 567 182 677 c 0
 187 686 187 690 194 690 c 0
 217 690 204 668 244 588 c 0
 260 558 302 505 303 500 c 1
 302 496 292 469 285 469 c 0
 270 469 211 525 177 582 c 1
 125 525 41 469 26 469 c 0
 20 469 20 485 20 499 c 1
EndSplineSet
Validated: 1
EndChar

StartChar: underscore
Encoding: 95 95 63
Width: 474
Flags: W
HStem: -45 62<-28.5793 383>
LayerCount: 2
Back
Fore
SplineSet
-36 -35 m 1
 -36 -35 -27 17 -13 17 c 2
 405 17 l 2
 408 17 407 13 407 9 c 0
 407 3 404 -13 392 -39 c 0
 389 -45 383 -45 383 -45 c 1
 -31 -45 l 1
 -31 -45 -38 -45 -36 -35 c 1
EndSplineSet
Validated: 1
EndChar

StartChar: a
Encoding: 97 97 65
Width: 489
Flags: W
HStem: -8 86<69 190 281.5 384> 394 55<228.816 336>
VStem: 11 126<86.0352 221.784>
LayerCount: 2
Back
Fore
SplineSet
318 449 m 0
 354 449 405 438 425 431 c 1
 363 132 l 2
 362 128 359 104 359 99 c 0
 359 90 363 78 373 78 c 0
 395 78 441 133 444 139 c 1
 451 139 458 118 458 112 c 1
 441 80 353 -8 299 -8 c 0
 264 -8 237 14 237 58 c 0
 237 62 238 70 239 77 c 0
 240 85 242 92 243 96 c 1
 222 59 157 -7 97 -7 c 0
 41 -7 11 47 11 115 c 0
 11 294 191 449 318 449 c 0
262 394 m 0
 194 394 137 270 137 152 c 0
 137 104 151 81 173 81 c 0
 207 81 257 182 277 281 c 2
 297 382 l 1
 290 390 276 394 262 394 c 0
EndSplineSet
Validated: 1
EndChar

StartChar: b
Encoding: 98 98 66
Width: 465
Flags: W
HStem: -6 45<119.5 221.844> 361 88<257.5 374> 632 29<67.8327 125.927> 676 20G<240 253.5>
VStem: 128 129<558.143 680> 308 129<220.023 359.933>
LayerCount: 2
Back
Fore
SplineSet
280 361 m 0
 235 361 175 255 158 167 c 0
 147 111 147 39 183 39 c 0
 247 39 308 206 308 302 c 0
 308 327 304 361 280 361 c 0
190 336 m 1
 218 379 298 449 346 449 c 0
 402 449 437 410 437 337 c 0
 437 149 265 -6 151 -6 c 0
 88 -6 35 38 35 107 c 0
 35 120 38 148 41 162 c 2
 119 560 l 2
 123 578 128 602 128 613 c 0
 128 632 83 632 67 632 c 1
 64 636 67 657 71 661 c 1
 126 666 229 688 251 696 c 1
 256 693 257 683 257 677 c 0
 257 669 249 626 244 602 c 2
 190 336 l 1
EndSplineSet
Validated: 33
EndChar

StartChar: c
Encoding: 99 99 67
Width: 377
Flags: W
HStem: -6 83<105.5 204.587> 399 50<191.531 286>
VStem: 15 126<90.6136 245.809>
LayerCount: 2
Back
Fore
SplineSet
266 449 m 0
 306 449 341 437 354 427 c 1
 360 418 369 400 369 377 c 0
 369 347 343 316 313 316 c 0
 288 316 272 334 262 353 c 0
 253 370 240 399 218 399 c 0
 181 399 141 275 141 170 c 0
 141 102 163 77 203 77 c 0
 248 77 300 137 303 140 c 1
 311 140 316 120 316 114 c 1
 301 91 211 -6 135 -6 c 0
 76 -6 15 37 15 131 c 0
 15 287 146 449 266 449 c 0
EndSplineSet
Validated: 1
EndChar

StartChar: d
Encoding: 100 100 68
Width: 487
Flags: W
HStem: -7 88<68 189 287 383> 394 55<261 310> 632 29<280.833 338.927> 676 20G<453 466.5>
VStem: 10 126<86.0352 222.076> 341 129<557.234 680>
LayerCount: 2
Back
Fore
SplineSet
287 353 m 0
 287 383 278 394 261 394 c 0
 193 394 136 270 136 152 c 0
 136 104 150 81 172 81 c 0
 206 81 264 201 276 281 c 2
 276 281 287 340 287 353 c 0
332 560 m 0
 335 578 341 602 341 613 c 0
 341 632 296 632 280 632 c 1
 277 636 280 657 284 661 c 1
 339 666 442 688 464 696 c 1
 469 693 470 683 470 677 c 0
 470 669 462 626 457 602 c 2
 362 132 l 2
 361 128 358 104 358 99 c 0
 358 90 362 78 372 78 c 0
 394 78 440 133 443 139 c 1
 450 139 457 118 457 112 c 1
 440 80 352 -8 298 -8 c 0
 276 -8 259 0 248 16 c 0
 242 25 236 36 236 58 c 0
 236 66 240 88 242 96 c 1
 221 59 156 -7 96 -7 c 0
 40 -7 10 47 10 115 c 0
 10 282 169 429 293 448 c 0
 299 449 304 449 310 449 c 1
 332 560 l 0
EndSplineSet
Validated: 1
EndChar

StartChar: e
Encoding: 101 101 69
Width: 394
Flags: W
HStem: -6 83<95.5 223.5> 188 38<145 186.561> 412 37<205.991 293.5>
VStem: 16 124<91.9422 188.325> 260 119<301.561 411.54>
LayerCount: 2
Back
Fore
SplineSet
268 449 m 0
 319 449 379 427 379 357 c 0
 379 254 204 188 142 188 c 1
 141 185 140 168 140 163 c 0
 140 126 151 77 201 77 c 0
 246 77 299 139 302 142 c 1
 311 142 317 118 317 112 c 1
 304 90 194 -6 131 -6 c 0
 60 -6 16 47 16 140 c 0
 16 288 153 449 268 449 c 0
145 226 m 1
 184 226 260 299 260 373 c 0
 260 391 256 412 234 412 c 0
 186 412 150 277 145 226 c 1
EndSplineSet
Validated: 1
EndChar

StartChar: f
Encoding: 102 102 70
Width: 318
Flags: W
HStem: -218 46<-75 3.87445> 378 46<51.3211 107 231 334.157> 649 46<282.939 360>
LayerCount: 2
Back
Fore
SplineSet
343 695 m 0
 377 695 406 685 417 677 c 1
 422 669 426 657 426 644 c 0
 426 619 411 595 388 595 c 0
 371 595 357 604 346 619 c 0
 337 632 327 649 309 649 c 0
 278 649 262 583 231 424 c 1
 331 424 l 2
 335 424 336 417 336 412 c 0
 336 402 330 386 325 378 c 1
 222 378 l 1
 222 378 191 184 167 58 c 0
 135 -106 22 -218 -58 -218 c 0
 -92 -218 -121 -208 -132 -200 c 1
 -137 -192 -141 -180 -141 -167 c 0
 -141 -142 -126 -118 -103 -118 c 0
 -86 -118 -72 -127 -61 -142 c 0
 -52 -155 -42 -172 -24 -172 c 0
 15 -172 20 -105 51 54 c 1
 107 378 l 1
 42 378 l 2
 41 378 40 379 40 381 c 0
 40 391 65 424 88 424 c 2
 115 424 l 1
 147 588 276 695 343 695 c 0
EndSplineSet
Validated: 1
EndChar

StartChar: g
Encoding: 103 103 71
Width: 444
VWidth: 0
Flags: W
HStem: -226 48<95.4837 240.61> 394 55<364.776 443.808> 419 39<195.864 263.121>
VStem: -57 116<-144.29 -55.5235> 19 169<46.5 115.5> 41 114<206.832 360.454> 274 104<-135.113 10> 280 112<233.352 385.762>
LayerCount: 2
Back
Fore
SplineSet
274 -113 m 0x92
 274 -72 174 -32 115 -14 c 1
 79 -33 59 -53 59 -84 c 0
 59 -149 112 -178 172 -178 c 0
 211 -178 274 -157 274 -113 c 0x92
235 419 m 0xa5
 186 421 158 344 155 277 c 0
 153 230 162 180 199 178 c 0
 243 176 278 242 280 302 c 0
 282 349 274 417 235 419 c 0xa5
364 394 m 1xc4
 368 388 392 360 392 309 c 0
 392 215 302 159 254 140 c 0
 226 129 188 126 188 105 c 0xc9
 188 75 378 60 378 -40 c 0
 378 -135 267 -226 121 -226 c 0
 11 -226 -57 -174 -57 -110 c 0xd2
 -57 -39 31 -13 79 4 c 1
 79 4 41 21 34 28 c 0
 26 36 19 37 19 56 c 0xc8
 19 81 116 133 164 144 c 1
 102 160 41 198 41 277 c 0
 41 376 125 458 223 458 c 1xa4
 262 458 293 445 318 434 c 0
 327 430 391 447 404 449 c 1
 417 445 455 424 455 412 c 0
 455 405 447 394 439 394 c 0
 425 394 377 394 364 394 c 1xc4
EndSplineSet
Validated: 33
EndChar

StartChar: h
Encoding: 104 104 72
Width: 504
Flags: W
HStem: -8 86<303.5 405> 339 110<270.5 379> 632 29<70.8327 128.927> 676 20G<243 256.5>
VStem: 131 129<584.426 680> 257 123<34.1714 191.883> 301 122<220.031 398.174>
LayerCount: 2
Back
Fore
SplineSet
247 602 m 0xfa
 247 602 192 323 190 314 c 0
 187 302 184 284 182 274 c 1
 212 342 301 449 351 449 c 3
 407 449 423 419 423 362 c 0xfa
 423 328 408 259 403 233 c 2
 403 233 384 132 384 132 c 2
 383 128 380 104 380 99 c 0
 380 90 384 78 394 78 c 0
 416 78 462 133 465 139 c 1
 472 139 479 118 479 112 c 1
 462 80 374 -8 320 -8 c 0
 287 -8 257 12 257 63 c 0xf4
 257 77 264 115 266 123 c 1
 266 123 289 242 289 242 c 2
 292 254 301 308 301 318 c 0
 301 328 296 339 285 339 c 0
 256 339 178 218 150 91 c 10
 150 91 130 0 130 0 c 17
 120 -3 85 -6 74 -6 c 0
 63 -6 27 -3 15 0 c 1
 21 31 121 554 122 560 c 0
 126 579 131 602 131 613 c 0
 131 632 86 632 70 632 c 1
 67 636 70 657 74 661 c 1
 129 666 232 688 254 696 c 1
 259 693 260 683 260 677 c 0
 260 669 250 616 247 602 c 0xfa
EndSplineSet
Validated: 1
EndChar

StartChar: i
Encoding: 105 105 73
Width: 310
VWidth: 0
Flags: W
HStem: -8 86<106.5 208> 363 86<85 186> 540 147<162.393 243.607>
VStem: 60 123<34.1714 189.984> 111 122<251.016 405.986> 135 136<567.686 659.998>
LayerCount: 2
Back
Fore
SplineSet
106 309 m 2xf0
 107 313 111 337 111 342 c 0
 111 351 106 363 96 363 c 0
 74 363 28 308 25 302 c 1
 18 302 11 323 11 329 c 1
 28 361 112 449 166 449 c 0
 206 449 233 424 233 378 c 0xe8
 233 364 226 328 224 318 c 0
 224 318 187 132 187 132 c 2
 186 128 183 104 183 99 c 0
 183 90 187 78 197 78 c 0
 219 78 265 133 268 139 c 1
 275 139 282 118 282 112 c 1
 265 80 177 -8 123 -8 c 0
 90 -8 60 12 60 63 c 0
 60 77 67 115 69 123 c 1
 69 123 106 309 106 309 c 2xf0
213 687 m 0
 247 687 271 660 271 625 c 0
 271 581 235 540 193 540 c 0
 159 540 135 568 135 603 c 0xe4
 135 647 171 687 213 687 c 0
EndSplineSet
Validated: 1
Substitution2: "'ccmp' Turkish i-1" i.TRK
EndChar

StartChar: j
Encoding: 106 106 74
Width: 286
VWidth: 0
Flags: W
HStem: -218 22<-85.0631 -78.3737> 363 86<95 196> 541 148<185.393 266.607>
VStem: 121 122<282.72 405.986> 158 136<568.686 661.314>
LayerCount: 2
Back
Fore
SplineSet
116 309 m 2xf0
 117 313 121 337 121 342 c 0
 121 351 116 363 106 363 c 0
 84 363 38 308 35 302 c 1
 28 302 21 323 21 329 c 1
 38 361 122 449 176 449 c 0
 216 449 243 424 243 378 c 0
 243 364 236 328 234 318 c 0
 234 318 211 195 196 120 c 0
 180 36 150 -20 109 -75 c 0
 66 -132 -51 -210 -79 -218 c 1
 -84 -218 -88 -205 -88 -196 c 1
 17 -115 47 -49 76 100 c 0
 76 100 116 309 116 309 c 2xf0
236 689 m 0
 270 689 294 661 294 626 c 0
 294 582 258 541 216 541 c 0
 182 541 158 569 158 604 c 0xe8
 158 648 194 689 236 689 c 0
EndSplineSet
Validated: 1
EndChar

StartChar: k
Encoding: 107 107 75
Width: 503
VWidth: 0
Flags: W
HStem: -4 86<298.086 397.297> 374 75<295.91 405> 632 29<70.8327 128.927> 676 20G<243 256.5>
VStem: 131 129<553.063 680> 329 129<323.305 400>
LayerCount: 2
Back
SplineSet
360 131.97 m 2
 359.316 128 355.84 104.165 355.84 99.0166 c 0
 355.84 89.748 359.916 78 370.316 78 c 0
 392.156 78 438.316 133 441.316 139 c 1
 448.316 139 455.316 118.179 455.316 112 c 1
 438.316 80 350 -7.57129 295.54 -7.57129 c 1024
EndSplineSet
Fore
SplineSet
376 449 m 3
 434 449 458 423 458 377 c 0
 458 311 361 255 286 230 c 1
 303 182 347 82 390 82 c 0
 414 82 450 127 458 138 c 1
 468 138 472 117 472 112 c 1
 462 85 381 -4 321 -4 c 0
 244 -4 192 137 171 208 c 1
 156 133 130 0 130 0 c 17
 120 -3 85 -6 74 -6 c 0
 63 -6 27 -3 15 0 c 1
 21 31 121 554 122 560 c 0
 126 579 131 602 131 613 c 0
 131 632 86 632 70 632 c 1
 67 636 70 657 74 661 c 1
 129 666 232 688 254 696 c 1
 259 693 260 683 260 677 c 0
 260 669 250 616 247 602 c 2
 198 341 l 17
 210 367 292 449 376 449 c 3
301 374 m 3
 242 374 179 272 179 248 c 1
 241 248 329 288 329 342 c 3
 329 352 324 374 301 374 c 3
EndSplineSet
Validated: 1
EndChar

StartChar: l
Encoding: 108 108 76
Width: 283
Flags: W
HStem: -8 86<77.5 179> 632 29<73.8327 131.927> 676 20G<246 259.5>
VStem: 31 123<34.1714 191.016> 134 129<558.971 680>
LayerCount: 2
Back
Fore
SplineSet
125 560 m 2xf0
 128 578 134 602 134 613 c 0
 134 632 89 632 73 632 c 1
 70 636 73 657 77 661 c 1
 132 666 235 688 257 696 c 1
 262 693 263 683 263 677 c 0xe8
 263 669 255 626 250 602 c 2
 250 602 158 132 158 132 c 2
 157 126 154 104 154 99 c 0
 154 90 158 78 168 78 c 0
 190 78 236 133 239 139 c 1
 246 139 253 118 253 112 c 1
 236 80 148 -8 94 -8 c 0
 61 -8 31 12 31 63 c 0
 31 77 38 115 40 123 c 1
 40 123 125 560 125 560 c 2xf0
EndSplineSet
Validated: 1
EndChar

StartChar: m
Encoding: 109 109 77
Width: 755
Flags: W
HStem: -8 86<554.5 656> 429 20G<139 186 358 411 582.5 633>
VStem: 111 122<245.644 405.986> 333 122<247.375 398.174> 508 123<34.1714 183.248> 555 122<231.901 398.174>
LayerCount: 2
Back
Fore
SplineSet
517 123 m 0xf8
 527 168 543 242 543 242 c 2
 546 254 555 308 555 318 c 0
 555 328 550 339 539 339 c 0
 510 339 432 218 404 91 c 1
 404 91 384 0 384 0 c 1
 374 -3 339 -6 328 -6 c 0
 317 -6 281 -3 269 0 c 1
 269 0 321 242 321 242 c 2
 324 254 333 308 333 318 c 0
 333 328 328 339 317 339 c 0
 288 339 210 218 182 91 c 2
 182 91 162 0 162 0 c 1
 152 -3 117 -6 106 -6 c 0
 95 -6 59 -3 47 0 c 1
 47 0 106 309 106 309 c 2
 107 313 111 337 111 342 c 0
 111 351 106 363 96 363 c 0
 74 363 28 308 25 302 c 1
 18 302 11 323 11 329 c 1
 28 361 112 449 166 449 c 0
 206 449 233 424 233 378 c 0
 233 364 226 328 224 318 c 0
 222 306 214 274 214 274 c 1
 244 342 333 449 383 449 c 0
 439 449 455 419 455 362 c 0
 455 346 452 321 448 297 c 1
 485 364 560 449 605 449 c 0
 661 449 677 419 677 362 c 0xf4
 677 325 662 260 657 233 c 0
 652 208 640 160 635 132 c 0
 633 122 631 104 631 99 c 0
 631 90 635 78 645 78 c 0
 667 78 713 133 716 139 c 1
 723 139 730 118 730 112 c 1
 713 80 625 -8 571 -8 c 0
 538 -8 508 12 508 63 c 0
 508 77 515 115 517 123 c 0xf8
EndSplineSet
Validated: 1
EndChar

StartChar: n
Encoding: 110 110 78
Width: 536
Flags: W
HStem: -8 86<335.5 437> 339 110<302.5 411> 363 86<85 186>
VStem: 111 122<245.622 405.986> 289 123<34.1714 191.883> 333 122<220.031 398.174>
LayerCount: 2
Back
Fore
SplineSet
224 318 m 0xb4
 222 306 214 273 214 274 c 1
 244 342 333 449 383 449 c 3
 439 449 455 419 455 362 c 0xd4
 455 328 440 259 435 233 c 2
 435 233 416 132 416 132 c 2
 415 128 412 104 412 99 c 0
 412 90 416 78 426 78 c 0
 448 78 494 133 497 139 c 1
 504 139 511 118 511 112 c 1
 494 80 406 -8 352 -8 c 0
 319 -8 289 12 289 63 c 0xd8
 289 77 296 115 298 123 c 1
 298 123 321 242 321 242 c 2
 324 254 333 308 333 318 c 0
 333 328 328 339 317 339 c 0xd4
 288 339 210 218 182 91 c 10
 182 91 162 0 162 0 c 17
 152 -3 117 -6 106 -6 c 0
 95 -6 59 -3 47 0 c 1
 47 0 106 309 106 309 c 2
 107 313 111 337 111 342 c 0
 111 351 106 363 96 363 c 0
 74 363 28 308 25 302 c 1
 18 302 11 323 11 329 c 1
 28 361 112 449 166 449 c 0
 206 449 233 424 233 378 c 0
 233 364 226 328 224 318 c 0xb4
EndSplineSet
Validated: 37
EndChar

StartChar: o
Encoding: 111 111 79
Width: 455
Flags: W
HStem: -6 40<149.948 215.69> 409 40<220.831 285.47>
VStem: 15 125<55.3865 244.792> 296 125<195.799 392.267>
LayerCount: 2
Back
SplineSet
259 403 m 0
 175 403 124 258 124 158 c 0
 124 78 145 27 181 27 c 0
 264 27 312 173 312 273 c 0
 312 353 295 403 259 403 c 0
273 435 m 0
 353 435 390 374 390 288 c 0
 390 148 277 -5 162 -5 c 0
 82 -5 46 52 46 138 c 0
 46 278 158 435 273 435 c 0
262.64 449 m 3
 372.64 449 409.64 376 409.64 287 c 3
 409.64 137 302.64 -6 168.64 -6 c 3
 58.6396 -6 21.6396 67 21.6396 156 c 3
 21.6396 291 128.64 449 262.64 449 c 3
EndSplineSet
Fore
SplineSet
262 409 m 0
 187 409 140 235 140 125 c 0
 140 101 140 34 174 34 c 0
 249 34 296 209 296 312 c 0
 296 345 296 409 262 409 c 0
273 449 m 0
 356 449 421 416 421 297 c 0
 421 153 278 -6 158 -6 c 0
 75 -6 15 46 15 142 c 0
 15 286 153 449 273 449 c 0
EndSplineSet
Validated: 1
EndChar

StartChar: p
Encoding: 112 112 80
Width: 496
Flags: W
HStem: -219 32<-53.2744 -10.4248> -210 30<137.804 183.633> -5 44<176 249.887> 365 84<297.99 403>
VStem: 340 129<221.407 360.245>
LayerCount: 2
Back
Fore
SplineSet
301 365 m 0x38
 271 365 241 345 219 323 c 1
 214 296 184 149 184 149 c 2
 169 72 181 39 207 39 c 0
 278 39 340 215 340 299 c 0
 340 332 333 365 301 365 c 0x38
371 449 m 0
 435 449 469 398 469 328 c 0
 469 160 301 -5 179 -5 c 0
 173 -5 161 -4 152 0 c 1
 152 0 126 -126 126 -126 c 2
 124 -135 123 -144 123 -154 c 0
 123 -159 127 -174 137 -177 c 0
 154 -181 181 -180 184 -180 c 0
 188 -181 185 -209 180 -211 c 1
 167 -211 156 -210 145 -210 c 0x78
 94 -210 6 -212 -52 -219 c 1
 -57 -218 -55 -190 -50 -187 c 1xb8
 -32 -187 -19 -182 -10 -171 c 0
 -3 -162 1 -151 6 -128 c 2
 6 -128 81 232 81 232 c 1
 81 232 33 184 33 184 c 1
 29 189 26 204 26 211 c 0
 26 222 35 234 41 239 c 2
 41 239 92 287 92 287 c 1
 92 287 122 444 122 444 c 1
 133 447 172 449 183 449 c 0
 194 449 231 446 241 441 c 1
 238 423 229 382 227 373 c 1
 255 404 320 449 371 449 c 0
EndSplineSet
Validated: 33
EndChar

StartChar: q
Encoding: 113 113 81
Width: 454
Flags: W
HStem: -220 21G<123 142.5> -210 22<128 276 326.506 360.633> -7 88<65.5 188.5> 394 55<228.323 339.5>
VStem: 11 126<85.6669 220.771>
LayerCount: 2
Back
Fore
SplineSet
357 -211 m 1x78
 343 -211 289 -210 276 -210 c 0x78
 218 -210 161 -216 124 -220 c 1xb8
 122 -218 122 -188 128 -188 c 0
 157 -185 185 -172 190 -146 c 2
 190 -146 234 84 234 84 c 1
 212 49 153 -7 95 -7 c 0
 36 -7 11 56 11 114 c 0
 11 276 173 449 322 449 c 0
 357 449 393 443 419 427 c 1
 419 427 364 139 364 139 c 2
 363 135 312 -133 312 -133 c 2
 311 -140 310 -148 310 -154 c 0
 310 -170 317 -181 361 -181 c 0
 365 -181 362 -208 357 -211 c 1x78
287 341 m 0
 290 358 289 394 262 394 c 0
 195 394 137 272 137 157 c 0
 137 102 154 81 171 81 c 0
 206 81 259 186 276 275 c 0
 281 302 283 314 287 341 c 0
EndSplineSet
Validated: 33
EndChar

StartChar: r
Encoding: 114 114 82
Width: 432
Flags: W
HStem: -6 21G<100.5 111.5> 346 103<300.5 402.104> 363 86<85 186>
VStem: 111 122<236.618 405.986> 210 236<253.5 401.5>
LayerCount: 2
Back
Fore
SplineSet
375 449 m 3xc8
 404 449 413 445 430 436 c 1
 438 426 446 411 446 392 c 0
 446 344 415 320 388 320 c 0
 368 320 354 332 342 338 c 0
 332 343 331 346 315 346 c 0xc8
 286 346 210 218 182 91 c 10
 182 91 162 0 162 0 c 17
 152 -3 117 -6 106 -6 c 0
 95 -6 59 -3 47 0 c 1
 47 0 106 309 106 309 c 2
 107 313 111 337 111 342 c 0
 111 351 106 363 96 363 c 0
 74 363 28 308 25 302 c 1
 18 302 11 323 11 329 c 1
 28 361 112 449 166 449 c 0
 206 449 233 424 233 378 c 0xb0
 233 364 226 328 224 318 c 0
 222 306 210 253 210 254 c 1
 235 346 321 449 375 449 c 3xc8
EndSplineSet
Validated: 37
EndChar

StartChar: s
Encoding: 115 115 83
Width: 366
Flags: W
HStem: -7 40<96 194.893> 410 39<154.539 249.5>
VStem: 54 92<280 381.074> 206 93<66.3106 168>
LayerCount: 2
Back
Fore
SplineSet
223 449 m 3
 276 449 311 435 333 418 c 1
 342 408 344 386 344 378 c 3
 344 356 326 327 294 327 c 3
 269 327 248 354 235 373 c 0
 222 393 210 410 186 410 c 3
 164 410 146 391 146 364 c 0
 146 327 206 287 243 251 c 0
 267 228 299 199 299 137 c 0
 299 48 213 -7 116 -7 c 3
 76 -7 33 7 11 24 c 1
 2 35 -1 51 -1 62 c 3
 -1 88 18 116 47 116 c 3
 72 116 88 98 107 71 c 0
 124 47 136 33 161 33 c 3
 183 33 206 58 206 76 c 0
 206 120 141 160 103 202 c 0
 78 230 54 250 54 310 c 0
 54 390 126 449 223 449 c 3
EndSplineSet
Validated: 1
EndChar

StartChar: t
Encoding: 116 116 84
Width: 328
Flags: W
HStem: -8 86<96.5 198> 378 46<44.3211 109 234 324.431>
VStem: 50 123<34.1714 190.195>
LayerCount: 2
Back
Fore
SplineSet
118 424 m 1
 133 504 l 1
 144 518 235 570 243 570 c 0
 249 570 256 567 260 564 c 1
 234 424 l 1
 322 424 l 2
 326 424 326 417 326 412 c 0
 326 402 321 386 316 378 c 1
 225 378 l 1
 177 132 l 2
 176 126 173 104 173 99 c 0
 173 90 177 78 187 78 c 0
 209 78 255 133 258 139 c 1
 265 139 272 118 272 112 c 1
 255 80 167 -8 113 -8 c 0
 80 -8 50 12 50 63 c 0
 50 77 56 110 59 123 c 2
 109 378 l 1
 35 378 l 2
 34 378 33 379 33 381 c 0
 33 391 58 424 81 424 c 2
 118 424 l 1
EndSplineSet
Validated: 1
EndChar

StartChar: u
Encoding: 117 117 85
Width: 533
Flags: W
HStem: -8 110<100.5 215.5> -8 86<328.5 430> 363 86<81 182>
VStem: 63 122<42.0872 209.368> 107 122<248.099 405.986> 282 123<34.1714 197.02>
LayerCount: 2
Back
Fore
SplineSet
289 113 m 0x74
 293 134 298 155 301 166 c 1
 263 85 169 -8 126 -8 c 3xb4
 75 -8 63 17 63 78 c 0x74
 63 110 77 178 82 204 c 8
 90 245 96 268 102 309 c 18
 103 313 107 337 107 342 c 0
 107 351 102 363 92 363 c 0
 70 363 24 308 21 302 c 1
 14 302 7 323 7 329 c 1
 24 361 108 449 162 449 c 0
 202 449 229 424 229 378 c 0x6c
 229 364 222 328 220 318 c 0
 218 306 197 199 197 199 c 2
 195 187 185 133 185 123 c 0
 185 113 190 102 201 102 c 0xb4
 230 102 313 249 338 372 c 10
 338 372 352 441 352 441 c 17
 362 444 397 447 408 447 c 0
 419 447 455 444 467 441 c 1
 467 441 409 132 409 132 c 2
 408 127 405 104 405 99 c 0
 405 90 409 78 419 78 c 0
 441 78 487 133 490 139 c 1
 497 139 504 118 504 112 c 1
 487 80 399 -8 345 -8 c 0
 312 -8 282 12 282 63 c 0
 282 70 285 91 289 113 c 0x74
EndSplineSet
Validated: 1
EndChar

StartChar: v
Encoding: 118 118 86
Width: 465
VWidth: 0
Flags: W
HStem: -5 21G<118 160.5> 356 93<73.5 185.5>
VStem: 92 122<112.541 355.991> 348 102<281.768 363.379>
LayerCount: 2
Back
Fore
SplineSet
236 112 m 1
 268 135 302 170 324 211 c 0
 346 253 348 286 348 307 c 0
 348 332 331 364 306 384 c 1
 306 421 348 449 372 449 c 0
 410 449 450 425 450 357 c 0
 450 230 192 -5 129 -5 c 1
 107 45 92 168 92 290 c 2
 92 334 l 2
 92 343 91 356 81 356 c 0
 66 356 26 308 23 302 c 1
 16 302 9 323 9 329 c 1
 27 362 110 449 164 449 c 0
 207 449 214 423 214 393 c 2
 214 393 214 373 214 361 c 24
 214 341 l 2
 214 231 228 122 236 112 c 1
EndSplineSet
Validated: 1
EndChar

StartChar: w
Encoding: 119 119 87
Width: 726
VWidth: 0
Flags: W
HStem: -5 22G<119 166 383 427> 356 93<72.5 184.5>
VStem: 91 122<125.4 355.991> 347 111<252.389 336.328> 609 102<281.171 363.221>
LayerCount: 2
Back
Fore
SplineSet
458 406 m 1
 458 354 464 287 471 230 c 0
 479 168 489 117 493 112 c 1
 519 126 559 161 585 206 c 0
 607 244 609 279 609 302 c 0
 609 331 592 364 567 384 c 1
 567 421 609 449 633 449 c 0
 671 449 711 425 711 357 c 0
 711 230 464 -4 390 -4 c 1
 376 15 366 58 358 102 c 0
 352 135 348 168 347 192 c 1
 315 125 202 24 130 -5 c 1
 108 45 91 168 91 290 c 2
 91 334 l 2
 91 343 90 356 80 356 c 0
 65 356 25 308 22 302 c 1
 15 302 8 323 8 329 c 1
 26 362 109 449 163 449 c 0
 206 449 213 423 213 393 c 2
 213 393 213 373 213 361 c 0
 213 341 l 2
 213 231 227 131 235 121 c 1
 260 138 291 180 310 218 c 0
 324 246 339 287 345 323 c 1
 353 357 436 406 458 406 c 1
EndSplineSet
Validated: 1
EndChar

StartChar: x
Encoding: 120 120 88
Width: 511
VWidth: 0
Flags: W
HStem: -8 86<273.5 377> -7 76<54 126.541> 356 93<113.5 218> 373 76<360.448 429.5>
LayerCount: 2
Back
Fore
SplineSet
204 449 m 0x60
 232 449 246 422 254 393 c 2
 254 393 281 297 281 297 c 1
 281 297 321 375 321 375 c 1
 346 421 377 449 417 449 c 0
 442 449 476 440 489 428 c 1
 494 419 501 396 501 380 c 0
 501 353 482 319 446 319 c 0
 422 319 408 337 401 348 c 0
 395 358 386 373 379 373 c 0
 368 373 359 360 347 340 c 2
 347 340 295 251 295 251 c 1
 295 251 335 118 335 118 c 2
 341 99 349 78 366 78 c 0
 388 78 434 133 437 139 c 1
 444 139 451 118 451 112 c 1
 434 80 345 -8 291 -8 c 0x90
 256 -8 241 24 229 58 c 0
 229 60 219 96 205 143 c 1
 205 143 166 67 166 67 c 1
 141 21 110 -7 70 -7 c 0
 38 -7 19 0 3 11 c 1
 -4 17 -12 37 -12 59 c 0
 -12 86 5 123 41 123 c 0
 65 123 79 105 86 94 c 0
 92 85 101 69 108 69 c 0
 118 69 128 75 144 104 c 2
 144 104 191 189 191 189 c 1
 191 189 154 315 154 315 c 2
 151 324 141 356 121 356 c 0
 106 356 66 308 63 302 c 1
 56 302 49 323 49 329 c 1
 67 362 150 449 204 449 c 0x60
EndSplineSet
Validated: 1
EndChar

StartChar: y
Encoding: 121 121 89
Width: 501
Flags: W
HStem: -218 80<-27.0667 60.5347> 356 93<58.5 200.5>
VStem: 142 121<26 268.767> 369 102<249.552 363.061>
LayerCount: 2
Back
Fore
SplineSet
129 449 m 0
 272 449 263 87 263 26 c 1
 299 70 369 195 369 304 c 0
 369 343 342 372 327 384 c 1
 327 418 365 449 394 449 c 0
 430 449 471 426 471 356 c 0
 471 122 124 -218 -11 -218 c 0
 -47 -218 -76 -199 -76 -156 c 0
 -76 -139 -61 -114 -46 -106 c 1
 -31 -115 15 -138 53 -138 c 0
 115 -138 131 -106 133 -100 c 0
 143 -69 142 8 142 51 c 0
 142 165 120 356 71 356 c 0
 46 356 16 305 13 302 c 1
 5 303 -2 326 -1 329 c 1
 10 348 82 449 129 449 c 0
EndSplineSet
Validated: 33
EndChar

StartChar: z
Encoding: 122 122 90
Width: 441
Flags: W
HStem: -3 98<250.833 329> 38 95<69.9431 188> 314 95<235 352.478> 352 98<94 172.167>
LayerCount: 2
Back
SplineSet
120 352 m 0
 159 352 187 314 253 314 c 1024
EndSplineSet
Fore
SplineSet
170 450 m 0x10
 212 450 238 440 265 428 c 0
 283 420 309 409 348 409 c 0
 371 409 402 434 418 449 c 1
 438 449 438 430 439 421 c 0
 439 407 135 129 132 125 c 1
 137 127 161 133 174 133 c 0x60
 202 133 229 128 249 118 c 0
 266 110 293 95 314 95 c 0
 344 95 364 136 371 145 c 1
 381 145 388 129 389 121 c 1
 370 82 306 -3 253 -3 c 0x80
 211 -3 185 7 158 19 c 0
 140 27 114 38 75 38 c 0
 52 38 21 13 5 -2 c 1
 -15 -2 -15 17 -16 26 c 1
 -16 42 289 318 291 322 c 1
 286 320 262 314 249 314 c 0x60
 221 314 194 319 174 329 c 0
 157 337 130 352 109 352 c 0
 79 352 59 311 52 302 c 1
 42 302 35 318 34 326 c 1
 53 365 117 450 170 450 c 0x10
EndSplineSet
Validated: 1
EndChar

StartChar: braceleft
Encoding: 123 123 91
Width: 248
Flags: W
HStem: -144 22<125.136 132.225> 718 22<285.861 301.796>
VStem: 23 279
LayerCount: 2
Back
Fore
SplineSet
128 404 m 0
 133 432 127 455 124 481 c 0
 120 503 118 526 123 554 c 0
 142 654 250 730 295 740 c 1
 301 740 306 726 302 718 c 1
 273 704 216 657 205 599 c 0
 197 560 202 540 207 516 c 0
 211 495 216 471 208 432 c 0
 193 356 121 303 91 298 c 1
 119 293 171 240 156 164 c 0
 148 125 135 101 123 80 c 0
 109 56 96 36 88 -3 c 0
 77 -61 115 -108 138 -122 c 1
 139 -130 129 -144 123 -144 c 1
 82 -134 4 -58 23 42 c 0
 29 73 43 98 56 122 c 0
 69 145 82 166 87 192 c 0
 97 245 64 275 29 287 c 1
 28 289 27 294 28 298 c 0
 29 302 31 307 33 309 c 1
 73 321 118 351 128 404 c 0
EndSplineSet
Validated: 33
EndChar

StartChar: bar
Encoding: 124 124 92
Width: 200
Flags: W
HStem: -125 10<2 14>
VStem: 172 47<719.232 765.379>
LayerCount: 2
Back
Fore
SplineSet
172 757 m 1
 179 762 190 766 203 766 c 0
 211 766 220 763 219 756 c 2
 49 -116 l 17
 38 -124 21 -125 14 -125 c 0
 5 -125 1 -119 2 -115 c 2
 2 -115 102 418 172 757 c 1
EndSplineSet
Validated: 1
EndChar

StartChar: braceright
Encoding: 125 125 93
Width: 248
Flags: W
HStem: -144 22<-40.9362 -23.4517> 718 22<128.205 135.432>
VStem: -40 277
LayerCount: 2
Back
Fore
SplineSet
137 740 m 1
 178 730 256 654 237 554 c 0
 231 525 219 501 206 478 c 0
 193 454 179 431 174 404 c 0
 164 351 197 321 232 309 c 1
 233 307 233 302 232 298 c 0
 231 294 230 289 228 287 c 1
 188 275 143 245 133 192 c 0
 128 166 132 144 136 121 c 0
 140 97 143 72 137 42 c 0
 118 -58 10 -134 -35 -144 c 1
 -41 -144 -44 -130 -40 -122 c 1
 -12 -108 44 -61 55 -3 c 0
 62 35 58 56 53 79 c 0
 49 100 44 124 52 164 c 0
 67 240 140 293 170 298 c 1
 142 303 89 356 104 432 c 0
 113 476 126 499 140 522 c 0
 153 544 165 564 172 599 c 0
 183 657 145 704 123 718 c 1
 122 726 131 740 137 740 c 1
EndSplineSet
Validated: 33
EndChar

StartChar: asciitilde
Encoding: 126 126 94
Width: 538
Flags: W
HStem: 245 61<309.229 443.173> 298 61<113.017 246.942>
LayerCount: 2
Back
Fore
SplineSet
193 359 m 0x40
 280 359 315 306 402 306 c 0
 438 306 464 327 495 350 c 1
 497 349 499 343 499 335 c 0
 499 289 422 245 364 245 c 0x80
 276 245 241 298 153 298 c 0
 117 298 91 277 60 254 c 1
 58 255 56 261 56 269 c 0
 56 318 141 359 193 359 c 0x40
EndSplineSet
Validated: 1
EndChar

StartChar: exclamdown
Encoding: 161 161 96
Width: 236
Flags: W
HStem: 293 150<102.002 175.453>
VStem: -28 121<-214.285 -95.7977> 67 140<324.997 408.063>
LayerCount: 2
Back
Fore
SplineSet
22 -238 m 0xc0
 -7 -238 -28 -219 -28 -187 c 0
 -28 -149 76 184 88 220 c 0
 92 232 99 242 104 242 c 0
 117 242 128 231 128 213 c 0
 128 181 98 -141 93 -170 c 0
 85 -213 51 -238 22 -238 c 0xc0
67 351 m 0xa0
 67 401 114 443 154 443 c 0
 186 443 207 417 207 383 c 0
 207 334 164 293 121 293 c 0
 90 293 67 317 67 351 c 0xa0
EndSplineSet
Validated: 1
EndChar

StartChar: cent
Encoding: 162 162 97
Width: 406
Flags: W
HStem: -6 83<115.5 214.587> 399 50<201.531 296>
VStem: 25 126<90.6136 245.809>
LayerCount: 2
Back
SplineSet
197 -92 m 1
 466 642 l 1025
140 -92 m 1
 409 642 l 1025
EndSplineSet
Fore
SplineSet
281 474 m 17
 288 474 317 473 316 466 c 9
 140 -45 l 17
 132 -45 104 -43 105 -36 c 9
 281 474 l 17
EndSplineSet
Refer: 67 99 N 1 0 0 1 10 0 2
Validated: 37
EndChar

StartChar: sterling
Encoding: 163 163 98
Width: 475
UnlinkRmOvrlpSave: 1
Flags: W
HStem: -8 102<229.528 349.5> 307 42<74.6248 366.891> 585 56<288.247 391.5>
VStem: 123 104<207.188 459.277>
LayerCount: 2
Back
Fore
SplineSet
84 349 m 1
 99 349 368 349 378 349 c 1
 389 338 366 311 360 307 c 1
 57 307 l 17
 53 313 76 349 84 349 c 1
227 270 m 0
 212 195 166 145 138 122 c 1
 157 132 181 137 202 137 c 0
 237 137 284 94 332 94 c 0
 367 94 387 126 397 141 c 1
 401 143 408 139 411 134 c 24
 415 128 413 121 412 115 c 1
 396 83 335 -8 262 -8 c 0
 199 -8 162 51 93 51 c 0
 76 51 29 10 10 -6 c 1
 3 -6 -2 12 0 21 c 1
 16 44 60 81 75 102 c 1
 96 139 110 183 120 232 c 0
 130 282 117 363 123 391 c 0
 159 567 288 641 375 641 c 0
 408 641 418 628 433 616 c 1
 443 595 424 535 385 535 c 0
 341 535 346 585 306 585 c 0
 269 585 245 528 233 459 c 0
 221 387 238 326 227 270 c 0
EndSplineSet
EndChar

StartChar: currency
Encoding: 164 164 99
Width: 539
Flags: W
HStem: 120 35<218.799 295.331> 461 35<259.149 333.949>
LayerCount: 2
Back
Fore
SplineSet
255 155 m 0
 301 155 341 219 356 294 c 0
 374 386 347 461 299 461 c 0
 253 461 210 394 195 319 c 0
 177 227 207 155 255 155 c 0
410 455 m 1
 475 510 l 2
 478 513 482 511 486 508 c 0
 495 501 504 482 505 466 c 1
 438 410 l 1
 449 380 452 344 445 307 c 0
 437 267 419 230 393 199 c 1
 432 141 l 2
 434 139 432 135 429 130 c 0
 421 119 401 105 384 100 c 1
 346 155 l 1
 314 133 277 120 240 120 c 0
 200 120 166 135 142 160 c 1
 83 110 l 2
 80 108 77 108 74 111 c 0
 65 118 55 137 54 154 c 1
 114 205 l 1
 102 235 99 270 106 307 c 0
 115 351 135 391 164 423 c 1
 126 479 l 2
 124 481 125 484 128 488 c 0
 136 499 157 515 175 520 c 1
 213 465 l 1
 244 485 279 496 314 496 c 0
 354 496 386 481 410 455 c 1
EndSplineSet
Validated: 33
EndChar

StartChar: yen
Encoding: 165 165 100
Width: 631
Flags: W
HStem: -4 36<122.175 187.511 327.819 378.413> 130 44<119.67 443.517> 219 44<136.67 460.517> 606 36<97.7264 140.157 295.172 354.825 465.587 523.102 599.437 668.825>
LayerCount: 2
Back
Fore
SplineSet
139 219 m 2
 136 219 134 222 134 226 c 0
 134 237 139 252 149 263 c 1
 459 263 l 2
 461 263 462 260 462 256 c 0
 462 245 460 229 449 219 c 1
 139 219 l 2
122 130 m 2
 119 130 117 133 117 137 c 0
 117 148 122 163 132 174 c 1
 442 174 l 2
 444 174 445 171 445 167 c 0
 445 156 443 140 432 130 c 1
 122 130 l 2
212 141 m 2
 238 275 l 0
 239 282 238 287 236 295 c 0
 223 348 167 521 167 521 c 2
 158 548 157 555 150 574 c 0
 141 598 107 605 95 606 c 1
 92 613 96 636 101 642 c 1
 135 638 192 635 230 635 c 0
 268 635 322 638 358 642 c 1
 361 636 357 613 351 606 c 1
 339 605 296 604 291 580 c 0
 290 576 293 572 295 565 c 2
 360 350 l 1
 364 345 462 483 516 561 c 0
 521 569 523 576 524 583 c 0
 527 600 474 605 462 606 c 1
 459 613 464 636 469 642 c 1
 511 638 527 635 569 635 c 0
 609 635 634 640 672 642 c 1
 675 636 671 613 665 606 c 1
 653 605 610 604 593 582 c 0
 570 554 409 346 372 289 c 0
 367 282 364 277 363 271 c 0
 338 141 l 2
 329 99 324 68 328 49 c 0
 330 36 370 33 382 32 c 1
 385 25 380 2 375 -4 c 1
 341 0 285 3 247 3 c 0
 209 3 155 0 119 -4 c 1
 116 2 120 25 126 32 c 1
 138 33 180 36 187 49 c 0
 198 68 203 99 212 141 c 2
EndSplineSet
Validated: 37
EndChar

StartChar: brokenbar
Encoding: 166 166 101
Width: 204
Flags: W
HStem: -125 10<3 15> 375 10<100 112>
VStem: 3 217
LayerCount: 2
Back
Fore
SplineSet
173 757 m 1
 180 762 191 766 204 766 c 0
 212 766 221 763 220 756 c 2
 147 384 l 17
 136 376 119 375 112 375 c 0
 103 375 99 381 100 385 c 2
 100 385 108 417 173 757 c 1
76 257 m 1
 83 262 94 266 107 266 c 0
 115 266 124 263 123 256 c 2
 50 -116 l 17
 39 -124 22 -125 15 -125 c 0
 6 -125 2 -119 3 -115 c 2
 3 -115 11 -83 76 257 c 1
EndSplineSet
Validated: 1
EndChar

StartChar: section
Encoding: 167 167 102
Width: 438
UnlinkRmOvrlpSave: 1
Flags: W
HStem: -92 50<61.5 158.16> 603 50<285.84 382.5>
LayerCount: 2
Back
Fore
SplineSet
376 653 m 0
 272 653 177 566 161 486 c 0
 148 418 206 364 242 320 c 0
 282 270 326 213 310 130 c 0
 301 86 284 66 256 37 c 0
 256 37 232 15 222 -3 c 24
 215 -14 217 -22 214 -34 c 17
 254 -8 372 105 387 184 c 0
 405 276 362 325 314 384 c 0
 279 427 218 503 227 549 c 0
 234 587 279 603 308 603 c 0
 322 603 335 598 342 590 c 0
 349 582 358 570 376 570 c 0
 403 570 416 588 420 610 c 0
 421 616 423 630 420 640 c 1
 408 646 389 653 376 653 c 0
188 523 m 0
 158 492 143 475 134 431 c 0
 118 348 161 291 202 241 c 0
 238 197 296 143 283 75 c 0
 267 -5 172 -92 68 -92 c 0
 55 -92 34 -84 24 -78 c 1
 22 -71 22 -58 23 -52 c 0
 27 -30 42 -9 69 -9 c 0
 87 -9 97 -22 104 -31 c 0
 110 -39 122 -42 136 -42 c 0
 165 -42 210 -26 217 12 c 0
 226 58 165 134 130 177 c 0
 82 236 39 285 57 377 c 0
 72 456 190 569 230 595 c 9
 227 583 229 575 222 564 c 24
 212 546 188 523 188 523 c 0
EndSplineSet
EndChar

StartChar: copyright
Encoding: 169 169 104
Width: 616
Flags: W
HStem: 38 44<203.372 378.053> 163 25<279.499 358.238> 429 26<303.026 382.086> 538 46<252.037 431.366>
VStem: 405 20<371.821 401.829>
LayerCount: 2
Back
Fore
SplineSet
341 455 m 0
 366 455 398 444 420 439 c 1
 420 434 426 382 425 377 c 0
 425 375 415 371 410 371 c 3
 408 371 407 370 405 372 c 1
 403 388 394 429 340 429 c 0
 286 429 258 368 251 310 c 0
 243 246 261 188 315 188 c 0
 338 188 355 195 366 205 c 0
 384 221 398 253 399 256 c 1
 405 256 414 255 416 252 c 1
 415 247 399 191 393 189 c 0
 368 180 336 163 301 163 c 0
 222 163 173 217 184 305 c 0
 195 394 268 455 341 455 c 0
104 310 m 0
 89 184 171 82 288 82 c 0
 405 82 513 184 528 310 c 0
 543 436 461 538 344 538 c 0
 227 538 119 436 104 310 c 0
350 584 m 0
 490 584 590 462 571 311 c 0
 552 160 423 38 283 38 c 0
 143 38 44 160 63 311 c 0
 82 462 210 584 350 584 c 0
EndSplineSet
Validated: 33
EndChar

StartChar: ordfeminine
Encoding: 170 170 105
Width: 399
Flags: W
HStem: 247 59<97.5 179.32 253.5 330> 510 44<200.553 293.5>
VStem: 55 92<306.296 415.379>
LayerCount: 2
Back
Fore
SplineSet
266 246 m 0
 241 246 219 257 219 287 c 0
 219 290 220 296 221 301 c 0
 222 306 222 310 223 313 c 1
 208 288 162 247 118 247 c 0
 77 247 55 283 55 329 c 0
 55 450 188 554 280 554 c 0
 307 554 344 547 358 542 c 1
 314 349 l 2
 314 346 311 330 311 327 c 0
 311 321 314 313 322 313 c 0
 338 313 372 350 374 354 c 1
 379 351 384 336 382 327 c 1
 370 305 306 246 266 246 c 0
237 510 m 0
 187 510 147 434 147 354 c 0
 147 322 157 306 173 306 c 0
 198 306 234 374 249 441 c 2
 263 502 l 1
 258 507 247 510 237 510 c 0
EndSplineSet
Validated: 1
EndChar

StartChar: guillemotleft
Encoding: 171 171 106
Width: 478
Flags: W
LayerCount: 2
Back
Fore
SplineSet
395 92 m 1
 389 82 373 74 367 73 c 1
 363 77 308 154 202 233 c 1
 199 237 198 243 199 248 c 0
 200 253 204 259 208 263 c 1
 345 342 430 419 435 423 c 1
 440 422 454 414 456 404 c 1
 451 398 342 284 301 248 c 1
 328 212 392 98 395 92 c 1
222 92 m 1
 216 82 199 74 193 73 c 1
 189 77 135 154 29 233 c 1
 26 237 24 243 25 248 c 0
 26 253 30 259 34 263 c 1
 171 342 256 419 261 423 c 1
 266 422 280 414 282 404 c 1
 277 398 168 284 127 248 c 1
 154 212 219 98 222 92 c 1
EndSplineSet
Validated: 1
EndChar

StartChar: logicalnot
Encoding: 172 172 107
Width: 516
Flags: W
HStem: 318 51<62.6798 396>
LayerCount: 2
Back
Fore
SplineSet
74 369 m 1
 464 369 l 17
 455 322 420 144 420 144 c 2
 419 140 393 128 377 128 c 0
 367 128 360 132 361 136 c 2
 396 318 l 1
 65 318 l 2
 62 318 60 321 60 326 c 0
 60 339 63 356 74 369 c 1
EndSplineSet
Validated: 1
EndChar

StartChar: registered
Encoding: 174 174 108
Width: 616
Flags: W
HStem: 89 44<212.872 387.622> 234 16<195.895 222.895 283.059 306.775 433.149 449> 355 19<295 303.998> 482 19<226.56 249.941 309.099 348.4> 589 46<261.537 440.92>
LayerCount: 2
Back
Fore
SplineSet
342 501 m 0
 388 501 424 475 418 427 c 0
 414 394 372 367 354 362 c 1
 376 323 402 288 402 288 c 0
 425 255 448 251 451 251 c 1
 452 248 449 235 449 234 c 1
 438 233 422 232 407 232 c 0
 378 232 364 245 350 268 c 0
 304 349 l 0
 304 349 301 355 298 355 c 0
 292 355 l 9
 285 295 l 2
 283 278 281 266 283 258 c 0
 284 253 302 250 307 250 c 1
 308 247 307 236 305 234 c 1
 290 236 267 237 251 237 c 0
 235 237 211 236 196 234 c 1
 194 236 196 247 198 250 c 1
 203 250 221 253 223 258 c 0
 227 266 228 278 230 295 c 2
 248 441 l 2
 250 458 252 470 250 478 c 0
 249 483 231 484 226 484 c 1
 225 487 227 499 229 501 c 1
 246 500 268 500 284 500 c 0
 300 500 320 501 342 501 c 0
328 482 m 0
 320 482 311 482 309 478 c 0
 307 473 305 465 304 453 c 2
 295 374 l 17
 310 374 l 0
 334 374 356 393 360 424 c 0
 364 456 353 482 328 482 c 0
354 589 m 0
 237 589 129 487 114 361 c 0
 99 235 181 133 298 133 c 0
 415 133 523 235 538 361 c 0
 553 487 471 589 354 589 c 0
359 635 m 0
 499 635 600 513 581 362 c 0
 562 211 432 89 292 89 c 0
 152 89 53 211 72 362 c 0
 91 513 219 635 359 635 c 0
EndSplineSet
Validated: 33
EndChar

StartChar: degree
Encoding: 176 176 110
Width: 281
Flags: W
HStem: 425 46<138.648 226.188> 602 45<154.852 244.386>
VStem: 88 206
LayerCount: 2
Back
Fore
SplineSet
131 537 m 0
 124 501 145 471 178 471 c 0
 211 471 244 501 251 537 c 0
 258 573 237 602 204 602 c 0
 171 602 138 573 131 537 c 0
88 537 m 0
 100 598 155 647 212 647 c 0
 269 647 306 598 294 537 c 0
 282 476 226 425 169 425 c 0
 112 425 76 476 88 537 c 0
EndSplineSet
Validated: 33
EndChar

StartChar: plusminus
Encoding: 177 177 111
Width: 511
Flags: W
HStem: 11 51<12.5193 415.797> 307 51<70.5193 241 305 473.797>
LayerCount: 2
Back
Fore
SplineSet
415 62 m 2
 417 62 418 59 418 54 c 0
 418 41 416 23 405 11 c 1
 14 11 l 2
 11 11 9 14 9 19 c 0
 9 32 14 49 24 62 c 1
 415 62 l 2
72 307 m 2
 69 307 67 310 67 315 c 0
 67 328 72 345 82 358 c 1
 249 358 l 1
 282 529 l 2
 284 542 327 545 331 545 c 0
 339 545 341 541 340 537 c 2
 305 358 l 1
 473 358 l 2
 475 358 476 355 476 350 c 0
 476 337 474 319 463 307 c 1
 297 307 l 1
 262 133 l 2
 260 123 235 117 219 117 c 0
 209 117 204 121 205 125 c 2
 241 307 l 1
 72 307 l 2
EndSplineSet
Validated: 1
EndChar

StartChar: uni00B2
Encoding: 178 178 112
Width: 339
Flags: W
HStem: 254 76<145 267.666> 589 55<169.579 272.548>
VStem: 246 90<488.646 582.984>
LayerCount: 2
Back
SplineSet
374.1 552.9 m 0
 374.1 500.44 337.579 460.043 289.78 418.7 c 0
 233.36 369.9 171.36 321.1 172.6 321.1 c 9
 279.24 321.1 l 2
 312.1 321.1 324.5 341.84 331.94 361.36 c 0
 333.112 364.436 336.28 366.85 341.24 366.85 c 0
 345.58 366.85 349.3 364.41 351.78 362.58 c 1
 338.76 332.08 307.76 264.98 302.8 254 c 9
 302.8 254 96.3398 254 92 254 c 1
 89.5195 254 87.04 260.1 87.6602 267.42 c 1
 121.76 297.92 192.172 370.402 227.16 412.6 c 0
 265.6 458.96 286.06 501.66 286.06 539.48 c 0
 286.06 571.2 268.08 593.77 234.6 593.77 c 0
 198.64 593.77 170.12 560.22 165.78 554.73 c 1
 160.2 554.73 154.62 562.05 154 566.93 c 1
 160.82 582.18 219.72 645.62 279.86 645.62 c 0
 325.12 645.62 374.1 612.07 374.1 552.9 c 0
EndSplineSet
Fore
SplineSet
336 553 m 0
 336 498 278 438 236 403 c 0
 203 376 185 357 145 330 c 1
 237 330 l 2
 268 330 280 358 294 380 c 0
 296 383 299 385 303 385 c 0
 307 385 315 384 317 382 c 1
 305 353 263 265 257 254 c 9
 46 254 l 1
 44 257 42 265 42 268 c 1
 97 321 123 347 180 409 c 0
 221 454 246 498 246 537 c 0
 246 569 231 589 199 589 c 0
 158 589 130 552 124 547 c 1
 121 547 109 553 111 565 c 1
 126 588 175 644 240 644 c 0
 305 644 336 599 336 553 c 0
EndSplineSet
Validated: 1
EndChar

StartChar: uni00B3
Encoding: 179 179 113
Width: 338
Flags: W
HStem: 245 31<106.5 192.075> 443 24<146.026 178.803> 594 50<173.45 259.512>
VStem: 230 93<327.612 434.695> 247 80<514.953 589.275>
LayerCount: 2
Back
Fore
SplineSet
243 644 m 0xe8
 276 644 327 630 327 568 c 0xe8
 327 510 260 481 239 477 c 1
 257 476 323 468 323 394 c 0
 323 294 198 245 125 245 c 0
 88 245 58 257 48 268 c 1
 45 275 43 288 45 298 c 0
 48 315 63 338 86 338 c 0
 104 338 113 322 121 303 c 0
 128 285 141 276 156 276 c 0
 191 276 230 320 230 372 c 0xf0
 230 406 217 446 179 446 c 0
 175 446 158 446 148 443 c 1
 147 446 146 449 146 454 c 0
 146 458 147 465 148 467 c 1
 178 471 247 490 247 552 c 0
 247 573 236 594 202 594 c 0
 168 594 134 553 129 548 c 1
 125 549 112 559 116 569 c 1
 149 613 198 644 243 644 c 0xe8
EndSplineSet
Validated: 1
EndChar

StartChar: acute
Encoding: 180 180 114
Width: 202
Flags: W
HStem: 490 148
VStem: 20 172
LayerCount: 2
Back
SplineSet
304.021 653.988 m 0
 304.021 667.193 285.916 687 254.632 687 c 0
 241.632 687 229.632 683 225.632 678 c 0
 199.996 635.602 165.611 547.513 165.611 540.26 c 0
 165.611 535.76 177.581 522 184.632 522 c 0
 193.337 522 304.021 612.751 304.021 653.988 c 0
EndSplineSet
Fore
Refer: 191 769 N 1 0 0 1 356 0 2
Validated: 1
EndChar

StartChar: uni00B5
Encoding: 181 181 115
Width: 529
Flags: W
HStem: -9 99<166.95 226.423> -4 82<346 419.272>
LayerCount: 2
Back
Fore
SplineSet
172 446 m 0x80
 181 446 225 422 222 409 c 0
 220 399 213 355 179 266 c 0
 177 260 165 223 165 223 c 0
 150 144 162 90 193 90 c 0x80
 244 90 271 145 289 204 c 1
 291 212 337 433 337 433 c 17
 352 443 372 447 383 446 c 0
 424 443 446 422 443 409 c 0
 440 391 425 335 391 246 c 0
 389 240 382 223 382 223 c 1
 365 141 357 78 397 78 c 0
 419 78 449 100 457 109 c 1
 460 109 463 101 465 96 c 0
 466 92 465 79 464 76 c 0
 444 32 402 -4 367 -4 c 0x40
 325 -3 307 64 312 128 c 1
 272 58 230 -9 169 -9 c 0
 133 -9 131 42 127 76 c 1
 124 51 66 -123 109 -191 c 1
 103 -199 71 -227 55 -227 c 0
 9 -227 1 -166 1 -127 c 0
 1 -90 52 100 83 204 c 1
 88 228 94 275 98 298 c 0
 101 311 116 390 123 426 c 1
 129 434 161 446 172 446 c 0x80
EndSplineSet
Validated: 33
EndChar

StartChar: paragraph
Encoding: 182 182 116
Width: 560
Flags: W
HStem: -82 46<198 276.874> 622 37<271.5 431.598 525.479 592.399>
VStem: 68 203<358.892 526.178>
LayerCount: 2
Back
Fore
SplineSet
314 659 m 0
 369 659 429 655 465 655 c 0
 504 655 560 658 597 662 c 1
 600 656 596 632 590 625 c 1
 578 624 534 620 527 607 c 0
 516 587 509 556 501 513 c 2
 440 194 l 2
 408 30 295 -82 215 -82 c 0
 181 -82 152 -72 141 -64 c 1
 136 -56 132 -44 132 -31 c 0
 132 -6 147 18 170 18 c 0
 187 18 201 9 212 -6 c 0
 221 -19 231 -36 249 -36 c 0
 288 -36 293 31 324 190 c 1
 390 537 l 2
 396 567 402 600 400 612 c 0
 398 621 389 622 381 622 c 0
 337 622 271 554 271 458 c 0
 271 391 286 346 332 324 c 1
 334 323 336 318 336 316 c 0
 336 292 276 273 245 273 c 0
 123 273 68 369 68 440 c 0
 68 584 229 659 314 659 c 0
EndSplineSet
Validated: 33
EndChar

StartChar: periodcentered
Encoding: 183 183 117
Width: 237
Flags: W
HStem: 188 150<78.3839 153.619>
VStem: 47 140<222.562 306.831>
LayerCount: 2
Back
Fore
SplineSet
47 250 m 0
 47 297 90 338 132 338 c 19
 164 338 187 313 187 280 c 0
 187 236 146 188 104 188 c 19
 70 188 47 216 47 250 c 0
EndSplineSet
Validated: 1
EndChar

StartChar: uni00B9
Encoding: 185 185 119
Width: 282
Flags: W
HStem: 252 26<55.7031 104.722 205.299 244.14> 621 20G<258 262>
VStem: 54 217
LayerCount: 2
Back
Fore
SplineSet
158 511 m 2
 163 538 160 558 149 558 c 0
 141 558 115 547 104 542 c 1
 100 543 96 554 98 562 c 0
 98 563 99 568 100 569 c 1
 172 599 257 641 259 641 c 2
 260 641 l 2
 264 641 271 624 271 621 c 1
 266 610 252 575 244 536 c 2
 207 346 l 2
 204 328 200 298 205 291 c 0
 211 282 242 278 247 278 c 1
 249 278 243 253 242 252 c 1
 220 253 171 256 149 256 c 0
 127 256 77 253 54 252 c 1
 52 255 56 278 59 278 c 1
 66 278 98 284 106 292 c 0
 112 298 124 336 126 347 c 2
 158 511 l 2
EndSplineSet
Validated: 33
EndChar

StartChar: ordmasculine
Encoding: 186 186 120
Width: 358
Flags: W
HStem: 251 30<155.974 204.931> 523 29<206.183 253.369>
VStem: 57 92<284.035 429.082> 261 92<371.484 522.466>
LayerCount: 2
Back
SplineSet
269 523 m 3
 224 523 208 461 199 413 c 24
 188 355 192 282 237 282 c 3
 282 282 298 343 307 390 c 24
 318 448 314 523 269 523 c 3
282 553 m 0
 369 553 417 489 401 405 c 0
 385 321 307 251 224 251 c 0
 137 251 89 316 105 400 c 0
 121 484 200 553 282 553 c 0
EndSplineSet
Fore
SplineSet
237 523 m 0
 183 523 149 411 149 338 c 0
 149 322 151 281 174 281 c 0
 228 281 261 394 261 462 c 0
 261 484 257 523 237 523 c 0
245 552 m 0
 305 552 353 531 353 452 c 0
 353 357 249 251 162 251 c 0
 102 251 57 285 57 349 c 0
 57 444 158 552 245 552 c 0
EndSplineSet
Validated: 1
EndChar

StartChar: guillemotright
Encoding: 187 187 121
Width: 478
Flags: W
LayerCount: 2
Back
Fore
SplineSet
75 404 m 1
 81 414 98 422 104 423 c 1
 108 419 162 342 268 263 c 1
 271 259 272 253 271 248 c 0
 270 243 266 237 262 233 c 1
 125 154 41 77 36 73 c 1
 31 74 16 82 14 92 c 1
 19 98 128 212 169 248 c 1
 142 284 78 398 75 404 c 1
249 404 m 1
 255 414 271 422 277 423 c 1
 281 419 336 342 442 263 c 1
 445 259 446 253 445 248 c 0
 444 243 440 237 436 233 c 1
 299 154 214 77 209 73 c 1
 204 74 190 82 188 92 c 1
 193 98 302 212 343 248 c 1
 316 284 252 398 249 404 c 1
EndSplineSet
Validated: 1
EndChar

StartChar: onequarter
Encoding: 188 188 122
Width: 705
Flags: W
HStem: -1 21G<182 196.072 526 544> 110 42<423 517 606 642.243> 254 23<54.4438 101.644 201.033 245.368>
LayerCount: 2
Back
Fore
SplineSet
638 400 m 0
 644 400 652 389 651 384 c 2
 606 152 l 25
 639 152 l 18
 643 152 644 147 644 142 c 0
 644 131 637 116 633 110 c 1
 597 110 l 25
 577 3 l 1
 577 3 555 -1 533 -1 c 0
 519 -1 495 1 496 5 c 2
 517 110 l 25
 362 110 l 1
 358 112 356 121 357 125 c 1
 620 390 l 2
 626 396 634 400 638 400 c 0
548 282 m 25
 423 152 l 25
 524 152 l 25
 548 282 l 25
98 542 m 1
 94 544 91 557 91 561 c 0
 91 562 92 564 94 566 c 1
 156 598 228 630 260 646 c 9
 262 646 l 2
 265 646 268 632 267 624 c 1
 267 624 250 590 237 522 c 2
 204 343 l 2
 200 323 198 298 198 295 c 0
 198 278 244 277 248 277 c 0
 250 277 248 265 247 261 c 0
 246 258 246 255 245 254 c 1
 223 255 168 258 146 258 c 0
 124 258 76 255 53 254 c 1
 51 257 55 277 58 277 c 0
 65 277 98 281 104 291 c 0
 108 298 111 312 113 324 c 2
 149 508 l 2
 156 544 161 563 149 563 c 0
 145 563 109 547 98 542 c 1
633 633 m 2
 182 -8 l 1
 182 -8 155 -7 155 4 c 0
 155 6 156 8 157 10 c 26
 609 651 l 1
 609 651 634 649 634 638 c 0
 634 636 634 634 633 633 c 2
EndSplineSet
Validated: 33
EndChar

StartChar: onehalf
Encoding: 189 189 123
Width: 747
Flags: W
HStem: -2 76<512 634.666> 254 23<54.4438 101.644 201.033 245.368> 333 55<536.579 639.548>
VStem: 613 90<232.646 326.984>
LayerCount: 2
Back
Fore
SplineSet
703 297 m 0
 703 242 645 182 603 147 c 0
 570 120 552 101 512 74 c 1
 604 74 l 2
 635 74 647 102 661 124 c 0
 663 127 666 129 670 129 c 0
 674 129 682 128 684 126 c 1
 672 97 630 9 624 -2 c 9
 413 -2 l 1
 411 1 409 9 409 12 c 1
 464 65 490 91 547 153 c 0
 588 198 613 242 613 281 c 0
 613 313 598 333 566 333 c 0
 525 333 497 296 491 291 c 1
 488 291 476 297 478 309 c 1
 493 332 542 388 607 388 c 0
 672 388 703 343 703 297 c 0
98 542 m 1
 94 544 91 557 91 561 c 0
 91 562 92 564 94 566 c 1
 156 598 228 630 260 646 c 9
 262 646 l 2
 265 646 268 632 267 624 c 1
 267 624 250 590 237 522 c 2
 204 343 l 2
 200 323 198 298 198 295 c 0
 198 278 244 277 248 277 c 0
 250 277 248 265 247 261 c 0
 246 258 246 255 245 254 c 1
 223 255 168 258 146 258 c 0
 124 258 76 255 53 254 c 1
 51 257 55 277 58 277 c 0
 65 277 98 281 104 291 c 0
 108 298 111 312 113 324 c 2
 149 508 l 2
 156 544 161 563 149 563 c 0
 145 563 109 547 98 542 c 1
633 633 m 2
 182 -8 l 1
 182 -8 155 -7 155 4 c 0
 155 6 156 8 157 10 c 26
 609 651 l 1
 609 651 634 649 634 638 c 0
 634 636 634 634 633 633 c 2
EndSplineSet
Validated: 33
EndChar

StartChar: threequarters
Encoding: 190 190 124
Width: 712
Flags: W
HStem: -1 21G<186 200.072 534 552> 110 42<431 525 614 650.243> 245 31<101.5 187.075> 443 24<141.026 173.803> 594 50<168.45 254.512>
VStem: 225 93<327.612 434.695> 242 80<514.953 589.275>
LayerCount: 2
Back
Fore
SplineSet
646 400 m 0xf8
 652 400 660 389 659 384 c 2
 659 384 614 152 614 152 c 25
 614 152 647 152 647 152 c 18
 651 152 652 147 652 142 c 0
 652 131 645 116 641 110 c 1
 641 110 606 110 606 110 c 25
 606 110 585 3 585 3 c 1
 585 3 563 -1 541 -1 c 0
 527 -1 504 1 505 5 c 2
 505 5 525 110 525 110 c 25
 525 110 370 110 370 110 c 1
 366 112 364 121 365 125 c 1
 365 125 628 390 628 390 c 2
 634 396 642 400 646 400 c 0xf8
556 282 m 25
 556 282 431 152 431 152 c 25
 431 152 532 152 532 152 c 25
 532 152 556 282 556 282 c 25
238 644 m 0
 271 644 322 630 322 568 c 0xfa
 322 510 255 481 234 477 c 1
 252 476 318 468 318 394 c 0
 318 294 193 245 120 245 c 0
 83 245 53 257 43 268 c 1
 40 275 38 288 40 298 c 0
 43 315 58 338 81 338 c 0
 99 338 108 322 116 303 c 0
 123 285 136 276 151 276 c 0
 186 276 225 320 225 372 c 0xfc
 225 406 212 446 174 446 c 0
 170 446 153 446 143 443 c 1
 142 446 141 449 141 454 c 0
 141 458 142 465 143 467 c 1
 173 471 242 490 242 552 c 0xfa
 242 573 231 594 197 594 c 0
 163 594 129 553 124 548 c 1
 120 549 107 559 111 569 c 1
 144 613 193 644 238 644 c 0
637 633 m 2
 637 633 186 -8 186 -8 c 1
 186 -8 159 -7 159 4 c 0
 159 6 160 8 161 10 c 26
 161 10 613 651 613 651 c 1
 613 651 638 649 638 638 c 0
 638 636 638 634 637 633 c 2
EndSplineSet
Validated: 33
EndChar

StartChar: questiondown
Encoding: 191 191 125
Width: 364
Flags: W
HStem: -208 73<61.9877 164.5> 311 138<214 287.443>
VStem: -20 73<-130.113 -46.876> 183 92<102.729 185.885> 187 126<335.383 422.244>
LayerCount: 2
Back
Fore
SplineSet
313 378 m 0xe8
 306 341 272 311 237 311 c 27
 203 311 180 341 187 378 c 0
 194 415 227 449 262 449 c 27
 298 449 320 415 313 378 c 0xe8
149 223 m 1
 149 229 157 240 162 243 c 1
 186 243 275 192 275 136 c 3
 275 70 220 44 194 26 c 0
 167 7 117 -11 84 -39 c 0
 64 -56 53 -71 53 -96 c 3
 53 -120 65 -135 90 -135 c 0
 120 -135 151 -84 181 -84 c 0
 227 -84 239 -133 224 -171 c 1
 212 -186 188 -208 141 -208 c 0
 58 -208 -20 -136 -20 -62 c 0
 -20 -7 -7 34 68 81 c 0
 84 91 117 105 144 123 c 0
 166 137 183 154 183 171 c 3xf0
 183 200 157 218 149 223 c 1
EndSplineSet
Validated: 33
EndChar

StartChar: AE
Encoding: 198 198 132
Width: 864
Flags: W
HStem: -3 37<-63.3877 -2.5 308.181 373.418> -2 44<518.469 714.781> 270 48<260 400.953> 302 47<542.844 672.521> 620 37<367.473 388.986 571.292 745.834>
VStem: 700 29<226.106 283.319> 720 28<387.185 426.857> 786 36<511.204 571.025>
LayerCount: 2
Back
SplineSet
420 497 m 25
 130 100 l 1049
480 471 m 25
 190 74 l 1049
EndSplineSet
Fore
SplineSet
507 657 m 0xad
 546 657 756 663 811 664 c 1
 813 614 818 561 822 516 c 1
 819 513 807 511 800 511 c 0
 793 511 787 514 786 519 c 0
 772 574 753 620 696 620 c 2
 696 620 619 620 619 620 c 2
 598 620 577 619 571 608 c 0
 565 596 563 576 560 547 c 2
 560 547 542 360 542 360 c 2
 542 354 561 349 581 349 c 2
 581 349 630 349 630 349 c 2
 685 349 699 361 720 419 c 0
 722 424 724 427 731 427 c 0
 738 427 746 425 748 422 c 1x1b
 748 422 729 230 729 230 c 1
 727 228 719 226 712 226 c 0
 705 226 700 229 700 234 c 0
 694 282 681 291 673 295 c 0
 663 300 639 302 604 302 c 0
 578 302 536 300 535 288 c 2
 535 288 519 141 519 141 c 2
 518 135 513 82 519 62 c 0
 523 48 553 42 577 42 c 2
 577 42 639 42 639 42 c 2
 674 42 705 52 729 75 c 0
 751 96 767 125 788 170 c 0
 790 174 795 176 802 176 c 0
 811 176 827 173 829 170 c 1
 806 116 773 42 762 -2 c 1
 736 -2 562 -2 436 -2 c 0x5d
 372 -2 320 -3 308 -3 c 1
 304 3 306 27 311 34 c 1
 323 35 367 38 373 51 c 0
 382 71 385 102 389 145 c 2
 389 145 401 265 401 265 c 2
 400 266 399 269 397 269 c 0
 362 271 340 270 317 270 c 0
 279 270 264 270 231 269 c 0
 228 269 223 266 222 264 c 2
 222 264 151 163 132 135 c 0
 116 110 95 74 93 67 c 0
 86 41 148 33 155 33 c 1
 158 26 156 0 152 -4 c 1
 120 0 81 4 40 4 c 0
 -3 4 -29 0 -62 -4 c 1
 -65 0 -68 21 -61 32 c 1
 -50 32 0 48 13 64 c 0
 37 92 45 106 65 134 c 2
 65 134 381 590 381 590 c 0
 381 590 389 603 389 608 c 0
 389 618 370 623 364 623 c 1
 360 630 365 654 369 660 c 1
 410 657 468 657 507 657 c 0xad
431 567 m 1
 431 567 260 325 260 325 c 1
 260 325 260 321 262 321 c 0
 280 319 305 318 326 318 c 0x29
 355 318 373 318 402 320 c 0
 404 320 407 325 407 325 c 1
 407 325 427 513 427 513 c 2
 429 534 430 552 431 567 c 1
EndSplineSet
Validated: 33
EndChar

StartChar: Eth
Encoding: 208 208 142
Width: 721
Flags: W
HStem: -3 42<-1.36724 66.9043 210.837 371.096> 304 39<51.6816 391.88> 620 40<118.448 171.931 313.338 445.533>
LayerCount: 2
Back
Fore
SplineSet
60 343 m 1
 88 343 377 343 390 343 c 0
 394 343 396 339 395 335 c 0
 394 330 389 311 384 304 c 1
 356 304 66 304 53 304 c 0
 49 304 49 311 50 315 c 0
 51 320 53 336 60 343 c 1
EndSplineSet
Refer: 36 68 N 1 0 0 1 1 0 2
Validated: 5
EndChar

StartChar: multiply
Encoding: 215 215 149
Width: 436
Flags: W
VStem: 180 68<231.125 264>
LayerCount: 2
Back
Fore
SplineSet
39 70 m 0
 33 70 24 97 24 113 c 1
 178 248 l 2
 179 249 180 250 180 251 c 0
 180 253 180 255 179 256 c 2
 78 393 l 1
 78 407 105 429 110 429 c 0
 114 429 112 427 114 425 c 2
 218 284 l 2
 219 283 221 282 222 282 c 2
 224 283 l 26
 382 424 l 2
 384 426 386 427 388 427 c 0
 395 427 403 401 403 383 c 1
 250 247 l 2
 249 246 248 246 248 245 c 3
 248 244 248 244 249 243 c 2
 349 107 l 1
 349 93 329 70 322 70 c 0
 318 70 316 71 315 73 c 2
 212 213 l 2
 211 214 210 215 209 215 c 0
 208 215 206 214 205 213 c 2
 44 73 l 2
 42 71 41 70 39 70 c 0
EndSplineSet
Validated: 1
EndChar

StartChar: Oslash
Encoding: 216 216 150
Width: 705
Flags: W
HStem: -10 43<260.896 393.749> 624 43<333.848 462.469>
VStem: 49 144<149.833 390.06> 535 144<259.072 501.723>
LayerCount: 2
Back
Fore
SplineSet
104 -13 m 17
 96 -10 75 6 80 12 c 9
 596 669 l 17
 604 667 626 651 621 645 c 9
 104 -13 l 17
EndSplineSet
Refer: 47 79 N 1 0 0 1 0 0 3
Validated: 37
EndChar

StartChar: Thorn
Encoding: 222 222 156
Width: 556
Flags: W
HStem: -4 37<-4.72067 61.9979 207.001 259.413> 135 44<253.83 337.219> 472 41<291.135 375.046> 623 37<119.098 170.343 312.71 379.89>
LayerCount: 2
Back
Fore
SplineSet
364 513 m 0
 483 513 565 424 544 317 c 0
 521 197 399 135 305 135 c 0
 272 135 259 147 254 154 c 0
 251 158 249 171 249 176 c 0
 249 180 251 183 253 183 c 1
 262 180 269 179 283 179 c 0
 329 179 390 237 403 303 c 0
 420 392 394 472 332 472 c 0
 311 472 293 468 284 456 c 0
 276 445 273 428 267 399 c 2
 218 145 l 2
 210 102 203 71 207 51 c 0
 209 38 251 34 263 33 c 1
 266 26 261 2 256 -4 c 1
 221 0 163 3 124 3 c 0
 85 3 28 0 -9 -4 c 1
 -12 2 -7 26 -1 33 c 1
 11 34 55 38 62 51 c 0
 73 71 79 102 87 145 c 2
 159 513 l 2
 167 556 174 587 170 607 c 0
 168 620 125 622 113 623 c 1
 110 630 116 654 121 660 c 1
 162 657 214 657 253 657 c 0
 292 657 348 660 385 664 c 1
 388 658 384 634 378 627 c 1
 366 626 322 622 315 609 c 0
 305 591 298 559 291 520 c 0
 291 520 291 509 293 509 c 0
 295 509 296 510 298 510 c 0
 312 513 343 513 364 513 c 0
EndSplineSet
Validated: 33
EndChar

StartChar: germandbls
Encoding: 223 223 157
Width: 527
Flags: W
HStem: -218 46<-76 3.00062> -4 34<306.786 371.763> 378 46<51.3211 107> 655 40<306.896 380.567>
VStem: 261 99<306.059 366.295> 382 91<61.9563 150.5> 400 107<491.815 637.081>
LayerCount: 2
Back
SplineSet
306 309 m 3
 306 398 446 422 446 566 c 1027
EndSplineSet
Fore
SplineSet
230 424 m 0xfa
 206 282 190 184 166 58 c 0
 134 -106 21 -218 -59 -218 c 0
 -93 -218 -122 -208 -133 -200 c 1
 -138 -192 -142 -180 -142 -167 c 0
 -142 -142 -127 -118 -104 -118 c 0
 -87 -118 -73 -127 -62 -142 c 0
 -53 -155 -43 -172 -25 -172 c 0
 14 -172 20 -105 51 54 c 1
 51 54 107 378 107 378 c 1
 107 378 42 378 42 378 c 2
 41 378 40 379 40 381 c 0
 40 391 65 424 88 424 c 2
 88 424 115 424 115 424 c 1
 147 588 288 695 368 695 c 0
 434 695 507 648 507 570 c 0xfa
 507 468 407 414 376 391 c 0
 363 382 360 371 360 361 c 3
 360 334 389 295 410 266 c 0
 449 213 473 174 473 127 c 0
 473 57 400 -4 321 -4 c 3
 261 -4 247 0 230 11 c 1
 224 16 213 29 213 52 c 0
 213 80 238 97 259 97 c 3
 296 97 291 30 340 30 c 0
 356 30 382 44 382 76 c 0xfc
 382 107 336 157 309 193 c 0
 280 232 261 264 261 310 c 0
 261 360 314 398 344 430 c 0
 359 446 400 492 400 556 c 0
 400 568 398 655 347 655 c 0
 289 655 253 563 230 424 c 0xfa
EndSplineSet
Validated: 1
EndChar

StartChar: ae
Encoding: 230 230 164
Width: 607
Flags: W
HStem: -8 70<63 178> -6 83<323 438.5> 188 38<360 401.561> 411 38<184.186 280.5 417.611 508.5>
VStem: 236 119<91.8924 188> 475 119<301.561 411.54>
LayerCount: 2
Back
Fore
SplineSet
449 412 m 0x3c
 401 412 365 277 360 226 c 1
 399 226 475 299 475 373 c 0
 475 391 471 412 449 412 c 0x3c
236 91 m 1
 233 106 234 186 240 209 c 1
 219 205 177 189 167 182 c 0
 152 172 131 146 128 124 c 1
 120 81 146 62 168 62 c 0xbc
 188 62 226 83 236 91 c 1
259 449 m 0
 302 449 336 427 354 391 c 1
 395 427 440 449 483 449 c 0
 534 449 594 427 594 357 c 0
 594 254 419 188 357 188 c 1
 356 185 355 168 355 163 c 0
 355 126 366 77 416 77 c 0
 461 77 514 139 517 142 c 1
 526 142 532 118 532 112 c 1
 519 90 409 -6 346 -6 c 0x7c
 300 -6 266 16 247 57 c 1
 232 46 126 -8 96 -8 c 0
 30 -8 -5 55 6 114 c 0
 14 153 43 186 67 194 c 0
 103 206 173 228 239 249 c 0
 244 251 245 254 246 263 c 2
 246 263 249 311 249 311 c 2
 250 319 250 328 250 336 c 0
 250 376 243 411 217 411 c 0
 184 411 168 372 150 327 c 0
 141 304 124 283 94 283 c 0
 71 283 51 303 56 331 c 0
 59 344 67 358 77 372 c 1
 91 385 182 449 259 449 c 0
EndSplineSet
Validated: 33
EndChar

StartChar: eth
Encoding: 240 240 174
Width: 463
VWidth: 0
UnlinkRmOvrlpSave: 1
Flags: W
HStem: -7 41<151.015 213.447> 409 40<220.012 297.078> 674 21<149.681 158.236>
LayerCount: 2
Back
Fore
SplineSet
173 509 m 17
 169 516 159 536 164 541 c 9
 414 705 l 17
 418 699 429 679 424 674 c 9
 173 509 l 17
145 674 m 1
 146 681 151 695 158 695 c 1
 298 656 465 509 417 263 c 0
 388 115 249 -7 159 -7 c 0
 37 -7 1 94 22 204 c 0
 43 312 165 449 271 449 c 0
 289 449 305 447 312 446 c 1
 312 508 290 598 145 674 c 1
285 217 m 0
 296 272 308 355 305 369 c 0
 297 405 274 409 260 409 c 0
 200 409 164 304 148 210 c 0
 131 112 137 34 173 34 c 0
 223 34 266 119 285 217 c 0
EndSplineSet
EndChar

StartChar: divide
Encoding: 247 247 181
Width: 535
VWidth: 0
Flags: W
HStem: 0 112<194.306 267.101> 223 51<49.5193 479.797> 385 112<267.306 340.101>
VStem: 179 104<15.7791 97.0155> 252 104<400.779 482.016>
CounterMasks: 1 e0
LayerCount: 2
Back
Fore
SplineSet
51 223 m 2xe0
 48 223 46 226 46 231 c 0
 46 244 51 261 61 274 c 1
 61 274 479 274 479 274 c 2
 481 274 482 271 482 266 c 0
 482 253 480 235 469 223 c 1
 469 223 51 223 51 223 c 2xe0
311 497 m 0
 337 497 356 477 356 450 c 0
 356 417 329 385 296 385 c 0
 270 385 252 406 252 433 c 0xe8
 252 466 278 497 311 497 c 0
238 112 m 0
 264 112 283 92 283 65 c 0
 283 32 256 0 223 0 c 0
 197 0 179 21 179 48 c 0xf0
 179 81 205 112 238 112 c 0
EndSplineSet
Validated: 1
EndChar

StartChar: oslash
Encoding: 248 248 182
Width: 455
Flags: W
HStem: -6 40<149.948 215.69> 409 40<220.831 285.47>
VStem: 15 125<55.3865 244.792> 296 125<195.799 392.267>
LayerCount: 2
Back
Fore
SplineSet
334 459 m 17
 340 459 361 455 362 449 c 9
 110 -19 l 17
 104 -20 86 -16 82 -8 c 9
 334 459 l 17
EndSplineSet
Refer: 79 111 N 1 0 0 1 0 0 3
Validated: 5
EndChar

StartChar: thorn
Encoding: 254 254 188
Width: 497
Flags: W
HStem: -219 32<-52.2744 -9.42481> -210 30<138.804 184.633> -5 44<177 250.887> 365 84<298.99 404> 633 29<97.8327 155.927> 677 20G<270 283.5>
VStem: 158 129<556.66 681> 341 129<221.407 360.245>
LayerCount: 2
Back
Fore
SplineSet
274 603 m 2xbf
 271 585 230 382 228 373 c 1
 256 404 321 449 372 449 c 0
 436 449 470 398 470 328 c 0
 470 160 302 -5 180 -5 c 0
 174 -5 162 -4 153 0 c 1
 153 0 127 -126 127 -126 c 2
 125 -135 124 -144 124 -154 c 0
 124 -159 128 -174 138 -177 c 0
 155 -181 182 -180 185 -180 c 0
 189 -181 186 -209 181 -211 c 1
 168 -211 157 -210 146 -210 c 0x7f
 95 -210 7 -212 -51 -219 c 1
 -56 -218 -54 -190 -49 -187 c 1
 -31 -187 -18 -182 -9 -171 c 0
 -2 -162 2 -151 7 -128 c 2
 7 -128 82 232 82 232 c 1
 82 232 34 184 34 184 c 1
 30 189 27 204 27 211 c 0
 27 222 36 234 42 239 c 2
 42 239 93 287 93 287 c 1
 93 287 149 561 149 561 c 2
 153 579 158 603 158 614 c 0
 158 633 113 633 97 633 c 1
 94 637 97 658 101 662 c 1
 156 667 259 689 281 697 c 1
 286 694 287 684 287 678 c 0
 287 670 279 627 274 603 c 2xbf
302 365 m 0
 272 365 242 345 220 323 c 1
 215 296 185 149 185 149 c 2
 170 72 182 39 208 39 c 0
 279 39 341 215 341 299 c 0
 341 332 334 365 302 365 c 0
EndSplineSet
Validated: 33
EndChar

StartChar: gravecomb
Encoding: 768 768 190
Width: 0
VWidth: 1002
GlyphClass: 4
Flags: W
HStem: 490 148
VStem: -346 172
LayerCount: 2
Back
Fore
SplineSet
-183 490 m 1
 -200 494 -346 562 -346 597 c 0
 -346 624 -318 638 -301 638 c 0
 -288 638 -274 635 -270 631 c 0
 -240 603 -177 512 -174 502 c 1
 -175 496 -180 492 -183 490 c 1
EndSplineSet
Validated: 1
EndChar

StartChar: acutecomb
Encoding: 769 769 191
Width: 0
VWidth: 1002
GlyphClass: 4
Flags: W
HStem: 490 148
VStem: -336 172
LayerCount: 2
Back
SplineSet
163 512 m 1
 160 514 155 518 154 524 c 1
 157 534 220 625 250 653 c 0
 254 657 272 660 284 660 c 0
 317 660 326 645 326 628 c 0
 326 600 180 516 163 512 c 1
EndSplineSet
Fore
SplineSet
-327 490 m 1
 -330 492 -335 496 -336 502 c 1
 -333 512 -270 603 -240 631 c 0
 -236 635 -222 638 -209 638 c 0
 -192 638 -164 624 -164 597 c 0
 -164 562 -310 494 -327 490 c 1
EndSplineSet
Validated: 1
EndChar

StartChar: uni2010
Encoding: 8208 8208 197
Width: 288
Flags: W
VStem: 64 257<206.461 266.565>
LayerCount: 2
Back
Fore
SplineSet
88 267 m 2
 315 279 l 2
 320 279 321 272 321 267 c 0
 321 254 305 205 295 204 c 10
 69 193 l 2
 66 193 64 200 64 208 c 0
 64 219 77 266 88 267 c 2
EndSplineSet
Validated: 1
EndChar

StartChar: uni2011
Encoding: 8209 8209 198
Width: 288
Flags: W
VStem: 64 257<206.461 266.565>
LayerCount: 2
Back
Fore
SplineSet
88 267 m 2
 315 279 l 2
 320 279 321 272 321 267 c 0
 321 254 305 205 295 204 c 10
 69 193 l 2
 66 193 64 200 64 208 c 0
 64 219 77 266 88 267 c 2
EndSplineSet
Validated: 1
EndChar

StartChar: figuredash
Encoding: 8210 8210 199
Width: 462
Flags: W
HStem: 194 74<71.5838 467.416>
LayerCount: 2
Back
Fore
SplineSet
470 268 m 2
 477 268 477 258 477 252 c 0
 477 230 460 199 455 194 c 9
 69 194 l 2
 62 194 62 204 62 210 c 0
 62 232 79 263 84 268 c 9
 470 268 l 2
EndSplineSet
Validated: 1
EndChar

StartChar: endash
Encoding: 8211 8211 200
Width: 462
Flags: W
HStem: 194 74<71.5838 467.416>
LayerCount: 2
Back
Fore
SplineSet
470 268 m 2
 477 268 477 258 477 252 c 0
 477 230 460 199 455 194 c 9
 69 194 l 2
 62 194 62 204 62 210 c 0
 62 232 79 263 84 268 c 9
 470 268 l 2
EndSplineSet
Validated: 1
EndChar

StartChar: emdash
Encoding: 8212 8212 201
Width: 824
Flags: W
HStem: 194 74<71.5838 820.416>
LayerCount: 2
Back
Fore
SplineSet
823 268 m 2
 830 268 830 258 830 252 c 0
 830 230 813 199 808 194 c 9
 69 194 l 2
 62 194 62 204 62 210 c 0
 62 232 79 263 84 268 c 9
 823 268 l 2
EndSplineSet
Validated: 1
EndChar

StartChar: afii00208
Encoding: 8213 8213 202
Width: 1005
Flags: W
HStem: 194 74<71.5838 1004.42>
LayerCount: 2
Back
Fore
SplineSet
1007 268 m 2
 1014 268 1014 258 1014 252 c 0
 1014 230 997 199 992 194 c 9
 69 194 l 2
 62 194 62 204 62 210 c 0
 62 232 79 263 84 268 c 9
 1007 268 l 2
EndSplineSet
Validated: 1
EndChar

StartChar: quoteleft
Encoding: 8216 8216 203
Width: 168
Flags: W
HStem: 474 232
VStem: 142 99<491.816 580.445>
LayerCount: 2
Back
Fore
SplineSet
142 555 m 0
 160 649 265 706 273 706 c 0
 280 706 287 699 289 688 c 1
 226 652 221 623 219 614 c 0
 214 588 220 572 227 560 c 0
 235 547 244 538 241 524 c 0
 236 500 204 474 174 474 c 0
 167 474 149 478 142 485 c 1
 136 498 136 525 142 555 c 0
EndSplineSet
Validated: 33
EndChar

StartChar: quoteright
Encoding: 8217 8217 204
Width: 175
Flags: W
HStem: 474 232
VStem: 175 99<599.555 688.184>
LayerCount: 2
Back
Fore
SplineSet
274 625 m 0
 256 531 151 474 143 474 c 0
 136 474 129 481 127 492 c 1
 190 528 195 557 197 566 c 0
 202 592 196 608 189 620 c 0
 181 633 172 642 175 656 c 0
 180 680 212 706 242 706 c 0
 249 706 267 702 274 695 c 1
 280 682 280 655 274 625 c 0
EndSplineSet
Validated: 33
EndChar

StartChar: quotesinglbase
Encoding: 8218 8218 205
Width: 180
Flags: W
HStem: -107 232
VStem: 50 98<7.57574 108.101>
LayerCount: 2
Back
Fore
SplineSet
149 44 m 0
 131 -50 25 -107 17 -107 c 0
 10 -107 3 -100 1 -89 c 1
 64 -53 69 -24 71 -15 c 0
 76 11 69 27 62 39 c 0
 54 52 47 61 50 75 c 0
 55 99 86 125 116 125 c 0
 123 125 141 121 148 114 c 1
 154 101 155 74 149 44 c 0
EndSplineSet
Validated: 33
EndChar

StartChar: quotedblleft
Encoding: 8220 8220 206
Width: 305
Flags: W
HStem: 474 232
VStem: 142 99<491.816 580.445> 280 98<490.899 588.652>
LayerCount: 2
Back
Fore
SplineSet
279 555 m 0
 297 649 403 706 411 706 c 0
 418 706 425 699 427 688 c 1
 364 652 359 623 357 614 c 0
 352 588 358 572 365 560 c 0
 373 547 381 538 378 524 c 0
 373 500 342 474 312 474 c 0
 305 474 287 478 280 485 c 1
 274 498 273 525 279 555 c 0
142 555 m 0
 160 649 265 706 273 706 c 0
 280 706 287 699 289 688 c 1
 226 652 221 623 219 614 c 0
 214 588 220 572 227 560 c 0
 235 547 244 538 241 524 c 0
 236 500 204 474 174 474 c 0
 167 474 149 478 142 485 c 1
 136 498 136 525 142 555 c 0
EndSplineSet
Validated: 33
EndChar

StartChar: quotedblright
Encoding: 8221 8221 207
Width: 313
Flags: W
HStem: 474 232
VStem: 175 99<599.555 688.184> 313 99<591.348 689.101>
LayerCount: 2
Back
Fore
SplineSet
274 625 m 0
 256 531 151 474 143 474 c 0
 136 474 129 481 127 492 c 1
 190 528 195 557 197 566 c 0
 202 592 196 608 189 620 c 0
 181 633 172 642 175 656 c 0
 180 680 212 706 242 706 c 0
 249 706 267 702 274 695 c 1
 280 682 280 655 274 625 c 0
412 625 m 0
 394 531 288 474 280 474 c 0
 273 474 266 481 264 492 c 1
 327 528 332 557 334 566 c 0
 339 592 333 608 326 620 c 0
 318 633 310 642 313 656 c 0
 318 680 349 706 379 706 c 0
 386 706 405 702 412 695 c 1
 418 682 418 655 412 625 c 0
EndSplineSet
Validated: 33
EndChar

StartChar: quotedblbase
Encoding: 8222 8222 208
Width: 319
Flags: W
HStem: -108 232
VStem: 50 99<17.5546 106.184> 188 99<6.57574 107.101>
LayerCount: 2
Back
Fore
SplineSet
149 43 m 0
 131 -51 26 -108 18 -108 c 0
 11 -108 4 -101 2 -90 c 1
 65 -54 70 -25 72 -16 c 0
 77 10 70 26 63 38 c 0
 55 51 47 60 50 74 c 0
 55 98 87 124 117 124 c 0
 124 124 142 120 149 113 c 1
 155 100 155 73 149 43 c 0
287 43 m 0
 269 -51 163 -108 155 -108 c 0
 148 -108 141 -101 139 -90 c 1
 202 -54 207 -25 209 -16 c 0
 214 10 207 26 200 38 c 0
 192 51 185 60 188 74 c 0
 193 98 224 124 254 124 c 0
 261 124 280 120 287 113 c 1
 293 100 293 73 287 43 c 0
EndSplineSet
Validated: 33
EndChar

StartChar: dagger
Encoding: 8224 8224 209
Width: 366
Flags: W
HStem: 432 91<134.058 185.829 369.939 419.191> 463 25<192.477 247.602 298.97 362.826> 642 20G<301.5 322>
VStem: 172 18<-23.1803 16.439>
LayerCount: 2
Back
Fore
SplineSet
236 488 m 8x70
 248 488 254 492 266 505 c 1
 272 538 275 606 261 625 c 1
 265 646 291 662 312 662 c 0
 332 662 351 646 347 625 c 1
 326 606 302 538 296 505 c 1
 303 492 308 488 320 488 c 0x70
 351 488 381 504 402 523 c 1
 422 523 433 497 429 476 c 0
 425 455 405 432 385 432 c 1xb0
 371 451 346 462 315 463 c 24
 301 463 286 447 284 435 c 1
 287 418 295 394 301 365 c 1
 254 227 247 185 190 -10 c 1
 186 -17 184 -23 179 -24 c 1
 175 -23 174 -15 172 -10 c 1
 191 185 200 227 206 365 c 1
 221 390 240 418 250 435 c 1
 252 447 245 463 231 463 c 24x70
 199 462 170 451 149 432 c 1
 129 432 119 455 123 476 c 0
 127 497 147 523 167 523 c 1xb0
 181 504 205 488 236 488 c 8x70
EndSplineSet
Validated: 33
EndChar

StartChar: daggerdbl
Encoding: 8225 8225 210
Width: 380
Flags: W
HStem: 115 91<78.7691 127.061 311.625 363.603> 150 25<134.889 198.03 248.892 305.139> 432 91<141.07 193.375 377.533 426.231> 463 25<198.912 255.459 306.02 370.187> 642 20G<308.5 329>
LayerCount: 2
Back
SplineSet
151 248 m 2
 158 248 159 253 159 275 c 2
 159 370 l 2
 159 375 156 379 151 379 c 0
 146 379 141 379 136 379 c 0
 98 379 73 376 31 374 c 1
 32 383 33 392 33 401 c 0
 33 412 32 424 31 435 c 1
 73 433 98 430 136 430 c 0
 141 430 146 430 151 430 c 0
 155 430 159 434 159 438 c 0
 159 513 154 554 150 629 c 1
 162 627 173 625 184 625 c 0
 195 625 207 627 219 629 c 1
 215 554 210 513 210 438 c 0
 210 434 214 430 218 430 c 2
 232 430 l 2
 270 430 296 433 338 435 c 1
 337 424 336 412 336 401 c 0
 336 392 337 383 338 374 c 1
 296 376 270 379 232 379 c 2
 218 379 l 2
 213 379 210 375 210 370 c 0
 210 332 210 294 210 256 c 0
 210 251 213 248 218 248 c 2
 338 253 l 1
 337 242 336 230 336 219 c 0
 336 210 337 200 338 191 c 1
 218 197 l 1
 213 196 211 192 210 186 c 1
 212 130 217 63 219 -10 c 1
 208 -6 195 -5 184 -5 c 0
 173 -5 162 -6 150 -10 c 1
 152 63 157 130 159 186 c 0
 159 191 156 197 151 197 c 2
 31 191 l 1
 32 200 33 210 33 219 c 0
 33 230 32 242 31 253 c 1
 151 248 l 2
EndSplineSet
Fore
SplineSet
290 273 m 1x18
 273 244 256 220 246 203 c 1
 244 191 253 175 267 175 c 24x58
 299 176 327 187 348 206 c 1
 368 206 379 183 375 162 c 0
 371 141 350 115 330 115 c 1x88
 316 134 293 150 262 150 c 0
 250 150 243 146 231 133 c 1
 225 100 221 32 235 13 c 1
 231 -8 206 -24 186 -24 c 0
 165 -24 146 -8 150 13 c 1
 171 32 195 100 201 133 c 1
 194 146 189 150 177 150 c 16x48
 146 150 116 134 95 115 c 1
 75 115 65 141 69 162 c 0
 73 183 93 206 113 206 c 1x88
 127 187 151 176 182 175 c 24
 196 175 211 191 213 203 c 1
 210 220 200 248 195 273 c 1
 210 285 229 312 231 320 c 1
 233 329 218 358 213 365 c 1
 228 390 248 418 258 435 c 1
 260 447 252 463 238 463 c 24x58
 206 462 178 451 157 432 c 1
 137 432 126 455 130 476 c 0
 134 497 154 523 174 523 c 1x28
 188 504 212 488 243 488 c 8
 255 488 261 492 273 505 c 1
 279 538 283 606 269 625 c 1
 273 646 298 662 319 662 c 0
 339 662 358 646 354 625 c 1
 333 606 309 538 303 505 c 1
 310 492 315 488 327 488 c 0x18
 358 488 389 504 410 523 c 1
 430 523 440 497 436 476 c 0
 432 455 412 432 392 432 c 1x28
 378 451 354 462 323 463 c 24
 309 463 293 447 291 435 c 1
 294 418 302 394 308 365 c 1
 300 358 275 328 273 320 c 1
 271 312 279 285 290 273 c 1x18
EndSplineSet
Validated: 33
EndChar

StartChar: bullet
Encoding: 8226 8226 211
Width: 377
Flags: W
HStem: 123 281<191.464 285.39>
VStem: 108 260
LayerCount: 2
Back
Fore
SplineSet
108 263 m 0
 123 340 194 404 266 404 c 0
 338 404 383 340 368 263 c 0
 353 186 283 123 211 123 c 0
 139 123 93 186 108 263 c 0
EndSplineSet
Validated: 33
EndChar

StartChar: perthousand
Encoding: 8240 8240 214
Width: 1006
Flags: W
HStem: -1 30<501.71 552.294 812.71 863.294> 271 29<537.334 583.939 846.775 895.434> 341 30<211.71 262.294> 613 29<245.775 294.434>
LayerCount: 2
Back
Fore
SplineSet
878 271 m 0
 824 271 796 159 801 86 c 0
 802 70 809 29 832 29 c 0
 886 29 913 142 908 210 c 0
 906 232 898 271 878 271 c 0
884 300 m 0
 944 300 993 279 999 200 c 0
 1006 105 909 -1 822 -1 c 0
 762 -1 714 33 710 97 c 0
 703 192 797 300 884 300 c 0
567 271 m 0
 513 271 485 159 490 86 c 0
 491 70 498 29 521 29 c 0
 575 29 602 142 597 210 c 0
 595 232 587 271 567 271 c 0
572 300 m 0
 632 300 682 279 688 200 c 0
 695 105 598 -1 511 -1 c 0
 451 -1 403 33 399 97 c 0
 392 192 485 300 572 300 c 0
277 613 m 0
 223 613 195 501 200 428 c 0
 201 412 208 371 231 371 c 0
 285 371 312 484 307 552 c 0
 305 574 297 613 277 613 c 0
283 642 m 0
 343 642 392 621 398 542 c 0
 405 447 308 341 221 341 c 0
 161 341 113 375 109 439 c 0
 102 534 196 642 283 642 c 0
628 618 m 2
 182 -14 l 1
 182 -14 148 -6 148 5 c 0
 148 7 149 9 150 11 c 26
 597 643 l 1
 597 643 629 634 629 623 c 0
 629 621 629 619 628 618 c 2
EndSplineSet
Validated: 33
EndChar

StartChar: minute
Encoding: 8242 8242 215
Width: 141
Flags: W
HStem: 484 215
VStem: 173 82<613.648 689.454>
LayerCount: 2
Back
Fore
SplineSet
220 699 m 0
 239 699 259 687 255 667 c 0
 246 620 180 528 149 494 c 0
 144 489 138 484 134 484 c 0
 128 484 125 489 126 496 c 0
 127 499 155 612 173 666 c 0
 177 678 202 699 220 699 c 0
EndSplineSet
Validated: 33
EndChar

StartChar: second
Encoding: 8243 8243 216
Width: 276
Flags: W
HStem: 484 215
VStem: 173 82<613.648 689.454> 298 82<613.648 689.454>
LayerCount: 2
Back
Fore
SplineSet
345 699 m 0
 364 699 384 687 380 667 c 0
 371 620 306 528 275 494 c 0
 270 489 264 484 260 484 c 0
 254 484 250 489 251 496 c 0
 252 499 280 612 298 666 c 0
 302 678 327 699 345 699 c 0
220 699 m 0
 239 699 259 687 255 667 c 0
 246 620 180 528 149 494 c 0
 144 489 138 484 134 484 c 0
 128 484 125 489 126 496 c 0
 127 499 155 612 173 666 c 0
 177 678 202 699 220 699 c 0
EndSplineSet
Validated: 33
EndChar

StartChar: uni2038
Encoding: 8248 8248 217
Width: 356
Flags: W
HStem: -61 174
VStem: 65 232
LayerCount: 2
Back
Fore
SplineSet
281 -61 m 0
 269 -61 221 -17 193 28 c 1
 151 -17 81 -61 69 -61 c 0
 62 -61 65 -37 65 -37 c 1
 72 -26 140 16 196 103 c 0
 200 110 198 113 205 113 c 0
 225 113 215 96 248 33 c 0
 261 9 296 -32 297 -36 c 1
 296 -39 288 -61 281 -61 c 0
EndSplineSet
Validated: 1
EndChar

StartChar: guilsinglleft
Encoding: 8249 8249 218
Width: 335
Flags: W
VStem: 110 254
LayerCount: 2
Back
Fore
SplineSet
303 92 m 1
 297 82 281 74 275 73 c 1
 271 77 216 154 110 233 c 1
 107 237 106 243 107 248 c 0
 108 253 112 259 116 263 c 1
 253 342 338 419 343 423 c 1
 348 422 362 414 364 404 c 1
 359 398 250 284 209 248 c 1
 236 212 300 98 303 92 c 1
EndSplineSet
Validated: 1
EndChar

StartChar: guilsinglright
Encoding: 8250 8250 219
Width: 461
Flags: W
VStem: 230 254
LayerCount: 2
Back
Fore
SplineSet
291 404 m 1
 297 414 313 422 319 423 c 1
 323 419 378 342 484 263 c 1
 487 259 488 253 487 248 c 0
 486 243 482 237 478 233 c 1
 341 154 256 77 251 73 c 1
 246 74 232 82 230 92 c 1
 235 98 344 212 385 248 c 1
 358 284 294 398 291 404 c 1
EndSplineSet
Validated: 1
EndChar

StartChar: uni203E
Encoding: 8254 8254 220
Width: 667
Flags: W
HStem: 733 74<85.5838 588.416>
LayerCount: 2
Back
Fore
SplineSet
591 807 m 2
 598 807 598 797 598 791 c 0
 598 769 581 738 576 733 c 9
 83 733 l 2
 76 733 76 743 76 749 c 0
 76 771 93 802 98 807 c 9
 591 807 l 2
EndSplineSet
Validated: 1
EndChar

StartChar: Euro
Encoding: 8364 8364 221
Width: 613
UnlinkRmOvrlpSave: 1
Flags: W
HStem: -7 44<300.019 459.176> 250 43<24.6355 373.873> 351 43<39.6355 388.873> 624 43<371.099 531.328>
VStem: 71 144<163.523 343.501> 599 34<480.548 544.905>
LayerCount: 2
Back
Fore
SplineSet
451 624 m 0
 324 624 215 478 215 268 c 0
 215 176 253 37 369 37 c 0
 423 37 463 56 493 81 c 0
 539 119 575 196 578 204 c 1
 592 204 603 199 609 192 c 1
 607 181 555 48 541 40 c 0
 485 9 427 -7 341 -7 c 0
 160 -7 71 142 71 276 c 0
 71 526 286 667 451 667 c 0
 512 667 593 650 646 638 c 1
 646 627 635 506 633 494 c 0
 632 488 622 480 611 480 c 3
 606 480 602 480 599 484 c 1
 597 523 569 624 451 624 c 0
41 351 m 2
 38 351 37 355 37 359 c 0
 37 366 43 388 50 394 c 1
 388 394 l 2
 390 394 391 390 391 386 c 0
 391 381 388 360 379 351 c 1
 41 351 l 2
26 250 m 2
 23 250 22 254 22 258 c 0
 22 265 28 287 35 293 c 1
 373 293 l 2
 375 293 376 289 376 285 c 0
 376 280 373 259 364 250 c 1
 26 250 l 2
EndSplineSet
EndChar

StartChar: arrowleft
Encoding: 8592 8592 222
Width: 717
Flags: W
HStem: 210 74<165 674.024>
LayerCount: 2
Back
Fore
SplineSet
202 319 m 2
 165 284 l 1
 679 284 l 2
 685 284 686 281 686 271 c 0
 686 261 672 219 660 210 c 1
 150 210 l 1
 173 177 l 2
 208 126 227 108 227 99 c 0
 227 85 193 74 189 73 c 1
 188 75 135 132 17 227 c 0
 14 228 13 235 13 238 c 0
 13 247 17 259 26 268 c 1
 163 347 253 419 258 423 c 1
 263 422 286 411 286 399 c 0
 286 395 283 395 202 319 c 2
EndSplineSet
Validated: 1
EndChar

StartChar: arrowup
Encoding: 8593 8593 223
Width: 334
Flags: W
VStem: 15 325
LayerCount: 2
Back
Fore
SplineSet
157 577 m 1
 119 540 l 1
 60 486 37 466 30 466 c 0
 19 466 15 496 15 502 c 1
 17 503 81 561 198 708 c 0
 201 713 206 714 212 714 c 0
 221 714 229 713 235 706 c 1
 283 575 337 505 340 500 c 1
 338 494 320 466 309 466 c 0
 302 466 289 486 251 540 c 2
 225 576 l 1
 105 -30 l 2
 104 -33 103 -36 92 -36 c 0
 75 -36 37 -22 37 -22 c 1
 157 577 l 1
EndSplineSet
Validated: 1
EndChar

StartChar: arrowright
Encoding: 8594 8594 224
Width: 704
Flags: W
HStem: 209 76<27.9756 537>
LayerCount: 2
Back
Fore
SplineSet
537 209 m 1
 23 209 l 2
 17 209 16 212 16 222 c 0
 16 232 30 276 42 285 c 1
 552 285 l 1
 527 319 l 0
 487 371 471 390 473 398 c 0
 475 410 505 422 511 423 c 1
 515 419 566 347 672 268 c 1
 677 260 676 251 674 241 c 0
 673 235 670 229 665 227 c 1
 510 132 445 75 444 73 c 1
 439 74 414 86 416 98 c 0
 418 106 440 125 500 177 c 0
 537 209 l 1
EndSplineSet
Validated: 33
EndChar

StartChar: arrowdown
Encoding: 8595 8595 225
Width: 341
Flags: W
HStem: -9 21G<123.5 131>
VStem: 0 325
LayerCount: 2
Back
Fore
SplineSet
115 129 m 1
 235 735 l 2
 236 738 237 741 248 741 c 0
 265 741 303 727 303 727 c 1
 183 128 l 1
 221 165 l 1
 280 219 303 239 310 239 c 0
 321 239 325 209 325 203 c 1
 323 202 259 144 142 -3 c 0
 139 -8 134 -9 128 -9 c 0
 119 -9 111 -8 105 -1 c 1
 57 130 3 200 0 205 c 1
 2 211 20 239 31 239 c 0
 38 239 51 219 89 165 c 2
 115 129 l 1
EndSplineSet
Validated: 1
EndChar

StartChar: universal
Encoding: 8704 8704 226
Width: 652
Flags: W
HStem: -4 21G<187 200> 390 60<228.001 368.001> 631 36<7.4834 49.0558 204.528 261.43 428.625 480.466 597.391 656.462>
LayerCount: 2
Back
Fore
SplineSet
178 4 m 1
 73 522 l 2
 67 559 63 577 59 597 c 0
 54 622 15 631 8 631 c 0
 5 631 6 641 7 647 c 0
 8 652 11 664 13 667 c 1
 50 665 93 659 134 659 c 0
 177 659 230 665 264 667 c 1
 268 662 262 631 257 631 c 0
 246 631 208 619 198 608 c 0
 196 605 194 603 193 597 c 0
 191 588 198 555 202 529 c 24
 207 500 214 455 214 455 c 1
 214 455 217 451 220 451 c 0
 255 449 288 450 311 450 c 0
 349 450 372 450 405 451 c 0
 408 451 412 454 413 456 c 1
 458 532 l 1
 474 556 487 577 490 594 c 0
 493 609 485 613 481 617 c 0
 470 628 433 633 426 633 c 0
 421 633 428 661 431 667 c 1
 468 665 491 661 532 661 c 0
 575 661 614 665 657 667 c 1
 658 665 658 658 657 652 c 0
 656 646 654 634 652 634 c 0
 641 634 581 610 568 592 c 0
 548 563 528 529 528 529 c 2
 256 77 l 0
 241 53 210 -4 190 -4 c 0
 184 -4 179 1 178 4 c 1
367 387 m 0
 349 389 321 390 300 390 c 0
 271 390 261 390 232 388 c 0
 230 388 228 383 228 383 c 1
 261 205 l 1
 368 383 l 1
 368 383 369 387 367 387 c 0
EndSplineSet
Validated: 33
EndChar

StartChar: partialdiff
Encoding: 8706 8706 227
Width: 460
Flags: W
HStem: 0 55<103.298 226.484> 317 53<180.32 272.749> 580 62<198.138 298.507>
VStem: 327 106<368.94 550.27>
LayerCount: 2
Back
SplineSet
278 317 m 0
 242 317 213 270 201 209 c 0
 178 91 206 55 245 55 c 0
 298 55 325 145 339 219 c 1
 355 303 313 317 278 317 c 0
346 642 m 3
 460.579 642 490.888 531.848 490.888 422 c 3
 490.888 188 378 0 208 0 c 0
 117 0 56 60 82 194 c 0
 101 294 204 370 303 370 c 0
 341 370 359 361 362 361 c 0
 366.472 361 370 364 372 369 c 0
 377.687 386.061 384.849 426.733 384.849 466 c 3
 384.849 495.778 381.214 524.748 370 542 c 0
 349 575 310 580 282 580 c 3
 243 580 208 552 180 534 c 1
 176 538 173 564 186 576 c 0
 220 606 288 642 346 642 c 3
EndSplineSet
Fore
SplineSet
220 317 m 0
 184 317 155 270 143 209 c 0
 120 91 148 55 187 55 c 0
 240 55 267 145 281 219 c 1
 297 303 255 317 220 317 c 0
288 642 m 3
 403 642 433 532 433 422 c 3
 433 188 320 0 150 0 c 0
 59 0 -2 60 24 194 c 0
 43 294 146 370 245 370 c 0
 283 370 301 361 304 361 c 0
 308 361 312 364 314 369 c 0
 320 386 327 427 327 466 c 3
 327 496 323 525 312 542 c 0
 291 575 252 580 224 580 c 3
 185 580 150 552 122 534 c 1
 118 538 115 564 128 576 c 0
 162 606 230 642 288 642 c 3
EndSplineSet
Validated: 33
EndChar

StartChar: uni2206
Encoding: 8710 8710 228
Width: 603
Flags: W
HStem: 0 76<95.8638 440.969>
LayerCount: 2
Back
Fore
SplineSet
444 83 m 2
 347 443 l 1
 344 446 339 447 335 441 c 2
 96 87 l 1
 93 80 96 76 101 76 c 2
 440 76 l 2
 444 76 445 79 444 83 c 2
411 613 m 1
 576 14 l 1
 576 14 569 8 566 0 c 1
 -3 0 l 1
 -6 6 -6 9 -8 16 c 1
 395 613 l 1
 411 613 l 1
EndSplineSet
Validated: 1
EndChar

StartChar: gradient
Encoding: 8711 8711 229
Width: 601
Flags: W
HStem: 566 76<153.955 502.136>
LayerCount: 2
Back
Fore
SplineSet
154 559 m 2
 252 199 l 1
 255 196 259 195 263 201 c 2
 502 555 l 1
 505 562 502 566 497 566 c 2
 159 566 l 2
 155 566 153 563 154 559 c 2
187 29 m 1
 23 628 l 1
 23 628 30 634 33 642 c 1
 601 642 l 1
 604 636 604 633 606 626 c 1
 203 29 l 1
 187 29 l 1
EndSplineSet
Validated: 1
EndChar

StartChar: element
Encoding: 8712 8712 230
Width: 438
Flags: W
HStem: 11 60<122.933 352> 189 61<102.955 360.004> 370 60<169.75 414>
LayerCount: 2
Back
Fore
SplineSet
362 220 m 0
 357 193 349 189 348 189 c 2
 95 189 l 2
 94 189 90 188 90 185 c 0
 89 122 119 71 181 71 c 2
 356 71 l 2
 356 71 369 64 362 29 c 0
 360 20 352 11 352 11 c 1
 171 11 l 2
 67 11 6 109 28 221 c 0
 49 330 142 430 243 430 c 2
 433 430 l 1
 433 430 437 421 435 409 c 0
 429 378 414 370 414 370 c 1
 232 370 l 2
 173 370 125 317 103 255 c 0
 102 252 104 250 107 250 c 2
 361 250 l 1
 361 249 365 237 362 220 c 0
EndSplineSet
Validated: 33
EndChar

StartChar: notelement
Encoding: 8713 8713 231
Width: 440
Flags: W
HStem: -10 21G<64.5 68> 11 60<139.564 353> 189 61<103.955 158 260 361.004> 370 60<170.75 288 389 415>
LayerCount: 2
Back
Fore
SplineSet
75 -8 m 1x70
 72 -10 70 -10 66 -10 c 0xb0
 63 -10 48 -6 39 10 c 0
 36 14 36 17 36 17 c 1
 36 17 65 58 65 58 c 1
 31 97 17 157 29 221 c 0
 50 330 143 430 244 430 c 2
 244 430 332 430 332 430 c 1
 332 430 370 484 370 484 c 1
 370 484 375 487 379 487 c 0
 390 487 399 479 405 470 c 0
 409 465 410 459 410 459 c 1
 410 459 389 430 389 430 c 1
 389 430 434 430 434 430 c 1
 434 430 438 421 436 409 c 0
 430 378 415 370 415 370 c 1
 415 370 346 370 346 370 c 1
 346 370 260 250 260 250 c 1
 260 250 362 250 362 250 c 1
 362 249 366 237 363 220 c 0
 358 193 350 189 349 189 c 2
 349 189 216 189 216 189 c 1
 216 189 139 81 139 81 c 1
 151 75 165 71 182 71 c 2
 182 71 357 71 357 71 c 1
 357 71 370 64 363 29 c 0
 361 20 353 11 353 11 c 1
 353 11 172 11 172 11 c 2
 145 11 121 18 101 29 c 1
 101 29 75 -8 75 -8 c 1x70
203 250 m 1
 203 250 288 370 288 370 c 1
 288 370 233 370 233 370 c 2
 174 370 126 317 104 255 c 0
 103 252 105 250 108 250 c 2
 108 250 203 250 203 250 c 1
106 115 m 1
 106 115 158 189 158 189 c 1
 158 189 96 189 96 189 c 2
 95 189 91 188 91 185 c 0
 91 159 96 134 106 115 c 1
EndSplineSet
Validated: 33
EndChar

StartChar: summation
Encoding: 8721 8721 232
Width: 571
Flags: W
HStem: 2 58<160.956 424.897> 2 29<-7.53125 27.7578> 608 48<302.159 484.365> 627 29<120.034 139.47>
VStem: 530 34<506.298 551.036>
LayerCount: 2
Back
Fore
SplineSet
464 0 m 1xa8
 363 0 188 2 103 2 c 0
 41 2 -8 -3 -8 -3 c 1
 -9 -1 -10 7 -8 15 c 0
 -6 23 -4 31 -2 31 c 0
 8 31 43 53 54 65 c 2
 54 65 271 306 271 306 c 2
 276 311 277 318 275 322 c 0
 267 342 208 490 156 592 c 0
 147 609 125 627 114 627 c 0
 112 627 112 634 113 641 c 0
 114 648 118 656 120 658 c 1
 120 658 166 656 228 656 c 0x58
 314 656 464 662 565 662 c 1
 562 612 564 556 564 511 c 1
 561 508 549 506 542 506 c 0
 535 506 531 508 530 513 c 0
 516 563 479 608 418 608 c 27
 398 608 392 608 366 608 c 0
 333 608 305 603 302 595 c 1
 302 595 409 360 409 360 c 1
 410 354 410 347 409 341 c 0
 408 336 405 332 402 329 c 0
 303 227 164 84 161 71 c 0
 160 64 162 60 225 60 c 0
 257 60 259 60 284 60 c 0
 332 60 391 65 421 80 c 0
 441 90 474 125 499 170 c 0
 501 174 506 176 513 176 c 0
 522 176 538 173 540 170 c 1
 512 116 479 44 464 0 c 1xa8
EndSplineSet
Validated: 33
EndChar

StartChar: minus
Encoding: 8722 8722 233
Width: 530
Flags: W
HStem: 209 74<43.2811 458>
LayerCount: 2
Back
Fore
SplineSet
30 219 m 1
 30 219 47 283 56 283 c 2
 481 283 l 2
 484 283 487 283 486 276 c 0
 484 268 474 232 466 215 c 0
 463 209 458 209 458 209 c 1
 34 209 l 1
 34 209 28 209 30 219 c 1
EndSplineSet
Validated: 1
EndChar

StartChar: uni2213
Encoding: 8723 8723 234
Width: 513
Flags: W
HStem: 213 72<35 195 280 437> 518 72<95 501.217>
LayerCount: 2
Back
Fore
SplineSet
262 210 m 2
 226 26 l 1
 226 26 210 16 167 10 c 0
 164 10 164 10 162 10 c 0
 156 10 157 13 158 17 c 2
 195 208 l 2
 195 210 195 213 190 213 c 2
 13 213 l 1
 13 213 7 213 9 223 c 0
 10 227 16 256 27 280 c 0
 30 286 35 285 35 285 c 1
 205 285 l 2
 208 285 211 289 211 291 c 2
 246 473 l 1
 246 473 246 478 252 480 c 0
 276 487 303 488 307 488 c 0
 316 488 315 482 315 482 c 1
 278 290 l 2
 277 287 277 285 280 285 c 2
 459 285 l 2
 463 285 466 285 465 278 c 0
 463 269 454 241 444 219 c 0
 441 213 437 213 437 213 c 1
 266 213 l 2
 263 213 262 212 262 210 c 2
511 590 m 1
 511 590 520 591 516 579 c 0
 500 531 492 521 489 518 c 1
 73 518 l 1
 73 518 65 517 70 531 c 0
 75 545 79 565 88 585 c 0
 91 591 95 590 95 590 c 1
 511 590 l 1
EndSplineSet
Validated: 1
EndChar

StartChar: radical
Encoding: 8730 8730 235
Width: 584
Flags: W
LayerCount: 2
Back
Fore
SplineSet
14 150 m 1
 3 157 -6 174 -4 185 c 0
 -1 198 12 205 23 212 c 0
 58 235 168 312 183 324 c 0
 192 331 208 332 209 324 c 1
 212 292 212 280 217 254 c 2
 259 47 l 1
 275 90 542 791 542 791 c 1
 594 784 l 1
 594 784 287 -25 239 -153 c 1
 222 -171 194 -180 188 -180 c 0
 184 -180 181 -179 180 -175 c 2
 97 196 l 1
 14 150 l 1
EndSplineSet
Validated: 33
EndChar

StartChar: proportional
Encoding: 8733 8733 236
Width: 640
Flags: W
HStem: 37 73<136.311 237.394 517.052 560.164> 352 74<172.867 274.147 550.147 631.182>
LayerCount: 2
Back
Fore
SplineSet
568 112 m 1
 576 112 576 101 574 90 c 0
 570 69 554 49 544 42 c 1
 422 42 379 162 369 162 c 2
 368 162 l 1
 306 99 237 37 146 37 c 0
 58 37 10 128 28 223 c 0
 49 332 152 426 253 426 c 0
 343 426 394 349 423 301 c 0
 424 299 427 298 428 300 c 0
 477 353 552 427 625 427 c 0
 632 427 635 396 631 373 c 0
 630 366 626 352 621 352 c 0
 617 352 612 352 605 352 c 0
 543 352 450 241 451 240 c 0
 466 210 497 112 568 112 c 1
112 229 m 0
 98 159 138 110 187 110 c 0
 248 110 313 187 341 218 c 0
 342 220 298 352 227 352 c 0
 177 352 125 297 112 229 c 0
EndSplineSet
Validated: 33
EndChar

StartChar: infinity
Encoding: 8734 8734 237
Width: 807
Flags: W
HStem: 39 74<133.222 239.941 522.875 625.953> 352 74<172.455 275.953 557.556 662.258>
LayerCount: 2
Back
Fore
SplineSet
606 357 m 0
 549 357 473 268 454 246 c 0
 453 245 453 245 454 244 c 0
 469 214 509 113 573 113 c 0
 620 113 670 166 683 233 c 0
 697 304 658 357 606 357 c 0
227 352 m 0
 177 352 125 297 112 229 c 0
 98 159 137 110 186 110 c 0
 247 110 312 187 340 218 c 0
 341 219 342 219 341 220 c 0
 331 244 292 352 227 352 c 0
252 426 m 0
 342 426 393 349 422 301 c 0
 423 299 427 298 428 300 c 0
 477 353 555 426 645 426 c 0
 733 426 786 337 768 242 c 0
 747 132 642 39 540 39 c 0
 418 39 378 162 368 162 c 2
 367 162 l 1
 305 99 237 37 146 37 c 0
 58 37 10 128 28 223 c 0
 49 332 151 426 252 426 c 0
EndSplineSet
Validated: 33
EndChar

StartChar: notequal
Encoding: 8800 8800 238
Width: 509
Flags: W
HStem: 109 72<39 145 253 430> 251 72<51.7465 246 355 458>
LayerCount: 2
Back
Fore
SplineSet
39 261 m 1
 39 261 56 323 65 323 c 2
 298 323 l 1
 367 420 l 1
 367 420 372 423 376 423 c 0
 387 423 395 415 401 406 c 0
 405 401 407 395 407 395 c 1
 355 323 l 1
 483 323 l 2
 485 323 487 322 486 318 c 0
 484 309 474 279 464 257 c 0
 461 251 458 251 458 251 c 1
 303 251 l 1
 253 181 l 1
 451 181 l 2
 455 181 459 183 458 176 c 0
 456 167 447 137 437 115 c 0
 434 109 430 109 430 109 c 1
 202 109 l 1
 136 16 l 1
 133 14 130 14 126 14 c 0
 123 14 108 18 99 34 c 0
 96 38 96 41 96 41 c 1
 145 109 l 1
 16 109 l 1
 16 109 10 109 12 119 c 0
 13 123 20 152 31 176 c 0
 34 182 39 181 39 181 c 1
 196 181 l 1
 246 251 l 1
 44 251 l 1
 44 251 37 251 39 261 c 1
EndSplineSet
Validated: 1
EndChar

StartChar: lessequal
Encoding: 8804 8804 239
Width: 472
Flags: W
HStem: 4 67<7.51428 383.059>
LayerCount: 2
Back
SplineSet
437 62 m 1
 437 62 445 63 441 51 c 0
 425 3 421 9 418 6 c 1
 63 6 l 1
 63 6 54 5 59 19 c 0
 64 33 66 37 75 57 c 0
 78 63 82 62 82 62 c 1
 437 62 l 1
137 342 m 2
 516 529 l 2
 518 530 520 531 521 531 c 0
 524 531 529 521 528 484 c 0
 528 478 524 475 524 475 c 1
 188 310 l 1
 464 142 l 1
 464 142 466 141 465 136 c 0
 464 129 447 86 441 86 c 0
 440 86 438 87 436 88 c 2
 125 279 l 2
 113 287 113 301 116 318 c 0
 118 329 127 337 137 342 c 2
EndSplineSet
Fore
SplineSet
21 71 m 1
 382 71 l 2
 388 71 390 59 390 53 c 3
 390 39 381 21 372 4 c 1
 7 4 l 2
 0 4 0 16 0 22 c 3
 0 36 11 59 21 71 c 1
462 529 m 17
 466 524 474 498 474 477 c 27
 474 472 473 466 469 464 c 2
 138 308 l 1
 413 149 l 1
 413 131 397 86 391 86 c 0
 389 86 385 86 382 88 c 2
 62 269 l 2
 54 274 45 292 45 302 c 0
 45 328 73 348 85 354 c 0
 225 420 315 461 462 529 c 17
EndSplineSet
Validated: 1
EndChar

StartChar: greaterequal
Encoding: 8805 8805 240
Width: 456
Flags: W
HStem: 4 67<5.36435 381.584>
LayerCount: 2
Back
Fore
SplineSet
18 71 m 1
 380 71 l 2
 386 71 388 59 388 53 c 3
 388 39 381 21 369 4 c 1
 5 4 l 2
 -2 4 -2 16 -2 22 c 3
 -2 36 9 59 18 71 c 1
23 86 m 17
 19 91 11 117 11 138 c 27
 11 143 12 149 16 151 c 2
 347 307 l 1
 72 466 l 1
 72 484 88 529 94 529 c 0
 96 529 100 529 103 527 c 2
 423 346 l 2
 431 341 440 323 440 313 c 0
 440 287 412 267 400 261 c 0
 260 195 170 154 23 86 c 17
EndSplineSet
Validated: 1
EndChar

StartChar: propersubset
Encoding: 8834 8834 241
Width: 437
Flags: W
HStem: 11 60<125.552 352> 370 60<169.75 414>
LayerCount: 2
Back
Fore
SplineSet
232 370 m 2
 173 370 110 309 93 220 c 0
 76 130 119 71 181 71 c 2
 356 71 l 2
 356 71 369 64 362 29 c 0
 360 20 352 11 352 11 c 1
 171 11 l 2
 67 11 6 109 28 221 c 0
 49 330 142 430 243 430 c 2
 433 430 l 1
 433 430 437 421 435 409 c 0
 429 378 414 370 414 370 c 1
 232 370 l 2
EndSplineSet
Validated: 33
EndChar

StartChar: uni0302
Encoding: 770 770 242
Width: 0
VWidth: 1022
GlyphClass: 4
Flags: W
HStem: 490 168
VStem: -373 221
LayerCount: 2
Back
Fore
SplineSet
-237 658 m 0
 -234 658 -230 656 -226 648 c 0
 -194 586 -160 528 -152 513 c 1
 -154 503 -159 492 -164 490 c 1
 -181 504 -230 546 -252 570 c 1
 -283 546 -347 502 -369 490 c 1
 -373 492 -375 503 -373 513 c 1
 -362 524 -296 595 -250 648 c 0
 -244 654 -241 658 -237 658 c 0
EndSplineSet
Validated: 1
EndChar

StartChar: tildecomb
Encoding: 771 771 243
Width: 0
VWidth: 995
GlyphClass: 4
Flags: W
HStem: 490 50<-227.567 -134.814> 533 50<-357.124 -262.393>
VStem: -396 301
LayerCount: 2
Back
Fore
SplineSet
-294 583 m 0x60
 -270 583 -253 576 -236 567 c 0
 -215 556 -199 540 -169 540 c 0xa0
 -136 540 -109 575 -102 583 c 1x60
 -99 582 -94 579 -95 571 c 0
 -97 555 -108 538 -117 528 c 0
 -144 500 -169 490 -197 490 c 0xa0
 -221 490 -236 496 -254 506 c 0
 -274 517 -293 533 -323 533 c 0x60
 -356 533 -383 498 -390 490 c 1xa0
 -393 491 -397 495 -396 503 c 0
 -394 519 -384 535 -375 545 c 0
 -348 573 -322 583 -294 583 c 0x60
EndSplineSet
Validated: 1
EndChar

StartChar: dotlessi
Encoding: 305 305 244
Width: 310
VWidth: 0
Flags: W
HStem: -8 86<106.5 208> 363 86<85 186>
VStem: 60 123<34.1714 189.984> 111 122<251.016 405.986>
LayerCount: 2
Back
Fore
SplineSet
106 309 m 2xe0
 107 313 111 337 111 342 c 0
 111 351 106 363 96 363 c 0
 74 363 28 308 25 302 c 1
 18 302 11 323 11 329 c 1
 28 361 112 449 166 449 c 0
 206 449 233 424 233 378 c 0xd0
 233 364 226 328 224 318 c 0
 224 318 187 132 187 132 c 2
 186 128 183 104 183 99 c 0
 183 90 187 78 197 78 c 0
 219 78 265 133 268 139 c 1
 275 139 282 118 282 112 c 1
 265 80 177 -8 123 -8 c 0
 90 -8 60 12 60 63 c 0
 60 77 67 115 69 123 c 1
 69 123 106 309 106 309 c 2xe0
EndSplineSet
Validated: 1
EndChar

StartChar: uni0304
Encoding: 772 772 245
Width: 0
VWidth: 968
GlyphClass: 4
Flags: W
HStem: 490 43<-370 -133.184>
VStem: -373 242<490.431 533>
LayerCount: 2
Back
Fore
SplineSet
-142 490 m 1
 -370 490 l 1
 -370 490 -373 493 -373 499 c 0
 -373 506 -365 533 -360 533 c 2
 -136 533 l 2
 -134 533 -131 530 -131 526 c 0
 -131 521 -134 499 -142 490 c 1
EndSplineSet
Validated: 1
EndChar

StartChar: uni0305
Encoding: 773 773 246
Width: 526
GlyphClass: 4
Flags: W
HStem: 734 72<142.678 674>
LayerCount: 2
Back
Fore
SplineSet
131 744 m 0
 131 746 146 806 156 806 c 2
 697 806 l 2
 699 806 703 805 701 797 c 0
 698 779 685 745 683 741 c 0
 680 735 674 734 674 734 c 1
 135 734 l 1
 135 734 129 734 131 744 c 0
EndSplineSet
Validated: 1
EndChar

StartChar: uni0306
Encoding: 774 774 247
Width: 0
VWidth: 994
GlyphClass: 4
Flags: W
HStem: 490 56<-297.199 -193.568>
VStem: -336 23<573.247 607.994> -151 18<591.269 609.513>
LayerCount: 2
Back
Fore
SplineSet
-244 546 m 0
 -207 546 -169 565 -151 608 c 0
 -151 610 -149 611 -147 611 c 0
 -141 611 -132 603 -133 598 c 0
 -133 597 -135 592 -135 590 c 0
 -154 537 -205 490 -255 490 c 0
 -305 490 -339 534 -336 591 c 0
 -336 593 -335 597 -335 598 c 0
 -334 603 -322 611 -316 611 c 0
 -314 611 -313 610 -313 608 c 0
 -312 565 -275 546 -244 546 c 0
EndSplineSet
Validated: 33
EndChar

StartChar: uni0307
Encoding: 775 775 248
Width: 0
VWidth: 968
GlyphClass: 4
Flags: W
HStem: 490 138<-287.443 -214>
VStem: -313 126<516.756 603.617>
LayerCount: 2
Back
Fore
SplineSet
-313 561 m 0
 -306 598 -272 628 -237 628 c 27
 -203 628 -180 598 -187 561 c 0
 -194 524 -227 490 -262 490 c 27
 -298 490 -320 524 -313 561 c 0
EndSplineSet
Validated: 33
EndChar

StartChar: uni0308
Encoding: 776 776 249
Width: 0
VWidth: 1049
GlyphClass: 4
Flags: W
HStem: 490 139<-359.141 -283.859 -183.712 -108.288>
VStem: -386 129<517.062 602.554> -211 130<517.062 602.554>
LayerCount: 2
Back
Fore
SplineSet
-132 629 m 0
 -96 629 -74 598 -81 560 c 0
 -88 522 -124 490 -160 490 c 0
 -196 490 -218 522 -211 560 c 0
 -204 598 -168 629 -132 629 c 0
-308 629 m 0
 -272 629 -250 598 -257 560 c 0
 -264 522 -299 490 -335 490 c 0
 -371 490 -393 522 -386 560 c 0
 -379 598 -344 629 -308 629 c 0
EndSplineSet
Validated: 33
EndChar

StartChar: hookabovecomb
Encoding: 777 777 250
Width: 0
GlyphClass: 4
Flags: W
HStem: 636 38<-264.862 -216.198>
VStem: -330 58<580.82 632.3> -310 44<499.931 514.906>
LayerCount: 2
Back
Fore
SplineSet
-218 674 m 0xc0
 -180 674 -159 649 -165 616 c 0
 -172 579 -200 553 -227 542 c 0
 -249 533 -262 528 -265 515 c 0
 -265 513 -266 510 -266 507 c 1
 -267 504 -291 498 -304 498 c 1
 -308 501 -311 512 -310 515 c 0xa0
 -305 543 -277 556 -259 564 c 0
 -236 574 -221 587 -217 606 c 0
 -215 618 -215 636 -234 636 c 0
 -255 636 -268 619 -272 600 c 0
 -275 583 -300 578 -313 578 c 0
 -321 578 -332 583 -330 595 c 0
 -320 646 -264 674 -218 674 c 0xc0
EndSplineSet
Validated: 33
EndChar

StartChar: uni030A
Encoding: 778 778 251
Width: 0
VWidth: 1004
GlyphClass: 4
Flags: W
HStem: 490 45<-299.445 -220.332> 643 44<-286.815 -207.601>
VStem: -346 184
LayerCount: 2
Back
Fore
SplineSet
-303 589 m 0
 -309 559 -292 535 -264 535 c 0
 -236 535 -210 559 -204 589 c 0
 -198 619 -215 643 -243 643 c 0
 -271 643 -297 619 -303 589 c 0
-346 589 m 0
 -336 643 -284 687 -234 687 c 0
 -184 687 -152 643 -162 589 c 0
 -172 535 -223 490 -273 490 c 0
 -323 490 -356 535 -346 589 c 0
EndSplineSet
Validated: 33
EndChar

StartChar: uni030C
Encoding: 780 780 253
Width: 0
VWidth: 1014
GlyphClass: 4
Flags: W
HStem: 490 168
VStem: -349 221
LayerCount: 2
Back
Fore
SplineSet
-264 490 m 0
 -267 490 -271 492 -275 500 c 0
 -307 562 -341 620 -349 635 c 1
 -347 645 -342 656 -337 658 c 1
 -320 644 -271 602 -249 578 c 1
 -218 602 -154 646 -132 658 c 1
 -128 656 -126 645 -128 635 c 1
 -139 624 -205 553 -251 500 c 0
 -257 494 -260 490 -264 490 c 0
EndSplineSet
Validated: 1
EndChar

StartChar: uni0312
Encoding: 786 786 254
Width: 131
GlyphClass: 4
Flags: W
VStem: 114 76<484.164 578.5>
LayerCount: 2
Back
Fore
SplineSet
223 635 m 1
 227 635 240 628 240 625 c 1
 233 623 190 591 190 566 c 0
 190 544 216 540 216 508 c 0
 216 481 184 467 154 466 c 0
 141 466 128 468 119 473 c 1
 115 480 114 487 114 495 c 0
 114 543 180 622 223 635 c 1
EndSplineSet
Validated: 1
EndChar

StartChar: uni0315
Encoding: 789 789 255
Width: 131
GlyphClass: 4
Flags: W
HStem: 454 227
VStem: 144 97<559.974 645.787> 165 76<539 664.339>
LayerCount: 2
Back
Fore
SplineSet
105 476 m 0xa0
 105 482 165 519 165 559 c 0xa0
 165 580 144 587 144 616 c 0xc0
 144 675 200 681 238 681 c 1
 240 675 241 665 241 654 c 0
 241 641 240 625 237 610 c 0
 225 546 166 478 125 454 c 1
 125 454 123 454 123 454 c 2
 117 454 105 469 105 476 c 0xa0
EndSplineSet
Validated: 1
EndChar

StartChar: uni0326
Encoding: 806 806 256
Width: 0
GlyphClass: 4
Flags: W
HStem: -218 162<-283.141 -267.352>
VStem: -284 97<-163.5 -82.7684>
LayerCount: 2
Back
Fore
SplineSet
-313 -101 m 0
 -313 -65 -244 -56 -199 -56 c 1
 -189 -67 -187 -81 -187 -103 c 0
 -187 -151 -273 -209 -317 -218 c 1
 -318 -218 -319 -218 -320 -218 c 0
 -327 -218 -341 -211 -341 -204 c 0
 -341 -201 -284 -176 -284 -151 c 0
 -284 -129 -313 -128 -313 -101 c 0
EndSplineSet
Validated: 1
EndChar

StartChar: uni0327
Encoding: 807 807 257
Width: 0
GlyphClass: 4
Flags: W
HStem: -163 23<-292.446 -232.91> -65 36<-240 -223.733>
VStem: -220 51<-125.661 -65.9999>
LayerCount: 2
Back
Fore
SplineSet
-246 -4 m 1
 -217 -4 l 9
 -240 -29 l 25
 -223 -29 l 2
 -198 -29 -169 -48 -169 -76 c 0
 -169 -126 -227 -163 -289 -163 c 3
 -302 -163 -326 -158 -332 -153 c 1
 -334 -151 -336 -147 -336 -144 c 0
 -336 -128 -327 -116 -317 -116 c 3
 -298 -116 -291 -140 -263 -140 c 3
 -238 -140 -220 -123 -220 -100 c 0
 -220 -77 -236 -65 -249 -65 c 0
 -260 -65 -267 -68 -278 -73 c 0
 -280 -73 -293 -66 -293 -61 c 0
 -293 -56 -273 -40 -246 -4 c 1
EndSplineSet
Validated: 1
EndChar

StartChar: gravecomb.cap
Encoding: 65536 -1 259
Width: 270
GlyphClass: 4
Flags: W
HStem: 731 118
VStem: 200 208
LayerCount: 2
Back
Fore
SplineSet
399 731 m 1
 384 733 200 777 200 817 c 0
 200 841 233 849 256 849 c 0
 270 849 293 846 302 841 c 0
 344 816 403 752 408 744 c 1
 408 740 403 734 399 731 c 1
EndSplineSet
Validated: 1
EndChar

StartChar: acutecomb.cap
Encoding: 65537 -1 260
Width: 225
GlyphClass: 4
Flags: W
HStem: 731 118
VStem: 157 208
LayerCount: 2
Back
Fore
SplineSet
166 731 m 1
 162 734 157 740 157 744 c 1
 162 752 221 816 263 841 c 0
 272 846 295 849 309 849 c 0
 332 849 365 841 365 817 c 0
 365 777 181 733 166 731 c 1
EndSplineSet
Validated: 1
EndChar

StartChar: uni0302.cap
Encoding: 65538 -1 261
Width: 353
GlyphClass: 4
Flags: W
HStem: 704 140
VStem: 182 259
LayerCount: 2
Back
Fore
SplineSet
334 844 m 0
 338 844 341 839 345 834 c 0
 367 805 418 744 441 720 c 1
 440 712 435 706 429 704 c 1
 418 707 347 744 320 764 c 1
 285 744 205 708 189 704 c 1
 185 706 181 714 182 720 c 1
 237 763 302 817 320 834 c 0
 326 840 331 844 334 844 c 0
EndSplineSet
Validated: 1
EndChar

StartChar: uni030A.cap
Encoding: 65539 -1 262
Width: 286
GlyphClass: 4
Flags: W
HStem: 660 45<257.555 336.668> 813 44<270.898 348.945>
VStem: 211 184
LayerCount: 2
Back
Fore
SplineSet
254 759 m 0
 248 729 265 705 293 705 c 0
 321 705 347 729 353 759 c 0
 359 789 342 813 314 813 c 0
 286 813 260 789 254 759 c 0
211 759 m 0
 221 813 272 857 322 857 c 0
 372 857 405 813 395 759 c 0
 385 705 334 660 284 660 c 0
 234 660 201 705 211 759 c 0
EndSplineSet
Validated: 33
EndChar

StartChar: tildecomb.cap
Encoding: 65540 -1 263
Width: 374
GlyphClass: 4
Flags: W
HStem: 728 50<355.285 464.515> 770 50<221.485 330.715>
VStem: 186 314
LayerCount: 2
Back
Fore
SplineSet
286 820 m 0x60
 311 820 327 817 349 804 c 0
 371 791 392 778 424 778 c 0xa0
 459 778 485 812 491 820 c 1x60
 494 819 500 814 500 806 c 0
 500 791 490 775 481 765 c 0
 455 738 430 728 400 728 c 0xa0
 375 728 359 731 337 744 c 0
 315 757 294 770 262 770 c 0x60
 227 770 201 736 195 728 c 1xa0
 192 729 186 734 186 742 c 0
 186 757 196 773 205 783 c 0
 231 810 256 820 286 820 c 0x60
EndSplineSet
Validated: 1
EndChar

StartChar: uni0304.cap
Encoding: 65541 -1 264
Width: 352
GlyphClass: 4
Flags: W
HStem: 557 43<168 419.816>
VStem: 165 257<557.431 600>
LayerCount: 2
Back
Fore
SplineSet
411 557 m 1
 168 557 l 1
 168 557 165 560 165 566 c 0
 165 573 173 600 178 600 c 2
 417 600 l 2
 419 600 422 597 422 593 c 0
 422 588 419 566 411 557 c 1
EndSplineSet
Validated: 1
EndChar

StartChar: uni0306.cap
Encoding: 65542 -1 265
Width: 231
GlyphClass: 4
Flags: W
HStem: 705 55<221.203 326.384>
VStem: 184 23<785.413 822.994> 369 18<806.216 824.513>
LayerCount: 2
Back
Fore
SplineSet
278 760 m 0
 312 760 351 780 369 823 c 0
 369 825 371 826 373 826 c 0
 379 826 388 818 387 813 c 0
 387 812 385 807 385 805 c 0
 366 752 315 705 265 705 c 0
 215 705 181 749 184 806 c 0
 184 808 185 812 185 813 c 0
 186 818 198 826 204 826 c 0
 206 826 207 825 207 823 c 0
 208 780 236 760 278 760 c 0
EndSplineSet
Validated: 33
EndChar

StartChar: uni0327.cap
Encoding: 65543 -1 266
Width: 406
GlyphClass: 4
Flags: W
HStem: -172 24<120.638 183.976> -69 39<176 193.604>
VStem: 197 55<-131.015 -70.4431>
LayerCount: 2
Back
Fore
SplineSet
170 -4 m 1
 201 -4 l 9
 176 -30 l 25
 194 -30 l 2
 220 -30 252 -50 252 -80 c 0
 252 -133 191 -172 125 -172 c 3
 111 -172 85 -167 79 -162 c 1
 77 -160 75 -155 75 -152 c 0
 75 -135 84 -123 95 -123 c 3
 115 -123 122 -148 152 -148 c 3
 178 -148 197 -130 197 -106 c 0
 197 -82 181 -69 167 -69 c 0
 155 -69 148 -72 136 -77 c 0
 134 -77 120 -69 120 -64 c 0
 120 -59 141 -42 170 -4 c 1
EndSplineSet
Validated: 1
EndChar

StartChar: uni0307.cap
Encoding: 65544 -1 267
Width: 203
GlyphClass: 4
Flags: W
HStem: 728 138<262.557 336>
VStem: 237 126<754.756 841.617>
LayerCount: 2
Back
Fore
SplineSet
237 799 m 0
 244 836 278 866 313 866 c 27
 347 866 370 836 363 799 c 0
 356 762 323 728 288 728 c 27
 252 728 230 762 237 799 c 0
EndSplineSet
Validated: 33
EndChar

StartChar: uni0323.cap
Encoding: 65545 -1 268
Width: 285
GlyphClass: 4
Flags: W
HStem: -180 148<81.25 157.75>
VStem: 51 137<-150.332 -61.6684>
LayerCount: 2
Back
Fore
SplineSet
51 -106 m 0
 59 -65 96 -32 134 -32 c 0
 172 -32 196 -65 188 -106 c 0
 180 -147 143 -180 105 -180 c 0
 67 -180 43 -147 51 -106 c 0
EndSplineSet
Validated: 33
EndChar

StartChar: uni030B.cap
Encoding: 65548 -1 271
Width: 432
GlyphClass: 4
Flags: W
HStem: 731 118
LayerCount: 2
Back
Fore
SplineSet
356 731 m 1
 352 734 347 740 347 744 c 1
 352 752 411 816 453 841 c 0
 462 846 485 849 499 849 c 0
 522 849 555 841 555 817 c 0
 555 777 371 733 356 731 c 1
166 731 m 1
 162 734 157 740 157 744 c 1
 162 752 221 816 263 841 c 0
 272 846 295 849 309 849 c 0
 332 849 365 841 365 817 c 0
 365 777 181 733 166 731 c 1
EndSplineSet
Validated: 1
EndChar

StartChar: uni0308.cap
Encoding: 65549 -1 272
Width: 417
GlyphClass: 4
Flags: W
HStem: 717 138<174.557 248 368.557 442>
VStem: 149 126<743.756 830.617> 343 126<743.756 830.617>
LayerCount: 2
Back
SplineSet
340.956 762 m 0
 345.956 790 370.956 812 396.956 812 c 0
 422.956 812 438.956 790 433.956 762 c 0
 428.956 734 403.956 712 377.956 712 c 0
 351.956 712 335.956 734 340.956 762 c 0
172.956 762 m 0
 177.956 790 202.956 812 228.956 812 c 0
 254.956 812 270.956 790 265.956 762 c 0
 260.956 734 234.956 712 208.956 712 c 0
 182.956 712 167.956 734 172.956 762 c 0
EndSplineSet
Fore
SplineSet
343 788 m 0
 350 825 384 855 419 855 c 27
 453 855 476 825 469 788 c 0
 462 751 429 717 394 717 c 27
 358 717 336 751 343 788 c 0
149 788 m 0
 156 825 190 855 225 855 c 27
 259 855 282 825 275 788 c 0
 268 751 235 717 200 717 c 27
 164 717 142 751 149 788 c 0
EndSplineSet
Validated: 33
EndChar

StartChar: uni0308.narrow
Encoding: 65550 -1 273
Width: 417
GlyphClass: 4
Flags: W
HStem: 443 138<152.557 226 330.557 404>
VStem: 127 126<469.756 556.617> 305 126<469.756 556.617>
LayerCount: 2
Back
Fore
SplineSet
305 514 m 0
 312 551 346 581 381 581 c 27
 415 581 438 551 431 514 c 0
 424 477 391 443 356 443 c 27
 320 443 298 477 305 514 c 0
127 514 m 0
 134 551 168 581 203 581 c 27
 237 581 260 551 253 514 c 0
 246 477 213 443 178 443 c 27
 142 443 120 477 127 514 c 0
EndSplineSet
Validated: 33
EndChar

StartChar: uni030C.cap
Encoding: 65551 -1 274
Width: 459
GlyphClass: 4
Flags: W
HStem: 730 140
VStem: 280 259
LayerCount: 2
Back
Fore
SplineSet
387 730 m 0
 383 730 380 735 376 740 c 0
 354 769 303 830 280 854 c 1
 281 862 286 868 292 870 c 1
 303 867 374 830 401 810 c 1
 436 830 516 866 532 870 c 1
 536 868 540 860 539 854 c 1
 484 811 419 757 401 740 c 0
 395 734 390 730 387 730 c 0
EndSplineSet
Validated: 1
EndChar

StartChar: Aogonek
Encoding: 260 260 377
Width: 620
Flags: W
HStem: -218 62<288.5 372.711> -4 37<-58.5157 -2.04391 89.4486 143.56 533.633 581.23> 225 48<197 353.999> 642 20G<391 400>
VStem: 248 61<-173.5 -83.6818>
LayerCount: 2
Back
Fore
SplineSet
455 4 m 0
 392 4 309 -59 309 -122 c 0
 309 -146 320 -156 345 -156 c 0
 387 -156 412 -125 419 -120 c 1
 426 -122 424 -142 422 -146 c 0
 399 -185 350 -218 308 -218 c 0
 269 -218 248 -187 248 -160 c 0
 248 -94 291 -54 334 -7 c 0
 362 23 390 41 390 81 c 0
 390 90 364 220 364 220 c 1
 364 220 362 224 359 224 c 0
 324 226 293 225 270 225 c 0
 232 225 206 225 173 224 c 0
 170 224 166 221 165 219 c 1
 165 219 131 163 115 135 c 0
 101 110 83 74 82 67 c 0
 77 41 140 33 147 33 c 1
 151 26 144 0 140 -4 c 1
 108 0 82 4 41 4 c 0
 -2 4 -28 0 -61 -4 c 1
 -64 0 -62 21 -56 32 c 1
 -45 32 3 48 15 64 c 0
 36 92 44 106 61 134 c 2
 355 624 l 2
 363 637 386 662 396 662 c 0
 404 662 413 658 414 655 c 1
 507 148 l 2
 513 117 515 97 519 76 c 0
 527 35 577 33 584 33 c 1
 587 24 582 0 578 -4 c 1
 541 -2 496 4 455 4 c 0
315 476 m 1
 197 280 l 1
 197 280 197 276 199 276 c 0
 217 274 254 273 275 273 c 0
 304 273 321 273 350 275 c 0
 352 275 354 280 354 280 c 1
 315 476 l 1
EndSplineSet
Validated: 33
EndChar

StartChar: aogonek
Encoding: 261 261 378
Width: 489
Flags: W
HStem: -218 62<235.5 319.711> -7 88<69 190> 394 55<228.816 336>
VStem: 11 126<86.0352 221.784> 195 61<-173.5 -89.7244>
LayerCount: 2
Back
Fore
SplineSet
262 394 m 0
 194 394 137 270 137 152 c 0
 137 104 151 81 173 81 c 0
 207 81 257 182 277 281 c 2
 297 382 l 1
 290 390 276 394 262 394 c 0
458 112 m 1
 449 95 419 62 385 34 c 0
 324 -16 256 -67 256 -122 c 0
 256 -146 267 -156 292 -156 c 0
 334 -156 359 -125 366 -120 c 1
 373 -122 371 -142 369 -146 c 0
 346 -185 297 -218 255 -218 c 0
 216 -218 195 -187 195 -160 c 0
 195 -96 246 -52 288 -7 c 1
 258 -3 237 18 237 58 c 0
 237 62 238 70 239 77 c 0
 240 85 242 92 243 96 c 1
 222 59 157 -7 97 -7 c 0
 41 -7 11 47 11 115 c 0
 11 294 191 449 318 449 c 0
 354 449 405 438 425 431 c 1
 363 132 l 2
 362 128 359 104 359 99 c 0
 359 90 363 78 373 78 c 0
 395 78 441 133 444 139 c 1
 451 139 458 118 458 112 c 1
EndSplineSet
Validated: 1
EndChar

StartChar: Eogonek
Encoding: 280 280 379
Width: 573
Flags: W
HStem: -218 62<272.5 356.711> -3 37<-4.59805 62.512> -2 44<208.668 353 372.659 404.762> 310 47<260.968 385.521> 620 37<119.098 170.741 312.338 486.305>
VStem: 232 61<-173.5 -88.7564> 407 29<234.175 275.196> 444 29<399.002 434.894> 519 36<511.277 581.026>
LayerCount: 2
Back
Fore
SplineSet
232 -160 m 0xbf80
 232 -101 283 -31 353 -1 c 1
 286 -1 197 -2 124 -2 c 0xbf80
 57 -2 4 -3 -8 -3 c 1
 -11 3 -7 27 -1 34 c 1xdf80
 11 35 55 38 62 51 c 0
 73 71 79 102 87 145 c 2
 87 145 159 513 159 513 c 2
 167 556 174 587 170 607 c 0
 168 620 125 622 113 623 c 1
 110 630 116 654 121 660 c 1
 162 657 214 657 253 657 c 0
 292 657 502 663 557 664 c 1
 554 614 555 561 555 516 c 1
 552 513 539 511 532 511 c 0
 525 511 520 514 519 519 c 0
 510 574 495 620 438 620 c 2
 438 620 361 620 361 620 c 2
 340 620 319 619 312 608 c 0
 305 596 302 576 296 547 c 2
 296 547 261 368 261 368 c 2
 260 362 279 357 299 357 c 2
 299 357 348 357 348 357 c 2
 403 357 418 369 444 427 c 0
 446 432 449 435 456 435 c 0
 463 435 471 433 473 430 c 1
 473 430 436 238 436 238 c 1
 434 236 425 234 418 234 c 0
 411 234 407 237 407 242 c 0
 405 290 394 299 386 303 c 0
 376 308 352 310 317 310 c 0
 291 310 249 308 247 296 c 2
 247 296 217 141 217 141 c 2
 216 135 205 82 209 62 c 0
 212 48 241 42 265 42 c 2
 265 42 327 42 327 42 c 2
 362 42 394 52 420 75 c 0
 444 96 463 125 488 170 c 0
 490 174 496 176 503 176 c 0
 512 176 527 173 529 170 c 1
 501 116 461 42 446 -2 c 1
 375 -2 293 -69 293 -122 c 0
 293 -146 304 -156 329 -156 c 0
 371 -156 396 -125 403 -120 c 1
 410 -122 408 -142 406 -146 c 0
 383 -185 334 -218 292 -218 c 0
 253 -218 232 -187 232 -160 c 0xbf80
EndSplineSet
Validated: 33
EndChar

StartChar: eogonek
Encoding: 281 281 380
Width: 394
Flags: W
HStem: -218 62<102.5 186.711> -6 21G<95.5 134.5> 188 38<145 186.561> 412 37<205.991 293.5>
VStem: 16 124<91.9422 188.325> 62 61<-173.5 -87.0578> 260 119<301.561 411.59>
LayerCount: 2
Back
Fore
SplineSet
145 226 m 1xf2
 184 226 260 299 260 373 c 0
 260 400 256 412 234 412 c 0
 186 412 150 277 145 226 c 1xf2
62 -160 m 0xf6
 62 -102 109 -49 149 -4 c 1
 142 -6 138 -6 131 -6 c 0
 60 -6 16 47 16 140 c 0
 16 288 153 449 268 449 c 0
 319 449 379 427 379 357 c 0
 379 254 204 188 142 188 c 1
 141 185 140 168 140 163 c 0xfa
 140 126 151 77 201 77 c 0
 246 77 299 139 302 142 c 1
 311 142 317 118 317 112 c 1
 311 102 286 78 254 53 c 0
 187 1 123 -67 123 -122 c 0
 123 -146 134 -156 159 -156 c 0
 201 -156 226 -125 233 -120 c 1
 240 -122 238 -142 236 -146 c 0
 213 -185 164 -218 122 -218 c 0
 83 -218 62 -187 62 -160 c 0xf6
EndSplineSet
Validated: 1
EndChar

StartChar: Iogonek
Encoding: 302 302 382
Width: 353
Flags: W
HStem: -218 62<52.5 136.711> -4 37<-4.72067 60.8919 207.001 258.76> 625 37<117.587 169.999 315.002 381.598>
VStem: 12 61<-173.5 -87.6496>
LayerCount: 2
Back
Fore
SplineSet
263 33 m 1
 266 26 261 2 256 -4 c 1
 247 -4 216 -3 192 -6 c 0
 141 -12 73 -69 73 -122 c 0
 73 -146 84 -156 109 -156 c 0
 151 -156 176 -125 183 -120 c 1
 190 -122 188 -142 186 -146 c 0
 163 -185 114 -218 72 -218 c 0
 33 -218 12 -187 12 -160 c 0
 12 -82 92 -15 129 4 c 1
 91 4 25 0 -9 -4 c 1
 -12 2 -7 26 -1 33 c 1
 11 34 55 38 62 51 c 0
 73 71 79 102 87 145 c 2
 159 513 l 2
 167 556 174 587 170 607 c 0
 168 620 126 624 114 625 c 1
 111 632 116 656 121 662 c 1
 156 658 214 655 253 655 c 0
 292 655 348 658 385 662 c 1
 388 656 384 632 378 625 c 1
 366 624 322 620 315 607 c 0
 304 587 297 556 289 513 c 2
 218 145 l 2
 210 102 203 71 207 51 c 0
 209 38 251 34 263 33 c 1
EndSplineSet
Validated: 33
EndChar

StartChar: iogonek
Encoding: 303 303 383
Width: 311
VWidth: 0
Flags: W
HStem: -218 62<61.5 145.711> 363 86<86 187> 540 147<163.393 244.607>
VStem: 21 61<-173.5 -90.7955> 112 122<251.016 405.986> 136 136<567.686 659.998>
LayerCount: 2
Back
Fore
SplineSet
214 687 m 0xf4
 248 687 272 660 272 625 c 0
 272 581 236 540 194 540 c 0
 160 540 136 568 136 603 c 0
 136 647 172 687 214 687 c 0xf4
283 112 m 1
 273 93 235 56 201 27 c 0
 145 -21 82 -70 82 -122 c 0
 82 -146 93 -156 118 -156 c 0
 160 -156 185 -125 192 -120 c 1
 199 -122 197 -142 195 -146 c 0
 172 -185 123 -218 81 -218 c 0
 42 -218 21 -187 21 -160 c 0
 21 -97 72 -52 114 -7 c 1
 85 -3 61 17 61 63 c 0
 61 77 68 115 70 123 c 2
 70 123 107 309 107 309 c 2
 108 313 112 337 112 342 c 0
 112 351 107 363 97 363 c 0
 75 363 29 308 26 302 c 1
 19 302 12 323 12 329 c 1
 29 361 113 449 167 449 c 0
 207 449 234 424 234 378 c 0xf8
 234 364 227 328 225 318 c 2
 225 318 188 132 188 132 c 2
 187 128 184 104 184 99 c 0
 184 90 188 78 198 78 c 0
 220 78 266 133 269 139 c 1
 276 139 283 118 283 112 c 1
EndSplineSet
Validated: 1
EndChar

StartChar: Uogonek
Encoding: 370 370 384
Width: 692
Flags: W
HStem: -218 62<293.5 377.711> -9 72<268.809 378.534> 625 37<98.5874 150.999 296.002 362.598 528.587 587.18 679.268 753.598>
VStem: 253 61<-173.5 -91.6884>
LayerCount: 2
Back
Fore
SplineSet
314 -122 m 0
 314 -146 325 -156 350 -156 c 0
 392 -156 417 -125 424 -120 c 1
 431 -122 429 -142 427 -146 c 0
 404 -185 355 -218 313 -218 c 0
 274 -218 253 -187 253 -160 c 0
 253 -98 308 -48 349 -3 c 1
 329 -7 308 -9 287 -9 c 0
 209 -9 141 19 108 79 c 0
 81 128 79 197 99 301 c 2
 140 513 l 2
 148 556 155 587 151 607 c 0
 149 620 107 624 95 625 c 1
 92 632 97 656 102 662 c 1
 137 658 195 655 234 655 c 0
 273 655 329 658 366 662 c 1
 369 656 365 632 359 625 c 1
 347 624 303 620 296 607 c 0
 285 587 278 556 270 513 c 2
 235 330 l 2
 222 262 214 212 225 159 c 0
 243 71 312 63 348 63 c 0
 422 63 512 134 546 309 c 2
 579 479 l 2
 587 522 594 581 590 601 c 0
 586 620 537 624 525 625 c 1
 522 632 527 656 532 662 c 1
 575 658 604 655 647 655 c 0
 688 655 718 660 757 662 c 1
 760 656 756 632 750 625 c 1
 738 624 686 622 674 601 c 0
 663 581 645 523 637 480 c 2
 599 286 l 2
 574 161 513 78 438 33 c 0
 389 3 314 -70 314 -122 c 0
EndSplineSet
Validated: 33
EndChar

StartChar: uogonek
Encoding: 371 371 385
Width: 534
Flags: W
HStem: -218 62<281.5 365.711> -8 110<100.5 215.5> 363 86<81 182>
VStem: 63 122<42.0872 209.368> 107 122<248.099 405.986> 241 61<-173.5 -89.7244>
LayerCount: 2
Back
Fore
SplineSet
241 -160 m 0xf4
 241 -96 292 -52 334 -7 c 1
 304 -3 282 19 282 59 c 0
 282 66 285 91 289 113 c 0
 293 134 298 155 301 166 c 1
 263 85 169 -8 126 -8 c 3
 75 -8 63 17 63 78 c 0xf4
 63 110 77 178 82 204 c 8
 90 245 96 268 102 309 c 18
 103 313 107 337 107 342 c 0
 107 351 102 363 92 363 c 0
 70 363 24 308 21 302 c 1
 14 302 7 323 7 329 c 1
 24 361 108 449 162 449 c 0
 202 449 229 424 229 378 c 0xec
 229 364 222 328 220 318 c 0
 218 306 197 199 197 199 c 2
 195 187 185 133 185 123 c 0
 185 113 190 102 201 102 c 0
 230 102 313 249 338 372 c 10
 338 372 352 441 352 441 c 17
 362 444 397 447 408 447 c 0
 419 447 455 444 467 441 c 1
 467 441 409 132 409 132 c 2
 408 127 405 104 405 99 c 0
 405 90 409 78 419 78 c 0
 441 78 487 133 490 139 c 1
 497 139 504 118 504 112 c 1
 495 95 465 62 431 34 c 0
 370 -16 302 -67 302 -122 c 0
 302 -146 313 -156 338 -156 c 0
 380 -156 405 -125 412 -120 c 1
 419 -122 417 -142 415 -146 c 0
 392 -185 343 -218 301 -218 c 0
 262 -218 241 -187 241 -160 c 0xf4
EndSplineSet
Validated: 1
EndChar

StartChar: dcroat
Encoding: 273 273 386
Width: 480
Flags: W
HStem: -7 88<68 189 287 383> 394 55<261 310> 517 39<195.682 510.88> 632 29<280.833 338.927> 676 20<453 466.5>
VStem: 10 126<86.0352 222.076> 341 129<557.234 680>
LayerCount: 2
Back
Fore
SplineSet
204 556 m 1
 232 556 496 556 509 556 c 0
 513 556 515 552 514 548 c 0
 513 543 508 524 503 517 c 1
 475 517 210 517 197 517 c 0
 193 517 193 524 194 528 c 0
 195 533 197 549 204 556 c 1
EndSplineSet
Refer: 68 100 N 1 0 0 1 0 0 2
Validated: 5
EndChar

StartChar: hbar
Encoding: 295 295 387
Width: 504
Flags: W
HStem: -8 86<303.5 405> 339 110<270.5 379> 517 39<63.6816 378.88> 632 29<70.8327 128.927> 676 20<243 256.5>
VStem: 131 129<584.426 680> 257 123<34.1714 191.883> 301 122<220.031 398.174>
LayerCount: 2
Back
Fore
SplineSet
72 556 m 1xf8
 100 556 364 556 377 556 c 0
 381 556 383 552 382 548 c 0
 381 543 376 524 371 517 c 1
 343 517 78 517 65 517 c 0
 61 517 61 524 62 528 c 0
 63 533 65 549 72 556 c 1xf8
EndSplineSet
Refer: 72 104 N 1 0 0 1 0 0 3
Validated: 5
EndChar

StartChar: Hbar
Encoding: 294 294 388
Width: 707
Flags: W
HStem: -4 37<-4.72067 61.9979 207.001 259.413 349.402 415.998 561.001 613.413> 317 51<263 473> 477 39<98.0742 697.899> 625 37<117.587 169.999 315.002 381.598 471.587 523.999 669.002 735.598>
LayerCount: 2
Back
Fore
SplineSet
107 516 m 1
 132 516 686 516 698 516 c 0
 701 516 702 512 701 508 c 0
 700 503 695 485 690 477 c 1
 665 477 110 477 98 477 c 0
 95 477 95 484 96 488 c 0
 97 493 100 508 107 516 c 1
EndSplineSet
Refer: 40 72 N 1 0 0 1 0 0 3
Validated: 5
EndChar

StartChar: uni0237
Encoding: 567 567 391
Width: 286
VWidth: 0
Flags: W
HStem: -218 22<-85.0631 -78.3737> 363 86<95 196>
VStem: 121 122<282.72 405.986>
LayerCount: 2
Back
Fore
SplineSet
116 309 m 2
 117 313 121 337 121 342 c 0
 121 351 116 363 106 363 c 0
 84 363 38 308 35 302 c 1
 28 302 21 323 21 329 c 1
 38 361 122 449 176 449 c 0
 216 449 243 424 243 378 c 0
 243 364 236 328 234 318 c 0
 234 318 211 195 196 120 c 0
 180 36 150 -20 109 -75 c 0
 66 -132 -51 -210 -79 -218 c 1
 -84 -218 -88 -205 -88 -196 c 1
 17 -115 47 -49 76 100 c 0
 116 309 l 2
EndSplineSet
Validated: 1
EndChar

StartChar: Lslash
Encoding: 321 321 392
Width: 548
Flags: W
HStem: -3 37<-3.59805 63.512> -2 44<209.668 405.762> 430 20G<392.917 426> 625 37<118.587 170.999 316.002 382.598>
LayerCount: 2
Back
Fore
SplineSet
51 210 m 2x30
 51 210 424 450 424 450 c 1
 428 445 440 419 436 416 c 2
 436 416 63 178 63 178 c 1
 59 184 47 207 51 210 c 2x30
EndSplineSet
Refer: 44 76 N 1 0 0 1 1 0 2
Validated: 37
EndChar

StartChar: lslash
Encoding: 322 322 393
Width: 285
Flags: W
HStem: -8 86<98.5 200> 632 29<94.8327 152.927> 676 20<267 280.5>
VStem: 52 123<34.1714 191.016> 155 129<558.971 680>
LayerCount: 2
Back
Fore
SplineSet
33 290 m 2xe0
 33 290 268 439 268 439 c 1
 271 434 281 413 276 410 c 2
 276 410 40 260 40 260 c 1
 36 266 28 287 33 290 c 2xe0
EndSplineSet
Refer: 76 108 N 1 0 0 1 21 0 2
Validated: 5
EndChar

StartChar: kgreenlandic
Encoding: 312 312 394
Width: 535
VWidth: 0
Flags: W
HStem: -4 86<330.086 429.297> 363 86<85 186> 374 75<327.91 437>
VStem: 361 129<323.305 400>
LayerCount: 2
Back
Fore
SplineSet
106 309 m 2xb0
 107 313 111 337 111 342 c 0
 111 351 106 363 96 363 c 0
 74 363 28 308 25 302 c 1
 18 302 11 323 11 329 c 1
 28 361 112 449 166 449 c 0xd0
 206 449 233 424 233 378 c 0
 233 366 232 358 231 348 c 0
 231 346 230 343 230 341 c 1
 242 367 324 449 408 449 c 3
 466 449 490 423 490 377 c 0
 490 311 393 255 318 230 c 1
 335 182 379 82 422 82 c 0
 446 82 482 127 490 138 c 1
 500 138 504 117 504 112 c 1
 494 85 413 -4 353 -4 c 0
 276 -4 224 137 203 208 c 1
 188 133 162 0 162 0 c 17
 152 -3 117 -6 106 -6 c 0
 95 -6 59 -3 47 0 c 1
 53 31 106 309 106 309 c 2xb0
333 374 m 3xb0
 274 374 211 272 211 248 c 1
 273 248 361 288 361 342 c 3
 361 352 356 374 333 374 c 3xb0
EndSplineSet
Validated: 1
EndChar

StartChar: Eng
Encoding: 330 330 395
Width: 714
Flags: W
HStem: -218 24<260.691 277.994> -4 37<-12.9259 59.9346 153.197 215.766> 4 29<-14.0089 53.5625> 625 38<113.65 166.608 535.955 601.154 683.441 763.979> 625 30<540.958 599.252 687.887 766.432>
LayerCount: 2
Back
Fore
SplineSet
479 69 m 1x90
 479 69 226 519 226 519 c 1
 226 519 156 157 156 157 c 2
 149 121 145 74 147 60 c 0
 150 41 212 34 219 34 c 1
 223 24 216 2 213 -4 c 1xd0
 176 -2 138 4 97 4 c 0xa0
 54 4 25 -2 -18 -4 c 1
 -21 5 -12 33 -10 33 c 0
 1 33 58 41 69 59 c 0
 78 74 93 122 100 160 c 0
 125 291 144 383 169 514 c 0
 174 542 177 585 169 604 c 0
 163 617 123 625 112 625 c 0
 107 625 111 657 117 662 c 1
 145 660 178 655 221 655 c 0xc8
 254 655 293 658 324 662 c 1
 344 584 457 401 542 248 c 1
 545 255 549 275 552 289 c 2
 552 289 588 476 588 476 c 2
 595 514 607 589 603 604 c 0
 599 622 543 626 532 626 c 0
 530 626 533 654 539 663 c 1x90
 581 661 608 655 651 655 c 0x88
 692 655 732 661 770 663 c 1
 771 657 768 635 760 625 c 1
 753 625 691 623 679 602 c 0
 672 588 652 515 645 479 c 2
 645 479 579 139 579 139 c 2
 534 -89 329 -200 270 -218 c 1
 265 -215 259 -205 259 -200 c 0
 259 -197 260 -195 261 -194 c 0
 352 -145 438 -63 479 69 c 1x90
EndSplineSet
Validated: 33
EndChar

StartChar: eng
Encoding: 331 331 396
Width: 503
VWidth: 0
Flags: W
HStem: -218 22<133.484 139.626> -6 21G<100.5 111.5> 339 110<302.5 411> 363 86<85 186>
VStem: 111 122<246.121 405.986> 333 122<220.227 398.174>
LayerCount: 2
Back
Fore
SplineSet
414 120 m 0xec
 398 36 369 -20 328 -75 c 0
 285 -132 168 -210 140 -218 c 1
 135 -218 130 -205 130 -196 c 1
 235 -115 265 -49 294 100 c 0
 294 100 321 242 321 242 c 2
 323 254 333 308 333 318 c 0
 333 328 328 339 317 339 c 0xec
 288 339 210 218 182 91 c 10
 182 91 162 0 162 0 c 17
 152 -3 117 -6 106 -6 c 0
 95 -6 59 -3 47 0 c 1
 47 0 106 309 106 309 c 2
 107 313 111 337 111 342 c 0
 111 351 106 363 96 363 c 0
 74 363 28 308 25 302 c 1
 18 302 11 323 11 329 c 1
 28 361 112 449 166 449 c 0xdc
 206 449 233 424 233 378 c 0
 233 364 226 329 224 318 c 0
 221 304 219 295 214 274 c 1
 244 342 333 449 383 449 c 3
 439 449 455 419 455 362 c 0
 455 328 440 259 435 233 c 2
 435 233 414 120 414 120 c 0xec
EndSplineSet
Validated: 1
EndChar

StartChar: Tbar
Encoding: 358 358 397
Width: 596
Flags: W
HStem: -4 37<116.402 182.998 328.001 380.413> 304 39<142.682 482.88> 613 44<161.131 300 430 560.637>
VStem: 592 36<483.215 572.16>
LayerCount: 2
Back
Fore
SplineSet
151 343 m 1
 179 343 468 343 481 343 c 0
 485 343 487 339 486 335 c 0
 485 330 480 311 475 304 c 1
 447 304 157 304 144 304 c 0
 140 304 140 311 141 315 c 0
 142 320 144 336 151 343 c 1
EndSplineSet
Refer: 52 84 N 1 0 0 1 0 0 3
Validated: 5
EndChar

StartChar: tbar
Encoding: 359 359 398
Width: 351
Flags: W
HStem: -8 86<120.5 222> 279 39<25.6816 310.88> 378 46<68.3211 133 258 348.431>
VStem: 74 123<34.1714 190.195>
LayerCount: 2
Back
Fore
SplineSet
34 318 m 1
 62 318 296 318 309 318 c 0
 313 318 315 314 314 310 c 0
 313 305 308 286 303 279 c 1
 275 279 40 279 27 279 c 0
 23 279 23 286 24 290 c 0
 25 295 27 311 34 318 c 1
EndSplineSet
Refer: 84 116 N 1 0 0 1 24 0 2
Validated: 5
EndChar

StartChar: OE
Encoding: 338 338 399
Width: 979
Flags: W
HStem: -10 43<259.026 429.487> -2 44<614.668 810.762> 310 47<666.968 791.521> 620 37<718.338 892.305> 624 43<351.918 508.413 755.281 892.305>
VStem: 51 144<149.833 394.085> 813 29<234.175 275.196> 850 29<399.002 434.894> 925 36<511.277 581.026>
LayerCount: 2
Back
Fore
SplineSet
421 624 m 3xaf80
 283 624 195 409 195 244 c 0
 195 129 232 33 324 33 c 0
 437 33 481 81 492 139 c 0
 492 139 535 360 557 472 c 0
 565 514 557 559 526 589 c 0
 497 617 454 624 421 624 c 3xaf80
549 -2 m 0x7780
 537 -2 480 -3 427 -6 c 0
 390 -8 349 -10 297 -10 c 0
 157 -10 51 115 51 261 c 0
 51 510 228 667 443 667 c 0xaf80
 542 667 567 657 637 657 c 0
 676 657 908 663 963 664 c 1
 962 646 961 628 961 610 c 0
 960 577 961 545 961 516 c 1
 958 513 945 511 938 511 c 0
 931 511 926 514 925 519 c 0
 916 574 901 620 844 620 c 2
 844 620 767 620 767 620 c 0
 746 620 725 619 718 608 c 0
 711 596 708 576 702 547 c 2
 702 547 667 368 667 368 c 2
 666 362 685 357 705 357 c 2
 705 357 754 357 754 357 c 2
 809 357 824 369 850 427 c 0
 852 432 855 435 862 435 c 0
 869 435 877 433 879 430 c 1
 879 430 842 238 842 238 c 1
 840 236 831 234 824 234 c 0
 817 234 813 237 813 242 c 0
 811 290 800 299 792 303 c 0
 782 308 758 310 723 310 c 0
 697 310 655 308 653 296 c 2
 653 296 623 141 623 141 c 2
 622 135 611 82 615 62 c 0
 618 48 647 42 671 42 c 0
 671 42 733 42 733 42 c 2
 768 42 800 52 826 75 c 0
 850 96 869 125 894 170 c 0
 896 174 902 176 909 176 c 0
 918 176 933 173 935 170 c 1
 907 116 867 42 852 -2 c 1
 828 -2 675 -2 549 -2 c 0x7780
EndSplineSet
Validated: 33
EndChar

StartChar: oe
Encoding: 339 339 400
Width: 655
Flags: W
HStem: -6 83<370 484.5> -6 40<149.948 216.208> 188 38<406 447.561> 412 37<226.683 283.693 465.606 554.5>
VStem: 15 125<55.3865 244.792> 296 105<230.893 303.366> 521 119<301.561 411.54>
LayerCount: 2
Back
Fore
SplineSet
406 226 m 1x3e
 445 226 521 299 521 373 c 0
 521 391 517 412 495 412 c 0
 447 412 411 277 406 226 c 1x3e
262 409 m 0
 187 409 140 235 140 125 c 0
 140 101 140 34 174 34 c 0x7e
 249 34 296 209 296 312 c 0
 296 345 296 409 262 409 c 0
529 449 m 0
 580 449 640 427 640 357 c 0
 640 254 465 188 403 188 c 1
 402 185 401 168 401 163 c 0
 401 126 412 77 462 77 c 0
 507 77 560 139 563 142 c 1
 572 142 578 118 578 112 c 1
 565 90 455 -6 392 -6 c 0xbe
 348 -6 314 15 295 53 c 1
 252 17 203 -6 158 -6 c 0
 75 -6 15 46 15 142 c 0
 15 286 153 449 273 449 c 0
 328 449 374 434 400 391 c 1
 441 426 486 449 529 449 c 0
EndSplineSet
Validated: 1
EndChar

StartChar: zero.onum
Encoding: 65552 -1 405
Width: 486
Flags: W
HStem: -7 68<218.223 311.177> 381 68<261.428 354.167>
LayerCount: 2
Back
Fore
SplineSet
312 381 m 0
 257 381 206 309 191 231 c 0
 173 139 206 61 261 61 c 0
 316 61 366 133 381 211 c 0
 399 303 367 381 312 381 c 0
330 449 m 0
 452 449 529 347 505 221 c 0
 481 95 365 -7 242 -7 c 0
 120 -7 44 95 68 221 c 0
 92 347 208 449 330 449 c 0
EndSplineSet
Validated: 33
EndChar

StartChar: one.onum
Encoding: 65553 -1 406
Width: 295
Flags: W
HStem: -4 37<31.5703 86.5629 234.833 277.812> 4 29<36 152> 402 37<102.915 104 104.009 155.18>
VStem: 29 326
LayerCount: 2
Back
Fore
SplineSet
229 446 m 0xb0
 272 449 315 456 355 462 c 1
 357 459 358 444 356 435 c 0
 355 430 353 425 351 425 c 0
 340 424 296 406 292 395 c 0
 283 369 273 320 272 313 c 2
 272 313 241 149 241 149 c 2
 234 115 229 86 230 58 c 0
 231 47 271 33 278 33 c 0x70
 281 33 280 23 278 15 c 0
 276 7 274 -1 272 -4 c 1xb0
 234 -2 188 4 152 4 c 0x70
 113 4 68 -2 29 -4 c 1
 25 1 31 33 36 33 c 0
 47 33 90 47 95 58 c 0
 106 84 116 127 117 134 c 2
 117 134 149 298 149 298 c 2
 156 332 159 354 156 382 c 0
 154 400 132 402 124 402 c 0
 117 402 104 401 104 401 c 0
 100 401 102 417 104 427 c 0
 105 430 105 433 108 439 c 1
 146 440 192 443 229 446 c 0xb0
EndSplineSet
Validated: 33
EndChar

StartChar: two.onum
Encoding: 65554 -1 407
Width: 424
Flags: W
HStem: 0 102<178.86 219.867 220 366.125> 380 83<219.812 342.5>
LayerCount: 2
Back
Fore
SplineSet
298 463 m 0
 387 463 437 404 423 330 c 0
 415 287 378 258 369 251 c 0
 301 197 234 152 179 113 c 0
 176 110 174 102 179 102 c 2
 309 102 l 2
 364 102 376 136 400 175 c 0
 403 180 405 182 411 182 c 0
 415 182 434 179 437 174 c 1
 416 123 382 50 363 0 c 1
 220 1 l 1
 220 1 37 0 30 0 c 1
 23 3 25 14 27 24 c 1
 153 134 274 235 287 303 c 0
 295 343 277 380 227 380 c 0
 160 380 108 295 101 295 c 1
 90 295 84 315 86 324 c 0
 88 332 89 336 90 337 c 0
 117 373 216 463 298 463 c 0
EndSplineSet
Validated: 33
EndChar

StartChar: three.onum
Encoding: 65555 -1 408
Width: 414
Flags: W
HStem: -183 51<49 174.981> 391 72<237.006 341>
LayerCount: 2
Back
Fore
SplineSet
320 463 m 0
 362 463 424 442 408 360 c 0
 394 289 336 242 282 197 c 1
 318 197 426 168 406 63 c 0
 379 -78 186 -183 67 -183 c 0
 31 -183 8 -173 -6 -166 c 1
 -8 -159 -10 -146 -8 -137 c 0
 -2 -108 29 -82 51 -82 c 0
 91 -82 80 -132 126 -132 c 0
 185 -132 255 -69 272 21 c 0
 287 96 260 140 198 140 c 0
 185 140 167 134 147 128 c 1
 141 131 140 142 142 150 c 0
 143 154 146 168 149 173 c 1
 210 197 275 236 292 322 c 0
 301 367 274 391 250 391 c 0
 211 391 184 357 170 346 c 0
 166 343 164 342 162 342 c 0
 155 342 150 356 152 365 c 0
 152 367 153 368 154 369 c 0
 198 418 247 463 320 463 c 0
EndSplineSet
Validated: 33
EndChar

StartChar: four.onum
Encoding: 65556 -1 409
Width: 455
Flags: W
HStem: 6 70<130 266.997 398.956 428>
LayerCount: 2
Back
Fore
SplineSet
286 -184 m 0
 254 -184 232 -180 234 -171 c 2
 267 0 l 1
 267 5 263 5 260 5 c 2
 37 6 l 1
 31 14 27 26 32 54 c 1
 173 199 304 318 428 450 c 0
 436 458 449 464 456 464 c 0
 462 464 473 462 471 454 c 2
 399 84 l 2
 398 79 401 77 406 76 c 1
 436 76 l 2
 447 76 446 59 438 16 c 0
 437 10 428 6 428 6 c 1
 389 6 l 2
 385 6 383 3 382 -2 c 2
 349 -175 l 1
 349 -175 325 -184 286 -184 c 0
283 82 m 1
 320 269 l 2
 321 272 319 278 317 278 c 1
 317 278 316 277 315 276 c 2
 126 88 l 2
 125 87 125 86 125 85 c 0
 124 81 126 76 130 76 c 2
 274 75 l 1
 277 76 281 76 283 82 c 1
EndSplineSet
Validated: 33
EndChar

StartChar: five.onum
Encoding: 65557 -1 410
Width: 351
Flags: W
HStem: -183 31<-12.24 60.2596> 354 108<178.5 396.131>
LayerCount: 2
Back
Fore
SplineSet
410 462 m 1
 413 456 414 446 411 428 c 0
 408 411 395 367 386 354 c 1
 261 350 213 352 195 351 c 0
 186 350 184 347 182 342 c 2
 166 294 l 1
 164 287 171 283 178 281 c 0
 279 259 358 165 338 60 c 0
 303 -118 144 -183 -13 -183 c 1
 -14 -178 -15 -174 -13 -164 c 0
 -11 -153 -6 -152 -1 -152 c 0
 57 -152 181 -102 206 29 c 0
 228 144 174 194 100 207 c 0
 96 208 91 209 87 218 c 0
 168 451 l 0
 170 454 173 457 176 457 c 0
 242 457 375 454 410 462 c 1
EndSplineSet
Validated: 33
EndChar

StartChar: six.onum
Encoding: 65558 -1 411
Width: 467
VWidth: 0
Flags: W
HStem: -6 52<201.719 280.112>
VStem: 65 126<70.8621 269.88> 330 126<133.293 300.155>
LayerCount: 2
Back
Fore
SplineSet
278 344 m 3
 278 355 305 367 334 367 c 0
 400 367 456 299 456 218 c 0
 456 102 337 -6 228 -6 c 0
 135 -6 65 55 65 161 c 0
 65 298 189 519 502 645 c 1
 510 642 513 621 512 611 c 1
 397 562 293 475 233 334 c 0
 199 254 191 175 191 120 c 0
 191 72 205 46 240 46 c 0
 294 46 330 144 330 224 c 0
 330 270 321 291 312 300 c 0
 302 310 286 316 279 318 c 1
 278 323 278 334 278 344 c 3
EndSplineSet
Validated: 33
EndChar

StartChar: seven.onum
Encoding: 65559 -1 412
Width: 449
Flags: W
HStem: 355 102<150.318 400>
LayerCount: 2
Back
Fore
SplineSet
449 457 m 2
 473 457 506 460 512 460 c 0
 518 460 518 456 517 451 c 0
 514 438 502 415 479 384 c 2
 80 -182 l 1
 77 -183 76 -183 74 -183 c 0
 57 -183 44 -167 47 -154 c 0
 48 -151 49 -147 51 -144 c 2
 400 355 l 1
 197 355 l 1
 151 355 120 296 110 276 c 1
 102 275 82 274 76 282 c 1
 92 328 133 414 146 445 c 0
 149 453 158 457 166 457 c 2
 449 457 l 2
EndSplineSet
Validated: 33
EndChar

StartChar: eight.onum
Encoding: 65560 -1 413
Width: 430
Flags: W
HStem: -6 52<186.654 275.509> 580 53<281.631 364.29>
LayerCount: 2
Back
Fore
SplineSet
177 159 m 24
 167 106 177 46 226 46 c 27
 267 46 301 86 310 134 c 0
 322 198 267 248 243 270 c 0
 239 274 233 276 231 276 c 0
 229 276 228 276 226 275 c 0
 205 264 186 206 177 159 c 24
256 494 m 0
 245 436 275 412 301 388 c 0
 303 386 308 384 312 384 c 0
 315 384 317 385 318 386 c 0
 345 409 359 443 367 483 c 0
 378 542 369 580 327 580 c 3
 289 580 267 549 256 494 c 0
134 486 m 0
 151 574 249 633 335 633 c 27
 423 633 507 584 489 489 c 0
 474 412 393 361 358 341 c 0
 356 340 354 335 356 334 c 0
 376 315 458 251 442 170 c 24
 421 62 309 -6 209 -6 c 27
 114 -6 30 39 53 159 c 0
 71 253 159 298 192 315 c 0
 194 316 196 320 193 323 c 0
 166 353 116 392 134 486 c 0
EndSplineSet
Validated: 33
EndChar

StartChar: nine.onum
Encoding: 65561 -1 414
Width: 451
VWidth: 0
Flags: W
HStem: -183 34<34.5789 62.0265> 404 52<261.888 340.281>
VStem: 86 126<149.845 316.707> 351 126<184.042 379.138>
LayerCount: 2
Back
Fore
SplineSet
264 105 m 3
 264 94 237 83 208 83 c 0
 142 83 86 151 86 232 c 0
 86 348 205 456 314 456 c 0
 407 456 477 395 477 289 c 0
 477 152 334 -102 40 -183 c 1
 33 -183 30 -155 30 -149 c 1
 145 -100 249 -25 309 116 c 0
 343 196 351 275 351 330 c 0
 351 378 337 404 302 404 c 0
 248 404 212 306 212 226 c 0
 212 180 221 159 230 150 c 0
 240 140 256 134 263 132 c 1
 264 127 264 115 264 105 c 3
EndSplineSet
Validated: 1
EndChar

StartChar: uni02BE
Encoding: 702 702 420
Width: 187
Flags: W
HStem: 446 39<20.1104 70.9621> 663 38<61.948 96.8537>
VStem: 15 152
LayerCount: 2
Back
Fore
SplineSet
65 701 m 1
 148 701 177 628 167 574 c 0
 155 514 96 446 15 446 c 1
 14 456 18 475 23 485 c 1
 67 485 102 530 110 574 c 24
 119 619 101 663 57 663 c 1
 56 673 59 689 65 701 c 1
EndSplineSet
Validated: 33
EndChar

StartChar: uni02BF
Encoding: 703 703 421
Width: 187
Flags: W
HStem: 446 39<90.6674 124.89> 663 38<117.918 166.988>
VStem: 20 152
LayerCount: 2
Back
Fore
SplineSet
172 701 m 1
 174 689 169 673 164 663 c 1
 120 663 86 619 77 574 c 24
 68 530 86 485 130 485 c 1
 131 475 127 456 122 446 c 1
 41 446 8 514 20 574 c 0
 30 628 89 701 172 701 c 1
EndSplineSet
Validated: 33
EndChar

StartChar: uni201F
Encoding: 8223 8223 447
Width: 313
Flags: W
HStem: 474 232<211 217 349 353>
LayerCount: 2
Back
Fore
SplineSet
286 625 m 0
 294 655 307 682 319 695 c 1
 329 702 349 706 356 706 c 0
 386 706 405 680 399 656 c 0
 395 642 382 633 368 620 c 0
 355 608 342 592 335 566 c 0
 333 557 324 528 370 492 c 1
 363 481 353 474 346 474 c 0
 338 474 260 531 286 625 c 0
148 625 m 0
 156 655 169 682 181 695 c 1
 191 702 211 706 218 706 c 0
 248 706 267 680 261 656 c 0
 257 642 246 633 232 620 c 0
 219 608 206 592 199 566 c 0
 197 557 188 528 234 492 c 1
 227 481 217 474 210 474 c 0
 202 474 122 531 148 625 c 0
EndSplineSet
Validated: 33
EndChar

StartChar: quotereversed
Encoding: 8219 8219 448
Width: 175
Flags: W
HStem: 474 232<211 215>
LayerCount: 2
Back
Fore
SplineSet
148 625 m 0
 156 655 169 682 181 695 c 1
 191 702 211 706 218 706 c 0
 248 706 267 680 261 656 c 0
 257 642 244 633 230 620 c 0
 217 608 204 592 197 566 c 0
 195 557 186 528 232 492 c 1
 225 481 215 474 208 474 c 0
 200 474 122 531 148 625 c 0
EndSplineSet
Validated: 33
EndChar

StartChar: f_f
Encoding: 65562 -1 449
Width: 598
VWidth: 0
Flags: W
HStem: -218 46<-75 3.87445 205 283.874> -200 82<-134.898 -62.747 145.102 217.253> 378 46<51.3211 107 231 387 511 614.157> 639 44<310.802 407.107> 649 46<562.315 640>
LayerCount: 2
Back
Fore
SplineSet
623 695 m 0x28
 657 695 686 685 697 677 c 1
 702 669 706 657 706 644 c 0
 706 619 691 595 668 595 c 0
 651 595 637 604 626 619 c 0
 617 632 607 649 589 649 c 0
 558 649 542 583 511 424 c 1
 511 424 611 424 611 424 c 2
 615 424 616 417 616 412 c 0
 616 402 610 386 605 378 c 1
 605 378 502 378 502 378 c 1
 502 378 471 184 447 58 c 0
 415 -106 302 -218 222 -218 c 0xa8
 188 -218 159 -208 148 -200 c 1
 143 -192 139 -180 139 -167 c 0
 139 -142 154 -118 177 -118 c 0x60
 194 -118 208 -127 219 -142 c 0
 228 -155 238 -172 256 -172 c 0
 295 -172 300 -105 331 54 c 1
 331 54 387 378 387 378 c 1
 387 378 222 378 222 378 c 1
 222 378 191 184 167 58 c 0
 135 -106 22 -218 -58 -218 c 0xa0
 -92 -218 -121 -208 -132 -200 c 1
 -137 -192 -141 -180 -141 -167 c 0
 -141 -142 -126 -118 -103 -118 c 0x60
 -86 -118 -72 -127 -61 -142 c 0
 -52 -155 -42 -172 -24 -172 c 0
 15 -172 20 -105 51 54 c 1
 51 54 107 378 107 378 c 1
 107 378 42 378 42 378 c 2
 41 378 40 379 40 381 c 0
 40 391 65 424 88 424 c 2
 88 424 115 424 115 424 c 1
 147 588 265 683 381 683 c 0xb0
 438 683 488 657 505 630 c 1
 547 672 592 695 623 695 c 0x28
395 424 m 1
 405 476 425 523 450 562 c 1
 426 611 392 638 354 639 c 0x30
 302 640 259 565 231 424 c 1
 231 424 395 424 395 424 c 1
EndSplineSet
Validated: 33
Ligature2: "'liga' Standard Ligatures lookup 0-1" f f
LCarets2: 1 0 
EndChar

StartChar: f_i
Encoding: 65563 -1 450
Width: 578
VWidth: 0
Flags: W
HStem: -218 46<-75 3.87445> -8 86<374.5 476> 362 46<48.3211 104 228 370.963> 639 44<309.516 398.364>
VStem: 328 123<34.1714 189.776>
LayerCount: 2
Back
Fore
SplineSet
478 418 m 3
 482 418 502 400 502 391 c 3
 502 353 470 210 455 132 c 0
 454 128 451 104 451 99 c 0
 451 90 455 78 465 78 c 0
 487 78 533 133 536 139 c 1
 543 139 550 118 550 112 c 1
 533 80 445 -8 391 -8 c 0
 358 -8 328 12 328 63 c 0
 328 77 335 115 337 123 c 1
 368 279 l 1
 372 306 390 369 330 367 c 2
 219 362 l 1
 219 362 191 184 167 58 c 0
 135 -106 22 -218 -58 -218 c 0
 -92 -218 -121 -208 -132 -200 c 1
 -137 -192 -141 -180 -141 -167 c 0
 -141 -142 -126 -118 -103 -118 c 0
 -86 -118 -72 -127 -61 -142 c 0
 -52 -155 -42 -172 -24 -172 c 0
 15 -172 20 -105 51 54 c 1
 104 362 l 1
 39 362 l 2
 38 362 37 363 37 365 c 0
 37 375 62 408 85 408 c 2
 112 408 l 1
 139 572 249 682 381 683 c 0
 445 683 494 653 505 645 c 1
 510 637 514 625 514 612 c 0
 514 587 507 559 485 553 c 0
 459 545 430 562 419 577 c 0
 395 612 404 639 354 639 c 0
 298 639 253 553 228 408 c 1
 331 410 385 418 478 418 c 3
EndSplineSet
Validated: 33
Ligature2: "'liga' Standard Ligatures lookup 0-1" f i
LCarets2: 1 0 
EndChar

StartChar: f_f_i
Encoding: 65564 -1 451
Width: 858
VWidth: 0
Flags: W
HStem: -218 46<-75 3.87445 205 283.874> -200 82<-134.898 -62.747 145.102 217.253> -8 86<654.5 756> 362 46<48.3211 104 228 384 508 650.963> 639 44<310.481 408.363 589.232 678.364>
VStem: 608 123<34.1714 189.776>
LayerCount: 2
Back
Fore
SplineSet
758 418 m 0xbc
 762 418 782 400 782 391 c 0
 782 353 750 210 735 132 c 0
 734 128 731 104 731 99 c 0
 731 90 735 78 745 78 c 0
 767 78 813 133 816 139 c 1
 823 139 830 118 830 112 c 1
 813 80 725 -8 671 -8 c 0
 638 -8 608 12 608 63 c 0
 608 77 615 115 617 123 c 2
 617 123 648 279 648 279 c 1
 652 306 670 369 610 367 c 2
 610 367 499 362 499 362 c 1
 499 362 471 184 447 58 c 0
 415 -106 302 -218 222 -218 c 0xbc
 188 -218 159 -208 148 -200 c 1
 143 -192 139 -180 139 -167 c 0
 139 -142 154 -118 177 -118 c 0x7c
 194 -118 208 -127 219 -142 c 0
 228 -155 238 -172 256 -172 c 0
 295 -172 300 -105 331 54 c 1
 331 54 384 362 384 362 c 1
 384 362 219 362 219 362 c 1
 219 362 191 184 167 58 c 0
 135 -106 22 -218 -58 -218 c 0xbc
 -92 -218 -121 -208 -132 -200 c 1
 -137 -192 -141 -180 -141 -167 c 0
 -141 -142 -126 -118 -103 -118 c 0x7c
 -86 -118 -72 -127 -61 -142 c 0
 -52 -155 -42 -172 -24 -172 c 0
 15 -172 20 -105 51 54 c 1
 51 54 104 362 104 362 c 1
 104 362 39 362 39 362 c 2
 38 362 37 363 37 365 c 0
 37 375 62 408 85 408 c 2
 85 408 112 408 112 408 c 1
 144 591 265 683 381 683 c 0
 441 683 492 654 507 626 c 1
 551 662 604 683 661 683 c 0
 725 683 774 653 785 645 c 1
 790 637 794 625 794 612 c 0
 794 587 787 559 765 553 c 0
 739 545 710 562 699 577 c 0
 675 612 684 639 634 639 c 0
 578 639 533 553 508 408 c 1
 611 410 665 418 758 418 c 0xbc
392 408 m 1
 402 467 422 520 450 562 c 1
 426 611 392 638 354 639 c 0
 302 640 256 560 228 408 c 1
 228 408 392 408 392 408 c 1
EndSplineSet
Validated: 33
Ligature2: "'liga' Standard Ligatures lookup 0-1" f f i
LCarets2: 2 0 0 
EndChar

StartChar: f_l
Encoding: 65565 -1 452
Width: 601
VWidth: 0
Flags: W
HStem: -218 46<-75 3.87445> -8 86<395.5 497> 378 46<51.3211 107 231 334.157> 639 44<310.802 411.991>
VStem: 349 123<34.1714 191.016>
LayerCount: 2
Back
Fore
SplineSet
445 573 m 1
 427 615 390 639 354 639 c 0
 302 640 259 565 231 424 c 1
 331 424 l 2
 335 424 336 417 336 412 c 0
 336 402 330 386 325 378 c 1
 222 378 l 1
 222 378 191 184 167 58 c 0
 135 -106 22 -218 -58 -218 c 0
 -92 -218 -121 -208 -132 -200 c 1
 -137 -192 -141 -180 -141 -167 c 0
 -141 -142 -126 -118 -103 -118 c 0
 -86 -118 -72 -127 -61 -142 c 0
 -52 -155 -42 -172 -24 -172 c 0
 15 -172 20 -105 51 54 c 1
 107 378 l 1
 42 378 l 2
 41 378 40 379 40 381 c 0
 40 391 65 424 88 424 c 2
 115 424 l 1
 147 588 265 683 381 683 c 0
 407 683 432 678 453 669 c 1
 514 678 578 695 595 701 c 1
 600 698 601 688 601 682 c 0
 601 674 573 626 568 602 c 2
 476 132 l 2
 475 126 472 104 472 99 c 0
 472 90 476 78 486 78 c 0
 508 78 554 133 557 139 c 1
 564 139 571 118 571 112 c 1
 554 80 466 -8 412 -8 c 0
 379 -8 349 12 349 63 c 0
 349 77 356 115 358 123 c 2
 443 560 l 2
 444 564 444 569 445 573 c 1
EndSplineSet
Validated: 33
Ligature2: "'liga' Standard Ligatures lookup 0-1" f l
LCarets2: 1 0 
EndChar

StartChar: f_f_l
Encoding: 65566 -1 453
Width: 881
VWidth: 0
Flags: W
HStem: -218 46<-75 3.87445 205 283.874> -200 82<-134.898 -62.747 145.102 217.253> -8 86<675.5 777> 378 46<51.3211 107 231 387 511 614.157> 639 44<310.802 408.125 588.768 691.991>
VStem: 629 123<34.1714 191.016>
LayerCount: 2
Back
Fore
SplineSet
508 625 m 1xbc
 554 663 607 683 661 683 c 0
 687 683 712 678 733 669 c 1
 794 678 858 695 875 701 c 1
 880 698 881 688 881 682 c 0
 881 674 853 626 848 602 c 2
 848 602 756 132 756 132 c 2
 755 126 752 104 752 99 c 0
 752 90 756 78 766 78 c 0
 788 78 834 133 837 139 c 1
 844 139 851 118 851 112 c 1
 834 80 746 -8 692 -8 c 0
 659 -8 629 12 629 63 c 0
 629 77 636 115 638 123 c 2
 638 123 723 560 723 560 c 2
 724 564 724 569 725 573 c 1
 707 615 670 639 634 639 c 0
 582 640 539 565 511 424 c 1
 511 424 611 424 611 424 c 2
 615 424 616 417 616 412 c 0
 616 402 610 386 605 378 c 1
 605 378 502 378 502 378 c 1
 502 378 471 184 447 58 c 0
 415 -106 302 -218 222 -218 c 0xbc
 188 -218 159 -208 148 -200 c 1
 143 -192 139 -180 139 -167 c 0
 139 -142 154 -118 177 -118 c 0x7c
 194 -118 208 -127 219 -142 c 0
 228 -155 238 -172 256 -172 c 0
 295 -172 300 -105 331 54 c 1
 331 54 387 378 387 378 c 1
 387 378 222 378 222 378 c 1
 222 378 191 184 167 58 c 0
 135 -106 22 -218 -58 -218 c 0xbc
 -92 -218 -121 -208 -132 -200 c 1
 -137 -192 -141 -180 -141 -167 c 0
 -141 -142 -126 -118 -103 -118 c 0x7c
 -86 -118 -72 -127 -61 -142 c 0
 -52 -155 -42 -172 -24 -172 c 0
 15 -172 20 -105 51 54 c 1
 51 54 107 378 107 378 c 1
 107 378 42 378 42 378 c 2
 41 378 40 379 40 381 c 0
 40 391 65 424 88 424 c 2
 88 424 115 424 115 424 c 1
 147 588 265 683 381 683 c 0
 441 683 494 653 508 625 c 1xbc
451 561 m 1
 427 610 393 638 354 639 c 0
 302 640 259 565 231 424 c 1
 231 424 395 424 395 424 c 1
 405 477 425 523 451 561 c 1
EndSplineSet
Validated: 33
Ligature2: "'liga' Standard Ligatures lookup 0-1" f f l
LCarets2: 2 0 0 
EndChar

